G75*
%MOIN*%
%OFA0B0*%
%FSLAX25Y25*%
%IPPOS*%
%LPD*%
%AMOC8*
5,1,8,0,0,1.08239X$1,22.5*
%
%ADD10R,0.03950X0.03950*%
%ADD11C,0.06737*%
%ADD12C,0.10643*%
%ADD13R,0.06800X0.06800*%
%ADD14OC8,0.06800*%
%ADD15C,0.08674*%
%ADD16C,0.07800*%
%ADD17R,0.07300X0.07300*%
%ADD18C,0.07300*%
%ADD19C,0.06343*%
%ADD20R,0.04540X0.04860*%
%ADD21C,0.09400*%
%ADD22C,0.18300*%
%ADD23C,0.03778*%
D10*
X0289500Y0065047D03*
X0289500Y0070953D03*
X0290000Y0096047D03*
X0290000Y0101953D03*
X0290000Y0127047D03*
X0290000Y0132953D03*
D11*
X0316657Y0171500D03*
X0326500Y0171500D03*
X0336343Y0171500D03*
D12*
X0346185Y0199059D03*
X0306815Y0199059D03*
D13*
X0071768Y0256398D03*
X0071768Y0356398D03*
D14*
X0071768Y0366398D03*
X0081768Y0366398D03*
X0091768Y0366398D03*
X0101768Y0366398D03*
X0111768Y0366398D03*
X0121768Y0366398D03*
X0131768Y0366398D03*
X0141768Y0366398D03*
X0151768Y0366398D03*
X0161768Y0366398D03*
X0171768Y0366398D03*
X0181768Y0366398D03*
X0191768Y0366398D03*
X0201768Y0366398D03*
X0211768Y0366398D03*
X0221768Y0366398D03*
X0231768Y0366398D03*
X0241768Y0366398D03*
X0241768Y0356398D03*
X0231768Y0356398D03*
X0221768Y0356398D03*
X0211768Y0356398D03*
X0201768Y0356398D03*
X0191768Y0356398D03*
X0181768Y0356398D03*
X0171768Y0356398D03*
X0161768Y0356398D03*
X0151768Y0356398D03*
X0141768Y0356398D03*
X0131768Y0356398D03*
X0121768Y0356398D03*
X0111768Y0356398D03*
X0101768Y0356398D03*
X0091768Y0356398D03*
X0081768Y0356398D03*
X0081768Y0266398D03*
X0091768Y0266398D03*
X0101768Y0266398D03*
X0111768Y0266398D03*
X0121768Y0266398D03*
X0131768Y0266398D03*
X0141768Y0266398D03*
X0151768Y0266398D03*
X0161768Y0266398D03*
X0171768Y0266398D03*
X0181768Y0266398D03*
X0191768Y0266398D03*
X0201768Y0266398D03*
X0211768Y0266398D03*
X0221768Y0266398D03*
X0231768Y0266398D03*
X0241768Y0266398D03*
X0241768Y0256398D03*
X0231768Y0256398D03*
X0221768Y0256398D03*
X0211768Y0256398D03*
X0201768Y0256398D03*
X0191768Y0256398D03*
X0181768Y0256398D03*
X0171768Y0256398D03*
X0161768Y0256398D03*
X0151768Y0256398D03*
X0141768Y0256398D03*
X0131768Y0256398D03*
X0121768Y0256398D03*
X0111768Y0256398D03*
X0101768Y0256398D03*
X0091768Y0256398D03*
X0081768Y0256398D03*
X0071768Y0266398D03*
D15*
X0065500Y0154500D03*
X0065500Y0064500D03*
X0237500Y0064500D03*
X0237500Y0154500D03*
D16*
X0165500Y0154500D03*
X0155500Y0154500D03*
X0145500Y0154500D03*
X0135500Y0154500D03*
D17*
X0306500Y0321500D03*
X0491500Y0066500D03*
D18*
X0501500Y0066500D03*
X0326500Y0321500D03*
X0316500Y0321500D03*
D19*
X0481500Y0146500D03*
X0491500Y0146500D03*
X0501500Y0146500D03*
D20*
X0289150Y0357000D03*
X0282850Y0357000D03*
D21*
X0350500Y0279087D03*
X0350500Y0265307D03*
D22*
X0029500Y0045500D03*
X0029500Y0393500D03*
X0593500Y0393500D03*
X0593500Y0045500D03*
D23*
X0487500Y0209500D03*
X0407500Y0220500D03*
X0382500Y0220500D03*
X0438500Y0276000D03*
X0458500Y0288500D03*
X0463500Y0281000D03*
X0477500Y0267500D03*
X0490000Y0307500D03*
X0490500Y0317500D03*
X0515500Y0330500D03*
X0425000Y0332000D03*
X0425000Y0320000D03*
X0425000Y0306500D03*
X0425000Y0345500D03*
X0290000Y0119000D03*
X0290000Y0090500D03*
X0289500Y0057000D03*
X0058500Y0186500D03*
M02*
