G75*
%MOIN*%
%OFA0B0*%
%FSLAX25Y25*%
%IPPOS*%
%LPD*%
%AMOC8*
5,1,8,0,0,1.08239X$1,22.5*
%
%ADD10R,0.03950X0.03950*%
%ADD11C,0.06737*%
%ADD12C,0.10643*%
%ADD13R,0.06800X0.06800*%
%ADD14OC8,0.06800*%
%ADD15C,0.08674*%
%ADD16C,0.07800*%
%ADD17R,0.07300X0.07300*%
%ADD18C,0.07300*%
%ADD19C,0.06343*%
%ADD20R,0.04540X0.04860*%
%ADD21C,0.09400*%
%ADD22C,0.18300*%
%ADD23C,0.03778*%
D10*
X0289300Y0064847D03*
X0289300Y0070753D03*
X0289800Y0095847D03*
X0289800Y0101753D03*
X0289800Y0126847D03*
X0289800Y0132753D03*
D11*
X0316457Y0171300D03*
X0326300Y0171300D03*
X0336143Y0171300D03*
D12*
X0345985Y0198859D03*
X0306615Y0198859D03*
D13*
X0071568Y0256198D03*
X0071568Y0356198D03*
D14*
X0071568Y0366198D03*
X0081568Y0366198D03*
X0091568Y0366198D03*
X0101568Y0366198D03*
X0111568Y0366198D03*
X0121568Y0366198D03*
X0131568Y0366198D03*
X0141568Y0366198D03*
X0151568Y0366198D03*
X0161568Y0366198D03*
X0171568Y0366198D03*
X0181568Y0366198D03*
X0191568Y0366198D03*
X0201568Y0366198D03*
X0211568Y0366198D03*
X0221568Y0366198D03*
X0231568Y0366198D03*
X0241568Y0366198D03*
X0241568Y0356198D03*
X0231568Y0356198D03*
X0221568Y0356198D03*
X0211568Y0356198D03*
X0201568Y0356198D03*
X0191568Y0356198D03*
X0181568Y0356198D03*
X0171568Y0356198D03*
X0161568Y0356198D03*
X0151568Y0356198D03*
X0141568Y0356198D03*
X0131568Y0356198D03*
X0121568Y0356198D03*
X0111568Y0356198D03*
X0101568Y0356198D03*
X0091568Y0356198D03*
X0081568Y0356198D03*
X0081568Y0266198D03*
X0091568Y0266198D03*
X0101568Y0266198D03*
X0111568Y0266198D03*
X0121568Y0266198D03*
X0131568Y0266198D03*
X0141568Y0266198D03*
X0151568Y0266198D03*
X0161568Y0266198D03*
X0171568Y0266198D03*
X0181568Y0266198D03*
X0191568Y0266198D03*
X0201568Y0266198D03*
X0211568Y0266198D03*
X0221568Y0266198D03*
X0231568Y0266198D03*
X0241568Y0266198D03*
X0241568Y0256198D03*
X0231568Y0256198D03*
X0221568Y0256198D03*
X0211568Y0256198D03*
X0201568Y0256198D03*
X0191568Y0256198D03*
X0181568Y0256198D03*
X0171568Y0256198D03*
X0161568Y0256198D03*
X0151568Y0256198D03*
X0141568Y0256198D03*
X0131568Y0256198D03*
X0121568Y0256198D03*
X0111568Y0256198D03*
X0101568Y0256198D03*
X0091568Y0256198D03*
X0081568Y0256198D03*
X0071568Y0266198D03*
D15*
X0065300Y0154300D03*
X0065300Y0064300D03*
X0237300Y0064300D03*
X0237300Y0154300D03*
D16*
X0165300Y0154300D03*
X0155300Y0154300D03*
X0145300Y0154300D03*
X0135300Y0154300D03*
D17*
X0306300Y0321300D03*
X0491300Y0066300D03*
D18*
X0501300Y0066300D03*
X0326300Y0321300D03*
X0316300Y0321300D03*
D19*
X0481300Y0146300D03*
X0491300Y0146300D03*
X0501300Y0146300D03*
D20*
X0288950Y0356800D03*
X0282650Y0356800D03*
D21*
X0350300Y0278887D03*
X0350300Y0265107D03*
D22*
X0029300Y0045300D03*
X0029300Y0393300D03*
X0593300Y0393300D03*
X0593300Y0045300D03*
D23*
X0487300Y0209300D03*
X0407300Y0220300D03*
X0382300Y0220300D03*
X0438300Y0275800D03*
X0458300Y0288300D03*
X0463300Y0280800D03*
X0477300Y0267300D03*
X0489800Y0307300D03*
X0490300Y0317300D03*
X0515300Y0330300D03*
X0424800Y0331800D03*
X0424800Y0319800D03*
X0424800Y0306300D03*
X0424800Y0345300D03*
X0289800Y0118800D03*
X0289800Y0090300D03*
X0289300Y0056800D03*
X0058300Y0186300D03*
M02*
