G75*
%MOIN*%
%OFA0B0*%
%FSLAX25Y25*%
%IPPOS*%
%LPD*%
%AMOC8*
5,1,8,0,0,1.08239X$1,22.5*
%
%ADD10C,0.00300*%
%ADD11C,0.00600*%
%ADD12C,0.00500*%
%ADD13C,0.01000*%
%ADD14C,0.00400*%
%ADD15C,0.00200*%
%ADD16C,0.01200*%
%ADD17C,0.00800*%
%ADD18R,0.03500X0.00750*%
D10*
X0183450Y0201450D02*
X0183450Y0204350D01*
X0184256Y0204350D01*
X0184311Y0204348D01*
X0184366Y0204342D01*
X0184420Y0204333D01*
X0184473Y0204320D01*
X0184526Y0204303D01*
X0184577Y0204283D01*
X0184627Y0204260D01*
X0184675Y0204233D01*
X0184721Y0204202D01*
X0184765Y0204169D01*
X0184806Y0204133D01*
X0184845Y0204094D01*
X0184881Y0204053D01*
X0184914Y0204009D01*
X0184945Y0203963D01*
X0184972Y0203915D01*
X0184995Y0203865D01*
X0185015Y0203814D01*
X0185032Y0203761D01*
X0185045Y0203708D01*
X0185054Y0203654D01*
X0185060Y0203599D01*
X0185062Y0203544D01*
X0185060Y0203489D01*
X0185054Y0203434D01*
X0185045Y0203380D01*
X0185032Y0203327D01*
X0185015Y0203274D01*
X0184995Y0203223D01*
X0184972Y0203173D01*
X0184945Y0203125D01*
X0184914Y0203079D01*
X0184881Y0203035D01*
X0184845Y0202994D01*
X0184806Y0202955D01*
X0184765Y0202919D01*
X0184721Y0202886D01*
X0184675Y0202855D01*
X0184627Y0202828D01*
X0184577Y0202805D01*
X0184526Y0202785D01*
X0184473Y0202768D01*
X0184420Y0202755D01*
X0184366Y0202746D01*
X0184311Y0202740D01*
X0184256Y0202738D01*
X0184256Y0202739D02*
X0183450Y0202739D01*
X0184417Y0202739D02*
X0185061Y0201450D01*
X0186310Y0201450D02*
X0187921Y0201450D01*
X0186310Y0201450D02*
X0187679Y0203061D01*
X0187196Y0204350D02*
X0187137Y0204348D01*
X0187079Y0204343D01*
X0187021Y0204333D01*
X0186964Y0204321D01*
X0186908Y0204304D01*
X0186853Y0204285D01*
X0186799Y0204261D01*
X0186747Y0204235D01*
X0186697Y0204205D01*
X0186648Y0204172D01*
X0186602Y0204136D01*
X0186558Y0204097D01*
X0186517Y0204056D01*
X0186478Y0204012D01*
X0186442Y0203966D01*
X0186410Y0203917D01*
X0186380Y0203867D01*
X0186353Y0203815D01*
X0186330Y0203761D01*
X0186310Y0203706D01*
X0187679Y0203061D02*
X0187716Y0203098D01*
X0187750Y0203138D01*
X0187782Y0203180D01*
X0187810Y0203225D01*
X0187836Y0203271D01*
X0187858Y0203318D01*
X0187877Y0203367D01*
X0187893Y0203417D01*
X0187905Y0203468D01*
X0187914Y0203520D01*
X0187919Y0203572D01*
X0187921Y0203625D01*
X0187919Y0203677D01*
X0187914Y0203728D01*
X0187904Y0203779D01*
X0187892Y0203829D01*
X0187875Y0203878D01*
X0187855Y0203926D01*
X0187832Y0203972D01*
X0187806Y0204017D01*
X0187776Y0204059D01*
X0187744Y0204100D01*
X0187709Y0204138D01*
X0187671Y0204173D01*
X0187630Y0204205D01*
X0187588Y0204235D01*
X0187543Y0204261D01*
X0187497Y0204284D01*
X0187449Y0204304D01*
X0187400Y0204321D01*
X0187350Y0204333D01*
X0187299Y0204343D01*
X0187248Y0204348D01*
X0187196Y0204350D01*
X0187115Y0220450D02*
X0186310Y0220450D01*
X0187115Y0220450D02*
X0187170Y0220452D01*
X0187225Y0220458D01*
X0187279Y0220467D01*
X0187332Y0220480D01*
X0187385Y0220497D01*
X0187436Y0220517D01*
X0187486Y0220540D01*
X0187534Y0220567D01*
X0187580Y0220598D01*
X0187624Y0220631D01*
X0187665Y0220667D01*
X0187704Y0220706D01*
X0187740Y0220747D01*
X0187773Y0220791D01*
X0187804Y0220837D01*
X0187831Y0220885D01*
X0187854Y0220935D01*
X0187874Y0220986D01*
X0187891Y0221039D01*
X0187904Y0221092D01*
X0187913Y0221146D01*
X0187919Y0221201D01*
X0187921Y0221256D01*
X0187919Y0221311D01*
X0187913Y0221366D01*
X0187904Y0221420D01*
X0187891Y0221473D01*
X0187874Y0221526D01*
X0187854Y0221577D01*
X0187831Y0221627D01*
X0187804Y0221675D01*
X0187773Y0221721D01*
X0187740Y0221765D01*
X0187704Y0221806D01*
X0187665Y0221845D01*
X0187624Y0221881D01*
X0187580Y0221914D01*
X0187534Y0221945D01*
X0187486Y0221972D01*
X0187436Y0221995D01*
X0187385Y0222015D01*
X0187332Y0222032D01*
X0187279Y0222045D01*
X0187225Y0222054D01*
X0187170Y0222060D01*
X0187115Y0222062D01*
X0187277Y0222061D02*
X0186632Y0222061D01*
X0187277Y0222062D02*
X0187326Y0222064D01*
X0187375Y0222070D01*
X0187424Y0222079D01*
X0187471Y0222092D01*
X0187518Y0222109D01*
X0187563Y0222129D01*
X0187606Y0222152D01*
X0187648Y0222179D01*
X0187687Y0222209D01*
X0187724Y0222242D01*
X0187758Y0222278D01*
X0187789Y0222316D01*
X0187818Y0222356D01*
X0187843Y0222398D01*
X0187865Y0222443D01*
X0187883Y0222488D01*
X0187898Y0222535D01*
X0187909Y0222583D01*
X0187917Y0222632D01*
X0187921Y0222681D01*
X0187921Y0222731D01*
X0187917Y0222780D01*
X0187909Y0222829D01*
X0187898Y0222877D01*
X0187883Y0222924D01*
X0187865Y0222969D01*
X0187843Y0223014D01*
X0187818Y0223056D01*
X0187789Y0223096D01*
X0187758Y0223134D01*
X0187724Y0223170D01*
X0187687Y0223203D01*
X0187648Y0223233D01*
X0187606Y0223260D01*
X0187563Y0223283D01*
X0187518Y0223303D01*
X0187471Y0223320D01*
X0187424Y0223333D01*
X0187375Y0223342D01*
X0187326Y0223348D01*
X0187277Y0223350D01*
X0186310Y0223350D01*
X0184256Y0223350D02*
X0183450Y0223350D01*
X0183450Y0220450D01*
X0183450Y0221739D02*
X0184256Y0221739D01*
X0184417Y0221739D02*
X0185061Y0220450D01*
X0184256Y0221738D02*
X0184311Y0221740D01*
X0184366Y0221746D01*
X0184420Y0221755D01*
X0184473Y0221768D01*
X0184526Y0221785D01*
X0184577Y0221805D01*
X0184627Y0221828D01*
X0184675Y0221855D01*
X0184721Y0221886D01*
X0184765Y0221919D01*
X0184806Y0221955D01*
X0184845Y0221994D01*
X0184881Y0222035D01*
X0184914Y0222079D01*
X0184945Y0222125D01*
X0184972Y0222173D01*
X0184995Y0222223D01*
X0185015Y0222274D01*
X0185032Y0222327D01*
X0185045Y0222380D01*
X0185054Y0222434D01*
X0185060Y0222489D01*
X0185062Y0222544D01*
X0185060Y0222599D01*
X0185054Y0222654D01*
X0185045Y0222708D01*
X0185032Y0222761D01*
X0185015Y0222814D01*
X0184995Y0222865D01*
X0184972Y0222915D01*
X0184945Y0222963D01*
X0184914Y0223009D01*
X0184881Y0223053D01*
X0184845Y0223094D01*
X0184806Y0223133D01*
X0184765Y0223169D01*
X0184721Y0223202D01*
X0184675Y0223233D01*
X0184627Y0223260D01*
X0184577Y0223283D01*
X0184526Y0223303D01*
X0184473Y0223320D01*
X0184420Y0223333D01*
X0184366Y0223342D01*
X0184311Y0223348D01*
X0184256Y0223350D01*
X0296950Y0304450D02*
X0297978Y0304450D01*
X0298040Y0304452D01*
X0298102Y0304457D01*
X0298163Y0304467D01*
X0298224Y0304480D01*
X0298284Y0304497D01*
X0298343Y0304517D01*
X0298400Y0304541D01*
X0298456Y0304568D01*
X0298510Y0304598D01*
X0298562Y0304632D01*
X0298612Y0304669D01*
X0298660Y0304709D01*
X0298705Y0304751D01*
X0298747Y0304796D01*
X0298787Y0304844D01*
X0298824Y0304894D01*
X0298858Y0304946D01*
X0298888Y0305000D01*
X0298915Y0305056D01*
X0298939Y0305113D01*
X0298959Y0305172D01*
X0298976Y0305232D01*
X0298989Y0305293D01*
X0298999Y0305354D01*
X0299004Y0305416D01*
X0299006Y0305478D01*
X0299006Y0307122D01*
X0299004Y0307184D01*
X0298999Y0307246D01*
X0298989Y0307307D01*
X0298976Y0307368D01*
X0298959Y0307428D01*
X0298939Y0307487D01*
X0298915Y0307544D01*
X0298888Y0307600D01*
X0298858Y0307654D01*
X0298824Y0307706D01*
X0298787Y0307756D01*
X0298747Y0307804D01*
X0298705Y0307849D01*
X0298660Y0307891D01*
X0298612Y0307931D01*
X0298562Y0307968D01*
X0298510Y0308002D01*
X0298456Y0308032D01*
X0298400Y0308059D01*
X0298343Y0308083D01*
X0298284Y0308103D01*
X0298224Y0308120D01*
X0298163Y0308133D01*
X0298102Y0308143D01*
X0298040Y0308148D01*
X0297978Y0308150D01*
X0296950Y0308150D01*
X0296950Y0304450D01*
X0301064Y0306608D02*
X0302194Y0305992D01*
X0301783Y0304450D02*
X0301702Y0304452D01*
X0301622Y0304457D01*
X0301542Y0304467D01*
X0301462Y0304480D01*
X0301383Y0304497D01*
X0301305Y0304517D01*
X0301228Y0304541D01*
X0301152Y0304569D01*
X0301078Y0304600D01*
X0301005Y0304634D01*
X0300934Y0304672D01*
X0300864Y0304713D01*
X0300797Y0304757D01*
X0300731Y0304804D01*
X0300668Y0304855D01*
X0300608Y0304908D01*
X0300550Y0304964D01*
X0302194Y0305991D02*
X0302240Y0305962D01*
X0302283Y0305930D01*
X0302325Y0305896D01*
X0302364Y0305858D01*
X0302401Y0305819D01*
X0302435Y0305777D01*
X0302467Y0305732D01*
X0302495Y0305686D01*
X0302520Y0305638D01*
X0302543Y0305589D01*
X0302561Y0305538D01*
X0302577Y0305486D01*
X0302589Y0305434D01*
X0302598Y0305380D01*
X0302603Y0305326D01*
X0302605Y0305272D01*
X0302603Y0305216D01*
X0302597Y0305160D01*
X0302588Y0305105D01*
X0302575Y0305050D01*
X0302558Y0304997D01*
X0302537Y0304945D01*
X0302513Y0304894D01*
X0302485Y0304845D01*
X0302455Y0304798D01*
X0302421Y0304753D01*
X0302384Y0304711D01*
X0302344Y0304671D01*
X0302302Y0304634D01*
X0302257Y0304600D01*
X0302210Y0304570D01*
X0302161Y0304542D01*
X0302110Y0304518D01*
X0302058Y0304497D01*
X0302005Y0304480D01*
X0301950Y0304467D01*
X0301895Y0304458D01*
X0301839Y0304452D01*
X0301783Y0304450D01*
X0302400Y0307842D02*
X0302338Y0307886D01*
X0302274Y0307927D01*
X0302208Y0307965D01*
X0302139Y0307999D01*
X0302070Y0308031D01*
X0301999Y0308058D01*
X0301926Y0308082D01*
X0301853Y0308103D01*
X0301778Y0308120D01*
X0301703Y0308133D01*
X0301627Y0308142D01*
X0301551Y0308148D01*
X0301475Y0308150D01*
X0301419Y0308148D01*
X0301363Y0308142D01*
X0301308Y0308133D01*
X0301253Y0308120D01*
X0301200Y0308103D01*
X0301148Y0308082D01*
X0301097Y0308058D01*
X0301048Y0308030D01*
X0301001Y0308000D01*
X0300956Y0307966D01*
X0300914Y0307929D01*
X0300874Y0307889D01*
X0300837Y0307847D01*
X0300803Y0307802D01*
X0300773Y0307755D01*
X0300745Y0307706D01*
X0300721Y0307655D01*
X0300700Y0307603D01*
X0300683Y0307550D01*
X0300670Y0307495D01*
X0300661Y0307440D01*
X0300655Y0307384D01*
X0300653Y0307328D01*
X0300655Y0307274D01*
X0300660Y0307220D01*
X0300669Y0307166D01*
X0300681Y0307114D01*
X0300697Y0307062D01*
X0300715Y0307011D01*
X0300738Y0306962D01*
X0300763Y0306914D01*
X0300791Y0306868D01*
X0300823Y0306823D01*
X0300857Y0306781D01*
X0300894Y0306742D01*
X0300933Y0306704D01*
X0300975Y0306670D01*
X0301018Y0306638D01*
X0301064Y0306609D01*
X0304030Y0307328D02*
X0305058Y0308150D01*
X0305058Y0304450D01*
X0304030Y0304450D02*
X0306086Y0304450D01*
X0307630Y0305478D02*
X0307632Y0305415D01*
X0307638Y0305352D01*
X0307648Y0305289D01*
X0307661Y0305227D01*
X0307678Y0305166D01*
X0307699Y0305107D01*
X0307724Y0305048D01*
X0307752Y0304992D01*
X0307784Y0304937D01*
X0307819Y0304884D01*
X0307857Y0304834D01*
X0307898Y0304785D01*
X0307942Y0304740D01*
X0307989Y0304697D01*
X0308038Y0304658D01*
X0308090Y0304621D01*
X0308144Y0304588D01*
X0308200Y0304558D01*
X0308257Y0304531D01*
X0308316Y0304508D01*
X0308377Y0304489D01*
X0308438Y0304474D01*
X0308500Y0304462D01*
X0308563Y0304454D01*
X0308626Y0304450D01*
X0308690Y0304450D01*
X0308753Y0304454D01*
X0308816Y0304462D01*
X0308878Y0304474D01*
X0308939Y0304489D01*
X0309000Y0304508D01*
X0309059Y0304531D01*
X0309116Y0304558D01*
X0309172Y0304588D01*
X0309226Y0304621D01*
X0309278Y0304658D01*
X0309327Y0304697D01*
X0309374Y0304740D01*
X0309418Y0304785D01*
X0309459Y0304834D01*
X0309497Y0304884D01*
X0309532Y0304937D01*
X0309564Y0304992D01*
X0309592Y0305048D01*
X0309617Y0305107D01*
X0309638Y0305166D01*
X0309655Y0305227D01*
X0309668Y0305289D01*
X0309678Y0305352D01*
X0309684Y0305415D01*
X0309686Y0305478D01*
X0309684Y0305541D01*
X0309678Y0305604D01*
X0309668Y0305667D01*
X0309655Y0305729D01*
X0309638Y0305790D01*
X0309617Y0305849D01*
X0309592Y0305908D01*
X0309564Y0305964D01*
X0309532Y0306019D01*
X0309497Y0306072D01*
X0309459Y0306122D01*
X0309418Y0306171D01*
X0309374Y0306216D01*
X0309327Y0306259D01*
X0309278Y0306298D01*
X0309226Y0306335D01*
X0309172Y0306368D01*
X0309116Y0306398D01*
X0309059Y0306425D01*
X0309000Y0306448D01*
X0308939Y0306467D01*
X0308878Y0306482D01*
X0308816Y0306494D01*
X0308753Y0306502D01*
X0308690Y0306506D01*
X0308626Y0306506D01*
X0308563Y0306502D01*
X0308500Y0306494D01*
X0308438Y0306482D01*
X0308377Y0306467D01*
X0308316Y0306448D01*
X0308257Y0306425D01*
X0308200Y0306398D01*
X0308144Y0306368D01*
X0308090Y0306335D01*
X0308038Y0306298D01*
X0307989Y0306259D01*
X0307942Y0306216D01*
X0307898Y0306171D01*
X0307857Y0306122D01*
X0307819Y0306072D01*
X0307784Y0306019D01*
X0307752Y0305964D01*
X0307724Y0305908D01*
X0307699Y0305849D01*
X0307678Y0305790D01*
X0307661Y0305729D01*
X0307648Y0305667D01*
X0307638Y0305604D01*
X0307632Y0305541D01*
X0307630Y0305478D01*
X0307836Y0307328D02*
X0307838Y0307272D01*
X0307844Y0307216D01*
X0307853Y0307161D01*
X0307866Y0307106D01*
X0307883Y0307053D01*
X0307904Y0307001D01*
X0307928Y0306950D01*
X0307956Y0306901D01*
X0307986Y0306854D01*
X0308020Y0306809D01*
X0308057Y0306767D01*
X0308097Y0306727D01*
X0308139Y0306690D01*
X0308184Y0306656D01*
X0308231Y0306626D01*
X0308280Y0306598D01*
X0308331Y0306574D01*
X0308383Y0306553D01*
X0308436Y0306536D01*
X0308491Y0306523D01*
X0308546Y0306514D01*
X0308602Y0306508D01*
X0308658Y0306506D01*
X0308714Y0306508D01*
X0308770Y0306514D01*
X0308825Y0306523D01*
X0308880Y0306536D01*
X0308933Y0306553D01*
X0308985Y0306574D01*
X0309036Y0306598D01*
X0309085Y0306626D01*
X0309132Y0306656D01*
X0309177Y0306690D01*
X0309219Y0306727D01*
X0309259Y0306767D01*
X0309296Y0306809D01*
X0309330Y0306854D01*
X0309360Y0306901D01*
X0309388Y0306950D01*
X0309412Y0307001D01*
X0309433Y0307053D01*
X0309450Y0307106D01*
X0309463Y0307161D01*
X0309472Y0307216D01*
X0309478Y0307272D01*
X0309480Y0307328D01*
X0309478Y0307384D01*
X0309472Y0307440D01*
X0309463Y0307495D01*
X0309450Y0307550D01*
X0309433Y0307603D01*
X0309412Y0307655D01*
X0309388Y0307706D01*
X0309360Y0307755D01*
X0309330Y0307802D01*
X0309296Y0307847D01*
X0309259Y0307889D01*
X0309219Y0307929D01*
X0309177Y0307966D01*
X0309132Y0308000D01*
X0309085Y0308030D01*
X0309036Y0308058D01*
X0308985Y0308082D01*
X0308933Y0308103D01*
X0308880Y0308120D01*
X0308825Y0308133D01*
X0308770Y0308142D01*
X0308714Y0308148D01*
X0308658Y0308150D01*
X0308602Y0308148D01*
X0308546Y0308142D01*
X0308491Y0308133D01*
X0308436Y0308120D01*
X0308383Y0308103D01*
X0308331Y0308082D01*
X0308280Y0308058D01*
X0308231Y0308030D01*
X0308184Y0308000D01*
X0308139Y0307966D01*
X0308097Y0307929D01*
X0308057Y0307889D01*
X0308020Y0307847D01*
X0307986Y0307802D01*
X0307956Y0307755D01*
X0307928Y0307706D01*
X0307904Y0307655D01*
X0307883Y0307603D01*
X0307866Y0307550D01*
X0307853Y0307495D01*
X0307844Y0307440D01*
X0307838Y0307384D01*
X0307836Y0307328D01*
X0311402Y0308150D02*
X0312429Y0308150D01*
X0312485Y0308148D01*
X0312541Y0308142D01*
X0312596Y0308133D01*
X0312651Y0308120D01*
X0312704Y0308103D01*
X0312756Y0308082D01*
X0312807Y0308058D01*
X0312856Y0308030D01*
X0312903Y0308000D01*
X0312948Y0307966D01*
X0312990Y0307929D01*
X0313030Y0307889D01*
X0313067Y0307847D01*
X0313101Y0307802D01*
X0313131Y0307755D01*
X0313159Y0307706D01*
X0313183Y0307655D01*
X0313204Y0307603D01*
X0313221Y0307550D01*
X0313234Y0307495D01*
X0313243Y0307440D01*
X0313249Y0307384D01*
X0313251Y0307328D01*
X0313249Y0307272D01*
X0313243Y0307216D01*
X0313234Y0307161D01*
X0313221Y0307106D01*
X0313204Y0307053D01*
X0313183Y0307001D01*
X0313159Y0306950D01*
X0313131Y0306901D01*
X0313101Y0306854D01*
X0313067Y0306809D01*
X0313030Y0306767D01*
X0312990Y0306727D01*
X0312948Y0306690D01*
X0312903Y0306656D01*
X0312856Y0306626D01*
X0312807Y0306598D01*
X0312756Y0306574D01*
X0312704Y0306553D01*
X0312651Y0306536D01*
X0312596Y0306523D01*
X0312541Y0306514D01*
X0312485Y0306508D01*
X0312429Y0306506D01*
X0311402Y0306506D01*
X0312429Y0306506D02*
X0312492Y0306504D01*
X0312555Y0306498D01*
X0312618Y0306488D01*
X0312680Y0306475D01*
X0312741Y0306458D01*
X0312800Y0306437D01*
X0312859Y0306412D01*
X0312915Y0306384D01*
X0312970Y0306352D01*
X0313023Y0306317D01*
X0313073Y0306279D01*
X0313122Y0306238D01*
X0313167Y0306194D01*
X0313210Y0306147D01*
X0313249Y0306098D01*
X0313286Y0306046D01*
X0313319Y0305992D01*
X0313349Y0305936D01*
X0313376Y0305879D01*
X0313399Y0305820D01*
X0313418Y0305759D01*
X0313433Y0305698D01*
X0313445Y0305636D01*
X0313453Y0305573D01*
X0313457Y0305510D01*
X0313457Y0305446D01*
X0313453Y0305383D01*
X0313445Y0305320D01*
X0313433Y0305258D01*
X0313418Y0305197D01*
X0313399Y0305136D01*
X0313376Y0305077D01*
X0313349Y0305020D01*
X0313319Y0304964D01*
X0313286Y0304910D01*
X0313249Y0304858D01*
X0313210Y0304809D01*
X0313167Y0304762D01*
X0313122Y0304718D01*
X0313073Y0304677D01*
X0313023Y0304639D01*
X0312970Y0304604D01*
X0312915Y0304572D01*
X0312859Y0304544D01*
X0312800Y0304519D01*
X0312741Y0304498D01*
X0312680Y0304481D01*
X0312618Y0304468D01*
X0312555Y0304458D01*
X0312492Y0304452D01*
X0312429Y0304450D01*
X0311402Y0304450D01*
X0311402Y0308150D01*
X0316578Y0306505D02*
X0316621Y0306549D01*
X0316662Y0306596D01*
X0316699Y0306645D01*
X0316734Y0306696D01*
X0316765Y0306750D01*
X0316793Y0306805D01*
X0316817Y0306862D01*
X0316838Y0306920D01*
X0316855Y0306980D01*
X0316869Y0307040D01*
X0316878Y0307101D01*
X0316884Y0307163D01*
X0316886Y0307225D01*
X0316577Y0306506D02*
X0314830Y0304450D01*
X0316885Y0304450D01*
X0320177Y0304964D02*
X0320222Y0305060D01*
X0320263Y0305158D01*
X0320301Y0305258D01*
X0320336Y0305358D01*
X0320367Y0305460D01*
X0320395Y0305563D01*
X0320418Y0305666D01*
X0320439Y0305771D01*
X0320455Y0305876D01*
X0320468Y0305981D01*
X0320478Y0306087D01*
X0320483Y0306194D01*
X0320485Y0306300D01*
X0318430Y0306300D02*
X0318432Y0306406D01*
X0318437Y0306513D01*
X0318447Y0306619D01*
X0318460Y0306724D01*
X0318476Y0306829D01*
X0318497Y0306934D01*
X0318520Y0307037D01*
X0318548Y0307140D01*
X0318579Y0307242D01*
X0318614Y0307342D01*
X0318652Y0307442D01*
X0318693Y0307540D01*
X0318738Y0307636D01*
X0319458Y0308150D02*
X0319510Y0308148D01*
X0319563Y0308143D01*
X0319614Y0308134D01*
X0319665Y0308121D01*
X0319715Y0308105D01*
X0319764Y0308086D01*
X0319811Y0308063D01*
X0319857Y0308037D01*
X0319900Y0308008D01*
X0319942Y0307976D01*
X0319981Y0307942D01*
X0320018Y0307904D01*
X0320052Y0307864D01*
X0320084Y0307822D01*
X0320112Y0307778D01*
X0320137Y0307732D01*
X0320159Y0307685D01*
X0320178Y0307636D01*
X0320280Y0307328D02*
X0318635Y0305272D01*
X0319458Y0304450D02*
X0319510Y0304452D01*
X0319563Y0304457D01*
X0319614Y0304466D01*
X0319665Y0304479D01*
X0319715Y0304495D01*
X0319764Y0304514D01*
X0319811Y0304537D01*
X0319857Y0304563D01*
X0319900Y0304592D01*
X0319942Y0304624D01*
X0319981Y0304658D01*
X0320018Y0304696D01*
X0320052Y0304736D01*
X0320084Y0304778D01*
X0320112Y0304822D01*
X0320137Y0304868D01*
X0320159Y0304915D01*
X0320178Y0304964D01*
X0319458Y0304450D02*
X0319406Y0304452D01*
X0319353Y0304457D01*
X0319302Y0304466D01*
X0319251Y0304479D01*
X0319201Y0304495D01*
X0319152Y0304514D01*
X0319105Y0304537D01*
X0319059Y0304563D01*
X0319016Y0304592D01*
X0318974Y0304624D01*
X0318935Y0304658D01*
X0318898Y0304696D01*
X0318864Y0304736D01*
X0318832Y0304778D01*
X0318804Y0304822D01*
X0318779Y0304868D01*
X0318757Y0304915D01*
X0318738Y0304964D01*
X0320485Y0306300D02*
X0320483Y0306406D01*
X0320478Y0306513D01*
X0320468Y0306619D01*
X0320455Y0306724D01*
X0320439Y0306829D01*
X0320418Y0306934D01*
X0320395Y0307037D01*
X0320367Y0307140D01*
X0320336Y0307242D01*
X0320301Y0307342D01*
X0320263Y0307442D01*
X0320222Y0307540D01*
X0320177Y0307636D01*
X0319458Y0308150D02*
X0319406Y0308148D01*
X0319353Y0308143D01*
X0319302Y0308134D01*
X0319251Y0308121D01*
X0319201Y0308105D01*
X0319152Y0308086D01*
X0319105Y0308063D01*
X0319059Y0308037D01*
X0319016Y0308008D01*
X0318974Y0307976D01*
X0318935Y0307942D01*
X0318898Y0307904D01*
X0318864Y0307864D01*
X0318832Y0307822D01*
X0318804Y0307778D01*
X0318779Y0307732D01*
X0318757Y0307685D01*
X0318738Y0307636D01*
X0316885Y0307225D02*
X0316883Y0307283D01*
X0316878Y0307341D01*
X0316869Y0307398D01*
X0316856Y0307455D01*
X0316840Y0307511D01*
X0316820Y0307566D01*
X0316797Y0307619D01*
X0316771Y0307671D01*
X0316741Y0307721D01*
X0316708Y0307769D01*
X0316673Y0307815D01*
X0316634Y0307858D01*
X0316593Y0307899D01*
X0316550Y0307938D01*
X0316504Y0307973D01*
X0316456Y0308006D01*
X0316406Y0308036D01*
X0316354Y0308062D01*
X0316301Y0308085D01*
X0316246Y0308105D01*
X0316190Y0308121D01*
X0316133Y0308134D01*
X0316076Y0308143D01*
X0316018Y0308148D01*
X0315960Y0308150D01*
X0315892Y0308148D01*
X0315824Y0308142D01*
X0315757Y0308133D01*
X0315691Y0308119D01*
X0315625Y0308102D01*
X0315560Y0308081D01*
X0315497Y0308056D01*
X0315435Y0308028D01*
X0315375Y0307996D01*
X0315317Y0307961D01*
X0315261Y0307923D01*
X0315208Y0307881D01*
X0315156Y0307837D01*
X0315108Y0307789D01*
X0315062Y0307739D01*
X0315019Y0307687D01*
X0314979Y0307632D01*
X0314942Y0307575D01*
X0314909Y0307516D01*
X0314879Y0307455D01*
X0314853Y0307392D01*
X0314830Y0307328D01*
X0318430Y0306300D02*
X0318432Y0306194D01*
X0318437Y0306087D01*
X0318447Y0305981D01*
X0318460Y0305876D01*
X0318476Y0305771D01*
X0318497Y0305666D01*
X0318520Y0305563D01*
X0318548Y0305460D01*
X0318579Y0305358D01*
X0318614Y0305258D01*
X0318652Y0305158D01*
X0318693Y0305060D01*
X0318738Y0304964D01*
X0324344Y0306608D02*
X0325474Y0305992D01*
X0325063Y0304450D02*
X0324982Y0304452D01*
X0324902Y0304457D01*
X0324822Y0304467D01*
X0324742Y0304480D01*
X0324663Y0304497D01*
X0324585Y0304517D01*
X0324508Y0304541D01*
X0324432Y0304569D01*
X0324358Y0304600D01*
X0324285Y0304634D01*
X0324214Y0304672D01*
X0324144Y0304713D01*
X0324077Y0304757D01*
X0324011Y0304804D01*
X0323948Y0304855D01*
X0323888Y0304908D01*
X0323830Y0304964D01*
X0325474Y0305991D02*
X0325520Y0305962D01*
X0325563Y0305930D01*
X0325605Y0305896D01*
X0325644Y0305858D01*
X0325681Y0305819D01*
X0325715Y0305777D01*
X0325747Y0305732D01*
X0325775Y0305686D01*
X0325800Y0305638D01*
X0325823Y0305589D01*
X0325841Y0305538D01*
X0325857Y0305486D01*
X0325869Y0305434D01*
X0325878Y0305380D01*
X0325883Y0305326D01*
X0325885Y0305272D01*
X0325883Y0305216D01*
X0325877Y0305160D01*
X0325868Y0305105D01*
X0325855Y0305050D01*
X0325838Y0304997D01*
X0325817Y0304945D01*
X0325793Y0304894D01*
X0325765Y0304845D01*
X0325735Y0304798D01*
X0325701Y0304753D01*
X0325664Y0304711D01*
X0325624Y0304671D01*
X0325582Y0304634D01*
X0325537Y0304600D01*
X0325490Y0304570D01*
X0325441Y0304542D01*
X0325390Y0304518D01*
X0325338Y0304497D01*
X0325285Y0304480D01*
X0325230Y0304467D01*
X0325175Y0304458D01*
X0325119Y0304452D01*
X0325063Y0304450D01*
X0325680Y0307842D02*
X0325618Y0307886D01*
X0325554Y0307927D01*
X0325488Y0307965D01*
X0325419Y0307999D01*
X0325350Y0308031D01*
X0325279Y0308058D01*
X0325206Y0308082D01*
X0325133Y0308103D01*
X0325058Y0308120D01*
X0324983Y0308133D01*
X0324907Y0308142D01*
X0324831Y0308148D01*
X0324755Y0308150D01*
X0324699Y0308148D01*
X0324643Y0308142D01*
X0324588Y0308133D01*
X0324533Y0308120D01*
X0324480Y0308103D01*
X0324428Y0308082D01*
X0324377Y0308058D01*
X0324328Y0308030D01*
X0324281Y0308000D01*
X0324236Y0307966D01*
X0324194Y0307929D01*
X0324154Y0307889D01*
X0324117Y0307847D01*
X0324083Y0307802D01*
X0324053Y0307755D01*
X0324025Y0307706D01*
X0324001Y0307655D01*
X0323980Y0307603D01*
X0323963Y0307550D01*
X0323950Y0307495D01*
X0323941Y0307440D01*
X0323935Y0307384D01*
X0323933Y0307328D01*
X0323935Y0307274D01*
X0323940Y0307220D01*
X0323949Y0307166D01*
X0323961Y0307114D01*
X0323977Y0307062D01*
X0323995Y0307011D01*
X0324018Y0306962D01*
X0324043Y0306914D01*
X0324071Y0306868D01*
X0324103Y0306823D01*
X0324137Y0306781D01*
X0324174Y0306742D01*
X0324213Y0306704D01*
X0324255Y0306670D01*
X0324298Y0306638D01*
X0324344Y0306609D01*
X0327437Y0306506D02*
X0328670Y0306506D01*
X0329081Y0308150D02*
X0327437Y0308150D01*
X0327437Y0304450D01*
X0329081Y0304450D01*
X0330550Y0304450D02*
X0330550Y0308150D01*
X0332605Y0304450D01*
X0332605Y0308150D01*
X0334664Y0306608D02*
X0335794Y0305992D01*
X0335383Y0304450D02*
X0335302Y0304452D01*
X0335222Y0304457D01*
X0335142Y0304467D01*
X0335062Y0304480D01*
X0334983Y0304497D01*
X0334905Y0304517D01*
X0334828Y0304541D01*
X0334752Y0304569D01*
X0334678Y0304600D01*
X0334605Y0304634D01*
X0334534Y0304672D01*
X0334464Y0304713D01*
X0334397Y0304757D01*
X0334331Y0304804D01*
X0334268Y0304855D01*
X0334208Y0304908D01*
X0334150Y0304964D01*
X0335794Y0305991D02*
X0335840Y0305962D01*
X0335883Y0305930D01*
X0335925Y0305896D01*
X0335964Y0305858D01*
X0336001Y0305819D01*
X0336035Y0305777D01*
X0336067Y0305732D01*
X0336095Y0305686D01*
X0336120Y0305638D01*
X0336143Y0305589D01*
X0336161Y0305538D01*
X0336177Y0305486D01*
X0336189Y0305434D01*
X0336198Y0305380D01*
X0336203Y0305326D01*
X0336205Y0305272D01*
X0336203Y0305216D01*
X0336197Y0305160D01*
X0336188Y0305105D01*
X0336175Y0305050D01*
X0336158Y0304997D01*
X0336137Y0304945D01*
X0336113Y0304894D01*
X0336085Y0304845D01*
X0336055Y0304798D01*
X0336021Y0304753D01*
X0335984Y0304711D01*
X0335944Y0304671D01*
X0335902Y0304634D01*
X0335857Y0304600D01*
X0335810Y0304570D01*
X0335761Y0304542D01*
X0335710Y0304518D01*
X0335658Y0304497D01*
X0335605Y0304480D01*
X0335550Y0304467D01*
X0335495Y0304458D01*
X0335439Y0304452D01*
X0335383Y0304450D01*
X0336000Y0307842D02*
X0335938Y0307886D01*
X0335874Y0307927D01*
X0335808Y0307965D01*
X0335739Y0307999D01*
X0335670Y0308031D01*
X0335599Y0308058D01*
X0335526Y0308082D01*
X0335453Y0308103D01*
X0335378Y0308120D01*
X0335303Y0308133D01*
X0335227Y0308142D01*
X0335151Y0308148D01*
X0335075Y0308150D01*
X0335019Y0308148D01*
X0334963Y0308142D01*
X0334908Y0308133D01*
X0334853Y0308120D01*
X0334800Y0308103D01*
X0334748Y0308082D01*
X0334697Y0308058D01*
X0334648Y0308030D01*
X0334601Y0308000D01*
X0334556Y0307966D01*
X0334514Y0307929D01*
X0334474Y0307889D01*
X0334437Y0307847D01*
X0334403Y0307802D01*
X0334373Y0307755D01*
X0334345Y0307706D01*
X0334321Y0307655D01*
X0334300Y0307603D01*
X0334283Y0307550D01*
X0334270Y0307495D01*
X0334261Y0307440D01*
X0334255Y0307384D01*
X0334253Y0307328D01*
X0334255Y0307274D01*
X0334260Y0307220D01*
X0334269Y0307166D01*
X0334281Y0307114D01*
X0334297Y0307062D01*
X0334315Y0307011D01*
X0334338Y0306962D01*
X0334363Y0306914D01*
X0334391Y0306868D01*
X0334423Y0306823D01*
X0334457Y0306781D01*
X0334494Y0306742D01*
X0334533Y0306704D01*
X0334575Y0306670D01*
X0334618Y0306638D01*
X0334664Y0306609D01*
X0337630Y0307122D02*
X0337630Y0305478D01*
X0337632Y0305415D01*
X0337638Y0305352D01*
X0337648Y0305289D01*
X0337661Y0305227D01*
X0337678Y0305166D01*
X0337699Y0305107D01*
X0337724Y0305048D01*
X0337752Y0304992D01*
X0337784Y0304937D01*
X0337819Y0304884D01*
X0337857Y0304834D01*
X0337898Y0304785D01*
X0337942Y0304740D01*
X0337989Y0304697D01*
X0338038Y0304658D01*
X0338090Y0304621D01*
X0338144Y0304588D01*
X0338200Y0304558D01*
X0338257Y0304531D01*
X0338316Y0304508D01*
X0338377Y0304489D01*
X0338438Y0304474D01*
X0338500Y0304462D01*
X0338563Y0304454D01*
X0338626Y0304450D01*
X0338690Y0304450D01*
X0338753Y0304454D01*
X0338816Y0304462D01*
X0338878Y0304474D01*
X0338939Y0304489D01*
X0339000Y0304508D01*
X0339059Y0304531D01*
X0339116Y0304558D01*
X0339172Y0304588D01*
X0339226Y0304621D01*
X0339278Y0304658D01*
X0339327Y0304697D01*
X0339374Y0304740D01*
X0339418Y0304785D01*
X0339459Y0304834D01*
X0339497Y0304884D01*
X0339532Y0304937D01*
X0339564Y0304992D01*
X0339592Y0305048D01*
X0339617Y0305107D01*
X0339638Y0305166D01*
X0339655Y0305227D01*
X0339668Y0305289D01*
X0339678Y0305352D01*
X0339684Y0305415D01*
X0339686Y0305478D01*
X0339685Y0305478D02*
X0339685Y0307122D01*
X0339686Y0307122D02*
X0339684Y0307185D01*
X0339678Y0307248D01*
X0339668Y0307311D01*
X0339655Y0307373D01*
X0339638Y0307434D01*
X0339617Y0307493D01*
X0339592Y0307552D01*
X0339564Y0307608D01*
X0339532Y0307663D01*
X0339497Y0307716D01*
X0339459Y0307766D01*
X0339418Y0307815D01*
X0339374Y0307860D01*
X0339327Y0307903D01*
X0339278Y0307942D01*
X0339226Y0307979D01*
X0339172Y0308012D01*
X0339116Y0308042D01*
X0339059Y0308069D01*
X0339000Y0308092D01*
X0338939Y0308111D01*
X0338878Y0308126D01*
X0338816Y0308138D01*
X0338753Y0308146D01*
X0338690Y0308150D01*
X0338626Y0308150D01*
X0338563Y0308146D01*
X0338500Y0308138D01*
X0338438Y0308126D01*
X0338377Y0308111D01*
X0338316Y0308092D01*
X0338257Y0308069D01*
X0338200Y0308042D01*
X0338144Y0308012D01*
X0338090Y0307979D01*
X0338038Y0307942D01*
X0337989Y0307903D01*
X0337942Y0307860D01*
X0337898Y0307815D01*
X0337857Y0307766D01*
X0337819Y0307716D01*
X0337784Y0307663D01*
X0337752Y0307608D01*
X0337724Y0307552D01*
X0337699Y0307493D01*
X0337678Y0307434D01*
X0337661Y0307373D01*
X0337648Y0307311D01*
X0337638Y0307248D01*
X0337632Y0307185D01*
X0337630Y0307122D01*
X0341372Y0306094D02*
X0342400Y0306094D01*
X0342606Y0306094D02*
X0343428Y0304450D01*
X0341372Y0304450D02*
X0341372Y0308150D01*
X0342400Y0308150D01*
X0342463Y0308148D01*
X0342526Y0308142D01*
X0342589Y0308132D01*
X0342651Y0308119D01*
X0342712Y0308102D01*
X0342771Y0308081D01*
X0342830Y0308056D01*
X0342886Y0308028D01*
X0342941Y0307996D01*
X0342994Y0307961D01*
X0343044Y0307923D01*
X0343093Y0307882D01*
X0343138Y0307838D01*
X0343181Y0307791D01*
X0343220Y0307742D01*
X0343257Y0307690D01*
X0343290Y0307636D01*
X0343320Y0307580D01*
X0343347Y0307523D01*
X0343370Y0307464D01*
X0343389Y0307403D01*
X0343404Y0307342D01*
X0343416Y0307280D01*
X0343424Y0307217D01*
X0343428Y0307154D01*
X0343428Y0307090D01*
X0343424Y0307027D01*
X0343416Y0306964D01*
X0343404Y0306902D01*
X0343389Y0306841D01*
X0343370Y0306780D01*
X0343347Y0306721D01*
X0343320Y0306664D01*
X0343290Y0306608D01*
X0343257Y0306554D01*
X0343220Y0306502D01*
X0343181Y0306453D01*
X0343138Y0306406D01*
X0343093Y0306362D01*
X0343044Y0306321D01*
X0342994Y0306283D01*
X0342941Y0306248D01*
X0342886Y0306216D01*
X0342830Y0306188D01*
X0342771Y0306163D01*
X0342712Y0306142D01*
X0342651Y0306125D01*
X0342589Y0306112D01*
X0342526Y0306102D01*
X0342463Y0306096D01*
X0342400Y0306094D01*
X0332270Y0313756D02*
X0332270Y0315044D01*
X0332271Y0315044D02*
X0332269Y0315099D01*
X0332263Y0315154D01*
X0332254Y0315208D01*
X0332241Y0315261D01*
X0332224Y0315314D01*
X0332204Y0315365D01*
X0332181Y0315415D01*
X0332154Y0315463D01*
X0332123Y0315509D01*
X0332090Y0315553D01*
X0332054Y0315594D01*
X0332015Y0315633D01*
X0331974Y0315669D01*
X0331930Y0315702D01*
X0331884Y0315733D01*
X0331836Y0315760D01*
X0331786Y0315783D01*
X0331735Y0315803D01*
X0331682Y0315820D01*
X0331629Y0315833D01*
X0331575Y0315842D01*
X0331520Y0315848D01*
X0331465Y0315850D01*
X0330659Y0315850D01*
X0330659Y0312950D01*
X0331465Y0312950D01*
X0331520Y0312952D01*
X0331575Y0312958D01*
X0331629Y0312967D01*
X0331682Y0312980D01*
X0331735Y0312997D01*
X0331786Y0313017D01*
X0331836Y0313040D01*
X0331884Y0313067D01*
X0331930Y0313098D01*
X0331974Y0313131D01*
X0332015Y0313167D01*
X0332054Y0313206D01*
X0332090Y0313247D01*
X0332123Y0313291D01*
X0332154Y0313337D01*
X0332181Y0313385D01*
X0332204Y0313435D01*
X0332224Y0313486D01*
X0332241Y0313539D01*
X0332254Y0313592D01*
X0332263Y0313646D01*
X0332269Y0313701D01*
X0332271Y0313756D01*
X0329198Y0313756D02*
X0329198Y0315044D01*
X0329199Y0315044D02*
X0329197Y0315099D01*
X0329191Y0315154D01*
X0329182Y0315208D01*
X0329169Y0315261D01*
X0329152Y0315314D01*
X0329132Y0315365D01*
X0329109Y0315415D01*
X0329082Y0315463D01*
X0329051Y0315509D01*
X0329018Y0315553D01*
X0328982Y0315594D01*
X0328943Y0315633D01*
X0328902Y0315669D01*
X0328858Y0315702D01*
X0328812Y0315733D01*
X0328764Y0315760D01*
X0328714Y0315783D01*
X0328663Y0315803D01*
X0328610Y0315820D01*
X0328557Y0315833D01*
X0328503Y0315842D01*
X0328448Y0315848D01*
X0328393Y0315850D01*
X0327587Y0315850D01*
X0327587Y0312950D01*
X0328393Y0312950D01*
X0328448Y0312952D01*
X0328503Y0312958D01*
X0328557Y0312967D01*
X0328610Y0312980D01*
X0328663Y0312997D01*
X0328714Y0313017D01*
X0328764Y0313040D01*
X0328812Y0313067D01*
X0328858Y0313098D01*
X0328902Y0313131D01*
X0328943Y0313167D01*
X0328982Y0313206D01*
X0329018Y0313247D01*
X0329051Y0313291D01*
X0329082Y0313337D01*
X0329109Y0313385D01*
X0329132Y0313435D01*
X0329152Y0313486D01*
X0329169Y0313539D01*
X0329182Y0313592D01*
X0329191Y0313646D01*
X0329197Y0313701D01*
X0329199Y0313756D01*
X0326383Y0315850D02*
X0325417Y0312950D01*
X0324450Y0315850D01*
X0319220Y0315044D02*
X0319220Y0313756D01*
X0318897Y0313594D02*
X0319542Y0312950D01*
X0319220Y0313756D02*
X0319218Y0313701D01*
X0319212Y0313646D01*
X0319203Y0313592D01*
X0319190Y0313539D01*
X0319173Y0313486D01*
X0319153Y0313435D01*
X0319130Y0313385D01*
X0319103Y0313337D01*
X0319072Y0313291D01*
X0319039Y0313247D01*
X0319003Y0313206D01*
X0318964Y0313167D01*
X0318923Y0313131D01*
X0318879Y0313098D01*
X0318833Y0313067D01*
X0318785Y0313040D01*
X0318735Y0313017D01*
X0318684Y0312997D01*
X0318631Y0312980D01*
X0318578Y0312967D01*
X0318524Y0312958D01*
X0318469Y0312952D01*
X0318414Y0312950D01*
X0318359Y0312952D01*
X0318304Y0312958D01*
X0318250Y0312967D01*
X0318197Y0312980D01*
X0318144Y0312997D01*
X0318093Y0313017D01*
X0318043Y0313040D01*
X0317995Y0313067D01*
X0317949Y0313098D01*
X0317905Y0313131D01*
X0317864Y0313167D01*
X0317825Y0313206D01*
X0317789Y0313247D01*
X0317756Y0313291D01*
X0317725Y0313337D01*
X0317698Y0313385D01*
X0317675Y0313435D01*
X0317655Y0313486D01*
X0317638Y0313539D01*
X0317625Y0313592D01*
X0317616Y0313646D01*
X0317610Y0313701D01*
X0317608Y0313756D01*
X0317609Y0313756D02*
X0317609Y0315044D01*
X0317608Y0315044D02*
X0317610Y0315099D01*
X0317616Y0315154D01*
X0317625Y0315208D01*
X0317638Y0315261D01*
X0317655Y0315314D01*
X0317675Y0315365D01*
X0317698Y0315415D01*
X0317725Y0315463D01*
X0317756Y0315509D01*
X0317789Y0315553D01*
X0317825Y0315594D01*
X0317864Y0315633D01*
X0317905Y0315669D01*
X0317949Y0315702D01*
X0317995Y0315733D01*
X0318043Y0315760D01*
X0318093Y0315783D01*
X0318144Y0315803D01*
X0318197Y0315820D01*
X0318250Y0315833D01*
X0318304Y0315842D01*
X0318359Y0315848D01*
X0318414Y0315850D01*
X0318469Y0315848D01*
X0318524Y0315842D01*
X0318578Y0315833D01*
X0318631Y0315820D01*
X0318684Y0315803D01*
X0318735Y0315783D01*
X0318785Y0315760D01*
X0318833Y0315733D01*
X0318879Y0315702D01*
X0318923Y0315669D01*
X0318964Y0315633D01*
X0319003Y0315594D01*
X0319039Y0315553D01*
X0319072Y0315509D01*
X0319103Y0315463D01*
X0319130Y0315415D01*
X0319153Y0315365D01*
X0319173Y0315314D01*
X0319190Y0315261D01*
X0319203Y0315208D01*
X0319212Y0315154D01*
X0319218Y0315099D01*
X0319220Y0315044D01*
X0316061Y0315044D02*
X0316061Y0313756D01*
X0316062Y0313756D02*
X0316060Y0313701D01*
X0316054Y0313646D01*
X0316045Y0313592D01*
X0316032Y0313539D01*
X0316015Y0313486D01*
X0315995Y0313435D01*
X0315972Y0313385D01*
X0315945Y0313337D01*
X0315914Y0313291D01*
X0315881Y0313247D01*
X0315845Y0313206D01*
X0315806Y0313167D01*
X0315765Y0313131D01*
X0315721Y0313098D01*
X0315675Y0313067D01*
X0315627Y0313040D01*
X0315577Y0313017D01*
X0315526Y0312997D01*
X0315473Y0312980D01*
X0315420Y0312967D01*
X0315366Y0312958D01*
X0315311Y0312952D01*
X0315256Y0312950D01*
X0314450Y0312950D01*
X0314450Y0315850D01*
X0315256Y0315850D01*
X0315311Y0315848D01*
X0315366Y0315842D01*
X0315420Y0315833D01*
X0315473Y0315820D01*
X0315526Y0315803D01*
X0315577Y0315783D01*
X0315627Y0315760D01*
X0315675Y0315733D01*
X0315721Y0315702D01*
X0315765Y0315669D01*
X0315806Y0315633D01*
X0315845Y0315594D01*
X0315881Y0315553D01*
X0315914Y0315509D01*
X0315945Y0315463D01*
X0315972Y0315415D01*
X0315995Y0315365D01*
X0316015Y0315314D01*
X0316032Y0315261D01*
X0316045Y0315208D01*
X0316054Y0315154D01*
X0316060Y0315099D01*
X0316062Y0315044D01*
X0307205Y0315044D02*
X0307205Y0313756D01*
X0307206Y0313756D02*
X0307204Y0313701D01*
X0307198Y0313646D01*
X0307189Y0313592D01*
X0307176Y0313539D01*
X0307159Y0313486D01*
X0307139Y0313435D01*
X0307116Y0313385D01*
X0307089Y0313337D01*
X0307058Y0313291D01*
X0307025Y0313247D01*
X0306989Y0313206D01*
X0306950Y0313167D01*
X0306909Y0313131D01*
X0306865Y0313098D01*
X0306819Y0313067D01*
X0306771Y0313040D01*
X0306721Y0313017D01*
X0306670Y0312997D01*
X0306617Y0312980D01*
X0306564Y0312967D01*
X0306510Y0312958D01*
X0306455Y0312952D01*
X0306400Y0312950D01*
X0305594Y0312950D01*
X0305594Y0315850D01*
X0306400Y0315850D01*
X0306455Y0315848D01*
X0306510Y0315842D01*
X0306564Y0315833D01*
X0306617Y0315820D01*
X0306670Y0315803D01*
X0306721Y0315783D01*
X0306771Y0315760D01*
X0306819Y0315733D01*
X0306865Y0315702D01*
X0306909Y0315669D01*
X0306950Y0315633D01*
X0306989Y0315594D01*
X0307025Y0315553D01*
X0307058Y0315509D01*
X0307089Y0315463D01*
X0307116Y0315415D01*
X0307139Y0315365D01*
X0307159Y0315314D01*
X0307176Y0315261D01*
X0307189Y0315208D01*
X0307198Y0315154D01*
X0307204Y0315099D01*
X0307206Y0315044D01*
X0304133Y0315850D02*
X0304133Y0312950D01*
X0302522Y0315850D01*
X0302522Y0312950D01*
X0301061Y0312950D02*
X0300094Y0312950D01*
X0300046Y0312952D01*
X0299998Y0312957D01*
X0299951Y0312966D01*
X0299904Y0312979D01*
X0299859Y0312995D01*
X0299815Y0313014D01*
X0299772Y0313036D01*
X0299731Y0313062D01*
X0299692Y0313091D01*
X0299656Y0313122D01*
X0299622Y0313156D01*
X0299591Y0313192D01*
X0299562Y0313231D01*
X0299536Y0313272D01*
X0299514Y0313315D01*
X0299495Y0313359D01*
X0299479Y0313404D01*
X0299466Y0313451D01*
X0299457Y0313498D01*
X0299452Y0313546D01*
X0299450Y0313594D01*
X0299450Y0315206D01*
X0299452Y0315257D01*
X0299458Y0315307D01*
X0299468Y0315356D01*
X0299482Y0315405D01*
X0299499Y0315452D01*
X0299520Y0315498D01*
X0299545Y0315542D01*
X0299573Y0315585D01*
X0299604Y0315624D01*
X0299639Y0315661D01*
X0299676Y0315696D01*
X0299715Y0315727D01*
X0299758Y0315755D01*
X0299802Y0315780D01*
X0299848Y0315801D01*
X0299895Y0315818D01*
X0299944Y0315832D01*
X0299993Y0315842D01*
X0300043Y0315848D01*
X0300094Y0315850D01*
X0301061Y0315850D01*
X0301061Y0314561D02*
X0301061Y0312950D01*
X0301061Y0314561D02*
X0300578Y0314561D01*
X0291667Y0348250D02*
X0291667Y0349539D01*
X0292150Y0348894D02*
X0290539Y0348894D01*
X0291183Y0351150D01*
X0288485Y0351150D02*
X0287679Y0351150D01*
X0287679Y0348250D01*
X0287679Y0349539D02*
X0288485Y0349539D01*
X0288646Y0349539D02*
X0289290Y0348250D01*
X0288485Y0349538D02*
X0288540Y0349540D01*
X0288595Y0349546D01*
X0288649Y0349555D01*
X0288702Y0349568D01*
X0288755Y0349585D01*
X0288806Y0349605D01*
X0288856Y0349628D01*
X0288904Y0349655D01*
X0288950Y0349686D01*
X0288994Y0349719D01*
X0289035Y0349755D01*
X0289074Y0349794D01*
X0289110Y0349835D01*
X0289143Y0349879D01*
X0289174Y0349925D01*
X0289201Y0349973D01*
X0289224Y0350023D01*
X0289244Y0350074D01*
X0289261Y0350127D01*
X0289274Y0350180D01*
X0289283Y0350234D01*
X0289289Y0350289D01*
X0289291Y0350344D01*
X0289289Y0350399D01*
X0289283Y0350454D01*
X0289274Y0350508D01*
X0289261Y0350561D01*
X0289244Y0350614D01*
X0289224Y0350665D01*
X0289201Y0350715D01*
X0289174Y0350763D01*
X0289143Y0350809D01*
X0289110Y0350853D01*
X0289074Y0350894D01*
X0289035Y0350933D01*
X0288994Y0350969D01*
X0288950Y0351002D01*
X0288904Y0351033D01*
X0288856Y0351060D01*
X0288806Y0351083D01*
X0288755Y0351103D01*
X0288702Y0351120D01*
X0288649Y0351133D01*
X0288595Y0351142D01*
X0288540Y0351148D01*
X0288485Y0351150D01*
X0371506Y0274534D02*
X0373150Y0275356D01*
X0371506Y0274329D02*
X0371506Y0273301D01*
X0371506Y0274329D02*
X0371504Y0274392D01*
X0371498Y0274455D01*
X0371488Y0274518D01*
X0371475Y0274580D01*
X0371458Y0274641D01*
X0371437Y0274700D01*
X0371412Y0274759D01*
X0371384Y0274815D01*
X0371352Y0274870D01*
X0371317Y0274923D01*
X0371279Y0274973D01*
X0371238Y0275022D01*
X0371194Y0275067D01*
X0371147Y0275110D01*
X0371098Y0275149D01*
X0371046Y0275186D01*
X0370992Y0275219D01*
X0370936Y0275249D01*
X0370879Y0275276D01*
X0370820Y0275299D01*
X0370759Y0275318D01*
X0370698Y0275333D01*
X0370636Y0275345D01*
X0370573Y0275353D01*
X0370510Y0275357D01*
X0370446Y0275357D01*
X0370383Y0275353D01*
X0370320Y0275345D01*
X0370258Y0275333D01*
X0370197Y0275318D01*
X0370136Y0275299D01*
X0370077Y0275276D01*
X0370020Y0275249D01*
X0369964Y0275219D01*
X0369910Y0275186D01*
X0369858Y0275149D01*
X0369809Y0275110D01*
X0369762Y0275067D01*
X0369718Y0275022D01*
X0369677Y0274973D01*
X0369639Y0274923D01*
X0369604Y0274870D01*
X0369572Y0274815D01*
X0369544Y0274759D01*
X0369519Y0274700D01*
X0369498Y0274641D01*
X0369481Y0274580D01*
X0369468Y0274518D01*
X0369458Y0274455D01*
X0369452Y0274392D01*
X0369450Y0274329D01*
X0369450Y0273301D01*
X0373150Y0273301D01*
X0373150Y0271810D02*
X0373150Y0270165D01*
X0369450Y0270165D01*
X0369450Y0271810D01*
X0371094Y0271399D02*
X0371094Y0270165D01*
X0369450Y0268631D02*
X0373150Y0267808D01*
X0370683Y0266986D01*
X0373150Y0266164D01*
X0369450Y0265342D01*
X0370478Y0263934D02*
X0372122Y0263934D01*
X0372185Y0263932D01*
X0372248Y0263926D01*
X0372311Y0263916D01*
X0372373Y0263903D01*
X0372434Y0263886D01*
X0372493Y0263865D01*
X0372552Y0263840D01*
X0372608Y0263812D01*
X0372663Y0263780D01*
X0372716Y0263745D01*
X0372766Y0263707D01*
X0372815Y0263666D01*
X0372860Y0263622D01*
X0372903Y0263575D01*
X0372942Y0263526D01*
X0372979Y0263474D01*
X0373012Y0263420D01*
X0373042Y0263364D01*
X0373069Y0263307D01*
X0373092Y0263248D01*
X0373111Y0263187D01*
X0373126Y0263126D01*
X0373138Y0263064D01*
X0373146Y0263001D01*
X0373150Y0262938D01*
X0373150Y0262874D01*
X0373146Y0262811D01*
X0373138Y0262748D01*
X0373126Y0262686D01*
X0373111Y0262625D01*
X0373092Y0262564D01*
X0373069Y0262505D01*
X0373042Y0262448D01*
X0373012Y0262392D01*
X0372979Y0262338D01*
X0372942Y0262286D01*
X0372903Y0262237D01*
X0372860Y0262190D01*
X0372815Y0262146D01*
X0372766Y0262105D01*
X0372716Y0262067D01*
X0372663Y0262032D01*
X0372608Y0262000D01*
X0372552Y0261972D01*
X0372493Y0261947D01*
X0372434Y0261926D01*
X0372373Y0261909D01*
X0372311Y0261896D01*
X0372248Y0261886D01*
X0372185Y0261880D01*
X0372122Y0261878D01*
X0370478Y0261878D01*
X0370415Y0261880D01*
X0370352Y0261886D01*
X0370289Y0261896D01*
X0370227Y0261909D01*
X0370166Y0261926D01*
X0370107Y0261947D01*
X0370048Y0261972D01*
X0369992Y0262000D01*
X0369937Y0262032D01*
X0369884Y0262067D01*
X0369834Y0262105D01*
X0369785Y0262146D01*
X0369740Y0262190D01*
X0369697Y0262237D01*
X0369658Y0262286D01*
X0369621Y0262338D01*
X0369588Y0262392D01*
X0369558Y0262448D01*
X0369531Y0262505D01*
X0369508Y0262564D01*
X0369489Y0262625D01*
X0369474Y0262686D01*
X0369462Y0262748D01*
X0369454Y0262811D01*
X0369450Y0262874D01*
X0369450Y0262938D01*
X0369454Y0263001D01*
X0369462Y0263064D01*
X0369474Y0263126D01*
X0369489Y0263187D01*
X0369508Y0263248D01*
X0369531Y0263307D01*
X0369558Y0263364D01*
X0369588Y0263420D01*
X0369621Y0263474D01*
X0369658Y0263526D01*
X0369697Y0263575D01*
X0369740Y0263622D01*
X0369785Y0263666D01*
X0369834Y0263707D01*
X0369884Y0263745D01*
X0369937Y0263780D01*
X0369992Y0263812D01*
X0370048Y0263840D01*
X0370107Y0263865D01*
X0370166Y0263886D01*
X0370227Y0263903D01*
X0370289Y0263916D01*
X0370352Y0263926D01*
X0370415Y0263932D01*
X0370478Y0263934D01*
X0371506Y0259478D02*
X0371504Y0259541D01*
X0371498Y0259604D01*
X0371488Y0259667D01*
X0371475Y0259729D01*
X0371458Y0259790D01*
X0371437Y0259849D01*
X0371412Y0259908D01*
X0371384Y0259964D01*
X0371352Y0260019D01*
X0371317Y0260072D01*
X0371279Y0260122D01*
X0371238Y0260171D01*
X0371194Y0260216D01*
X0371147Y0260259D01*
X0371098Y0260298D01*
X0371046Y0260335D01*
X0370992Y0260368D01*
X0370936Y0260398D01*
X0370879Y0260425D01*
X0370820Y0260448D01*
X0370759Y0260467D01*
X0370698Y0260482D01*
X0370636Y0260494D01*
X0370573Y0260502D01*
X0370510Y0260506D01*
X0370446Y0260506D01*
X0370383Y0260502D01*
X0370320Y0260494D01*
X0370258Y0260482D01*
X0370197Y0260467D01*
X0370136Y0260448D01*
X0370077Y0260425D01*
X0370020Y0260398D01*
X0369964Y0260368D01*
X0369910Y0260335D01*
X0369858Y0260298D01*
X0369809Y0260259D01*
X0369762Y0260216D01*
X0369718Y0260171D01*
X0369677Y0260122D01*
X0369639Y0260072D01*
X0369604Y0260019D01*
X0369572Y0259964D01*
X0369544Y0259908D01*
X0369519Y0259849D01*
X0369498Y0259790D01*
X0369481Y0259729D01*
X0369468Y0259667D01*
X0369458Y0259604D01*
X0369452Y0259541D01*
X0369450Y0259478D01*
X0369450Y0258450D01*
X0373150Y0258450D01*
X0371506Y0258450D02*
X0371506Y0259478D01*
X0418450Y0153350D02*
X0418450Y0151256D01*
X0418452Y0151201D01*
X0418458Y0151146D01*
X0418467Y0151092D01*
X0418480Y0151039D01*
X0418497Y0150986D01*
X0418517Y0150935D01*
X0418540Y0150885D01*
X0418567Y0150837D01*
X0418598Y0150791D01*
X0418631Y0150747D01*
X0418667Y0150706D01*
X0418706Y0150667D01*
X0418747Y0150631D01*
X0418791Y0150598D01*
X0418837Y0150567D01*
X0418885Y0150540D01*
X0418935Y0150517D01*
X0418986Y0150497D01*
X0419039Y0150480D01*
X0419092Y0150467D01*
X0419146Y0150458D01*
X0419201Y0150452D01*
X0419256Y0150450D01*
X0419311Y0150452D01*
X0419366Y0150458D01*
X0419420Y0150467D01*
X0419473Y0150480D01*
X0419526Y0150497D01*
X0419577Y0150517D01*
X0419627Y0150540D01*
X0419675Y0150567D01*
X0419721Y0150598D01*
X0419765Y0150631D01*
X0419806Y0150667D01*
X0419845Y0150706D01*
X0419881Y0150747D01*
X0419914Y0150791D01*
X0419945Y0150837D01*
X0419972Y0150885D01*
X0419995Y0150935D01*
X0420015Y0150986D01*
X0420032Y0151039D01*
X0420045Y0151092D01*
X0420054Y0151146D01*
X0420060Y0151201D01*
X0420062Y0151256D01*
X0420061Y0151256D02*
X0420061Y0153350D01*
X0422040Y0153350D02*
X0422040Y0150450D01*
X0422281Y0150773D02*
X0422323Y0150782D01*
X0422364Y0150796D01*
X0422404Y0150813D01*
X0422442Y0150833D01*
X0422478Y0150857D01*
X0422512Y0150884D01*
X0422543Y0150914D01*
X0422571Y0150946D01*
X0422596Y0150981D01*
X0422619Y0151018D01*
X0422637Y0151057D01*
X0422652Y0151097D01*
X0422664Y0151139D01*
X0422672Y0151181D01*
X0422676Y0151224D01*
X0422676Y0151267D01*
X0422672Y0151310D01*
X0422664Y0151353D01*
X0422653Y0151394D01*
X0422637Y0151435D01*
X0422619Y0151473D01*
X0422597Y0151510D01*
X0422571Y0151545D01*
X0422543Y0151578D01*
X0422512Y0151608D01*
X0422478Y0151635D01*
X0422442Y0151658D01*
X0422040Y0151900D01*
X0421637Y0152142D01*
X0421395Y0150934D02*
X0421457Y0150899D01*
X0421521Y0150868D01*
X0421586Y0150840D01*
X0421652Y0150816D01*
X0421720Y0150796D01*
X0421789Y0150779D01*
X0421859Y0150767D01*
X0421929Y0150758D01*
X0421999Y0150753D01*
X0422070Y0150752D01*
X0422141Y0150755D01*
X0422211Y0150762D01*
X0422281Y0150773D01*
X0422683Y0152866D02*
X0422622Y0152901D01*
X0422558Y0152932D01*
X0422493Y0152960D01*
X0422427Y0152984D01*
X0422359Y0153004D01*
X0422290Y0153021D01*
X0422220Y0153033D01*
X0422150Y0153042D01*
X0422080Y0153047D01*
X0422009Y0153048D01*
X0421938Y0153045D01*
X0421868Y0153038D01*
X0421798Y0153027D01*
X0421756Y0153018D01*
X0421715Y0153004D01*
X0421675Y0152987D01*
X0421637Y0152967D01*
X0421601Y0152943D01*
X0421567Y0152916D01*
X0421536Y0152886D01*
X0421508Y0152854D01*
X0421483Y0152819D01*
X0421460Y0152782D01*
X0421442Y0152743D01*
X0421427Y0152703D01*
X0421415Y0152661D01*
X0421407Y0152619D01*
X0421403Y0152576D01*
X0421403Y0152533D01*
X0421407Y0152490D01*
X0421415Y0152447D01*
X0421426Y0152406D01*
X0421442Y0152365D01*
X0421460Y0152327D01*
X0421482Y0152290D01*
X0421508Y0152255D01*
X0421536Y0152222D01*
X0421567Y0152192D01*
X0421601Y0152165D01*
X0421637Y0152142D01*
X0423922Y0153350D02*
X0424889Y0153350D01*
X0424938Y0153348D01*
X0424987Y0153342D01*
X0425036Y0153333D01*
X0425083Y0153320D01*
X0425130Y0153303D01*
X0425175Y0153283D01*
X0425218Y0153260D01*
X0425260Y0153233D01*
X0425299Y0153203D01*
X0425336Y0153170D01*
X0425370Y0153134D01*
X0425401Y0153096D01*
X0425430Y0153056D01*
X0425455Y0153014D01*
X0425477Y0152969D01*
X0425495Y0152924D01*
X0425510Y0152877D01*
X0425521Y0152829D01*
X0425529Y0152780D01*
X0425533Y0152731D01*
X0425533Y0152681D01*
X0425529Y0152632D01*
X0425521Y0152583D01*
X0425510Y0152535D01*
X0425495Y0152488D01*
X0425477Y0152443D01*
X0425455Y0152398D01*
X0425430Y0152356D01*
X0425401Y0152316D01*
X0425370Y0152278D01*
X0425336Y0152242D01*
X0425299Y0152209D01*
X0425260Y0152179D01*
X0425218Y0152152D01*
X0425175Y0152129D01*
X0425130Y0152109D01*
X0425083Y0152092D01*
X0425036Y0152079D01*
X0424987Y0152070D01*
X0424938Y0152064D01*
X0424889Y0152062D01*
X0424889Y0152061D02*
X0424244Y0152061D01*
X0424728Y0152062D02*
X0424783Y0152060D01*
X0424838Y0152054D01*
X0424892Y0152045D01*
X0424945Y0152032D01*
X0424998Y0152015D01*
X0425049Y0151995D01*
X0425099Y0151972D01*
X0425147Y0151945D01*
X0425193Y0151914D01*
X0425237Y0151881D01*
X0425278Y0151845D01*
X0425317Y0151806D01*
X0425353Y0151765D01*
X0425386Y0151721D01*
X0425417Y0151675D01*
X0425444Y0151627D01*
X0425467Y0151577D01*
X0425487Y0151526D01*
X0425504Y0151473D01*
X0425517Y0151420D01*
X0425526Y0151366D01*
X0425532Y0151311D01*
X0425534Y0151256D01*
X0425532Y0151201D01*
X0425526Y0151146D01*
X0425517Y0151092D01*
X0425504Y0151039D01*
X0425487Y0150986D01*
X0425467Y0150935D01*
X0425444Y0150885D01*
X0425417Y0150837D01*
X0425386Y0150791D01*
X0425353Y0150747D01*
X0425317Y0150706D01*
X0425278Y0150667D01*
X0425237Y0150631D01*
X0425193Y0150598D01*
X0425147Y0150567D01*
X0425099Y0150540D01*
X0425049Y0150517D01*
X0424998Y0150497D01*
X0424945Y0150480D01*
X0424892Y0150467D01*
X0424838Y0150458D01*
X0424783Y0150452D01*
X0424728Y0150450D01*
X0423922Y0150450D01*
X0462450Y0135150D02*
X0464506Y0135150D01*
X0463478Y0135150D02*
X0463478Y0131450D01*
X0465707Y0131450D02*
X0466529Y0131450D01*
X0466118Y0131450D02*
X0466118Y0135150D01*
X0465707Y0135150D02*
X0466529Y0135150D01*
X0468142Y0135150D02*
X0469169Y0135150D01*
X0468142Y0135150D02*
X0468142Y0131450D01*
X0468142Y0133094D02*
X0469169Y0133094D01*
X0469232Y0133096D01*
X0469295Y0133102D01*
X0469358Y0133112D01*
X0469420Y0133125D01*
X0469481Y0133142D01*
X0469540Y0133163D01*
X0469599Y0133188D01*
X0469655Y0133216D01*
X0469710Y0133248D01*
X0469763Y0133283D01*
X0469813Y0133321D01*
X0469862Y0133362D01*
X0469907Y0133406D01*
X0469950Y0133453D01*
X0469989Y0133502D01*
X0470026Y0133554D01*
X0470059Y0133608D01*
X0470089Y0133664D01*
X0470116Y0133721D01*
X0470139Y0133780D01*
X0470158Y0133841D01*
X0470173Y0133902D01*
X0470185Y0133964D01*
X0470193Y0134027D01*
X0470197Y0134090D01*
X0470197Y0134154D01*
X0470193Y0134217D01*
X0470185Y0134280D01*
X0470173Y0134342D01*
X0470158Y0134403D01*
X0470139Y0134464D01*
X0470116Y0134523D01*
X0470089Y0134580D01*
X0470059Y0134636D01*
X0470026Y0134690D01*
X0469989Y0134742D01*
X0469950Y0134791D01*
X0469907Y0134838D01*
X0469862Y0134882D01*
X0469813Y0134923D01*
X0469763Y0134961D01*
X0469710Y0134996D01*
X0469655Y0135028D01*
X0469599Y0135056D01*
X0469540Y0135081D01*
X0469481Y0135102D01*
X0469420Y0135119D01*
X0469358Y0135132D01*
X0469295Y0135142D01*
X0469232Y0135148D01*
X0469169Y0135150D01*
X0471570Y0135150D02*
X0472803Y0135150D01*
X0472859Y0135148D01*
X0472915Y0135142D01*
X0472970Y0135133D01*
X0473025Y0135120D01*
X0473078Y0135103D01*
X0473130Y0135082D01*
X0473181Y0135058D01*
X0473230Y0135030D01*
X0473277Y0135000D01*
X0473322Y0134966D01*
X0473364Y0134929D01*
X0473404Y0134889D01*
X0473441Y0134847D01*
X0473475Y0134802D01*
X0473505Y0134755D01*
X0473533Y0134706D01*
X0473557Y0134655D01*
X0473578Y0134603D01*
X0473595Y0134550D01*
X0473608Y0134495D01*
X0473617Y0134440D01*
X0473623Y0134384D01*
X0473625Y0134328D01*
X0473623Y0134272D01*
X0473617Y0134216D01*
X0473608Y0134161D01*
X0473595Y0134106D01*
X0473578Y0134053D01*
X0473557Y0134001D01*
X0473533Y0133950D01*
X0473505Y0133901D01*
X0473475Y0133854D01*
X0473441Y0133809D01*
X0473404Y0133767D01*
X0473364Y0133727D01*
X0473322Y0133690D01*
X0473277Y0133656D01*
X0473230Y0133626D01*
X0473181Y0133598D01*
X0473130Y0133574D01*
X0473078Y0133553D01*
X0473025Y0133536D01*
X0472970Y0133523D01*
X0472915Y0133514D01*
X0472859Y0133508D01*
X0472803Y0133506D01*
X0471981Y0133506D01*
X0472598Y0133506D02*
X0472661Y0133504D01*
X0472724Y0133498D01*
X0472787Y0133488D01*
X0472849Y0133475D01*
X0472910Y0133458D01*
X0472969Y0133437D01*
X0473028Y0133412D01*
X0473084Y0133384D01*
X0473139Y0133352D01*
X0473192Y0133317D01*
X0473242Y0133279D01*
X0473291Y0133238D01*
X0473336Y0133194D01*
X0473379Y0133147D01*
X0473418Y0133098D01*
X0473455Y0133046D01*
X0473488Y0132992D01*
X0473518Y0132936D01*
X0473545Y0132879D01*
X0473568Y0132820D01*
X0473587Y0132759D01*
X0473602Y0132698D01*
X0473614Y0132636D01*
X0473622Y0132573D01*
X0473626Y0132510D01*
X0473626Y0132446D01*
X0473622Y0132383D01*
X0473614Y0132320D01*
X0473602Y0132258D01*
X0473587Y0132197D01*
X0473568Y0132136D01*
X0473545Y0132077D01*
X0473518Y0132020D01*
X0473488Y0131964D01*
X0473455Y0131910D01*
X0473418Y0131858D01*
X0473379Y0131809D01*
X0473336Y0131762D01*
X0473291Y0131718D01*
X0473242Y0131677D01*
X0473192Y0131639D01*
X0473139Y0131604D01*
X0473084Y0131572D01*
X0473028Y0131544D01*
X0472969Y0131519D01*
X0472910Y0131498D01*
X0472849Y0131481D01*
X0472787Y0131468D01*
X0472724Y0131458D01*
X0472661Y0131452D01*
X0472598Y0131450D01*
X0471570Y0131450D01*
X0475170Y0131450D02*
X0477226Y0131450D01*
X0478760Y0132272D02*
X0478760Y0134328D01*
X0478762Y0134384D01*
X0478768Y0134440D01*
X0478777Y0134495D01*
X0478790Y0134550D01*
X0478807Y0134603D01*
X0478828Y0134655D01*
X0478852Y0134706D01*
X0478880Y0134755D01*
X0478910Y0134802D01*
X0478944Y0134847D01*
X0478981Y0134889D01*
X0479021Y0134929D01*
X0479063Y0134966D01*
X0479108Y0135000D01*
X0479155Y0135030D01*
X0479204Y0135058D01*
X0479255Y0135082D01*
X0479307Y0135103D01*
X0479360Y0135120D01*
X0479415Y0135133D01*
X0479470Y0135142D01*
X0479526Y0135148D01*
X0479582Y0135150D01*
X0480404Y0135150D01*
X0478760Y0132272D02*
X0478762Y0132216D01*
X0478768Y0132160D01*
X0478777Y0132105D01*
X0478790Y0132050D01*
X0478807Y0131997D01*
X0478828Y0131945D01*
X0478852Y0131894D01*
X0478880Y0131845D01*
X0478910Y0131798D01*
X0478944Y0131753D01*
X0478981Y0131711D01*
X0479021Y0131671D01*
X0479063Y0131634D01*
X0479108Y0131600D01*
X0479155Y0131570D01*
X0479204Y0131542D01*
X0479255Y0131518D01*
X0479307Y0131497D01*
X0479360Y0131480D01*
X0479415Y0131467D01*
X0479470Y0131458D01*
X0479526Y0131452D01*
X0479582Y0131450D01*
X0480404Y0131450D01*
X0481615Y0131039D02*
X0483260Y0131039D01*
X0484822Y0131450D02*
X0484822Y0135150D01*
X0485849Y0135150D01*
X0485912Y0135148D01*
X0485975Y0135142D01*
X0486038Y0135132D01*
X0486100Y0135119D01*
X0486161Y0135102D01*
X0486220Y0135081D01*
X0486279Y0135056D01*
X0486335Y0135028D01*
X0486390Y0134996D01*
X0486443Y0134961D01*
X0486493Y0134923D01*
X0486542Y0134882D01*
X0486587Y0134838D01*
X0486630Y0134791D01*
X0486669Y0134742D01*
X0486706Y0134690D01*
X0486739Y0134636D01*
X0486769Y0134580D01*
X0486796Y0134523D01*
X0486819Y0134464D01*
X0486838Y0134403D01*
X0486853Y0134342D01*
X0486865Y0134280D01*
X0486873Y0134217D01*
X0486877Y0134154D01*
X0486877Y0134090D01*
X0486873Y0134027D01*
X0486865Y0133964D01*
X0486853Y0133902D01*
X0486838Y0133841D01*
X0486819Y0133780D01*
X0486796Y0133721D01*
X0486769Y0133664D01*
X0486739Y0133608D01*
X0486706Y0133554D01*
X0486669Y0133502D01*
X0486630Y0133453D01*
X0486587Y0133406D01*
X0486542Y0133362D01*
X0486493Y0133321D01*
X0486443Y0133283D01*
X0486390Y0133248D01*
X0486335Y0133216D01*
X0486279Y0133188D01*
X0486220Y0133163D01*
X0486161Y0133142D01*
X0486100Y0133125D01*
X0486038Y0133112D01*
X0485975Y0133102D01*
X0485912Y0133096D01*
X0485849Y0133094D01*
X0484822Y0133094D01*
X0488215Y0133094D02*
X0488215Y0132272D01*
X0488216Y0132272D02*
X0488218Y0132216D01*
X0488224Y0132160D01*
X0488233Y0132105D01*
X0488246Y0132050D01*
X0488263Y0131997D01*
X0488284Y0131945D01*
X0488308Y0131894D01*
X0488336Y0131845D01*
X0488366Y0131798D01*
X0488400Y0131753D01*
X0488437Y0131711D01*
X0488477Y0131671D01*
X0488519Y0131634D01*
X0488564Y0131600D01*
X0488611Y0131570D01*
X0488660Y0131542D01*
X0488711Y0131518D01*
X0488763Y0131497D01*
X0488816Y0131480D01*
X0488871Y0131467D01*
X0488926Y0131458D01*
X0488982Y0131452D01*
X0489038Y0131450D01*
X0489094Y0131452D01*
X0489150Y0131458D01*
X0489205Y0131467D01*
X0489260Y0131480D01*
X0489313Y0131497D01*
X0489365Y0131518D01*
X0489416Y0131542D01*
X0489465Y0131570D01*
X0489512Y0131600D01*
X0489557Y0131634D01*
X0489599Y0131671D01*
X0489639Y0131711D01*
X0489676Y0131753D01*
X0489710Y0131798D01*
X0489740Y0131845D01*
X0489768Y0131894D01*
X0489792Y0131945D01*
X0489813Y0131997D01*
X0489830Y0132050D01*
X0489843Y0132105D01*
X0489852Y0132160D01*
X0489858Y0132216D01*
X0489860Y0132272D01*
X0489860Y0133094D01*
X0489858Y0133150D01*
X0489852Y0133206D01*
X0489843Y0133261D01*
X0489830Y0133316D01*
X0489813Y0133369D01*
X0489792Y0133421D01*
X0489768Y0133472D01*
X0489740Y0133521D01*
X0489710Y0133568D01*
X0489676Y0133613D01*
X0489639Y0133655D01*
X0489599Y0133695D01*
X0489557Y0133732D01*
X0489512Y0133766D01*
X0489465Y0133796D01*
X0489416Y0133824D01*
X0489365Y0133848D01*
X0489313Y0133869D01*
X0489260Y0133886D01*
X0489205Y0133899D01*
X0489150Y0133908D01*
X0489094Y0133914D01*
X0489038Y0133916D01*
X0488982Y0133914D01*
X0488926Y0133908D01*
X0488871Y0133899D01*
X0488816Y0133886D01*
X0488763Y0133869D01*
X0488711Y0133848D01*
X0488660Y0133824D01*
X0488611Y0133796D01*
X0488564Y0133766D01*
X0488519Y0133732D01*
X0488477Y0133695D01*
X0488437Y0133655D01*
X0488400Y0133613D01*
X0488366Y0133568D01*
X0488336Y0133521D01*
X0488308Y0133472D01*
X0488284Y0133421D01*
X0488263Y0133369D01*
X0488246Y0133316D01*
X0488233Y0133261D01*
X0488224Y0133206D01*
X0488218Y0133150D01*
X0488216Y0133094D01*
X0491033Y0133917D02*
X0492266Y0133917D01*
X0491444Y0135150D02*
X0491444Y0132067D01*
X0491446Y0132019D01*
X0491452Y0131970D01*
X0491461Y0131923D01*
X0491474Y0131876D01*
X0491491Y0131831D01*
X0491511Y0131787D01*
X0491535Y0131745D01*
X0491562Y0131704D01*
X0491592Y0131666D01*
X0491625Y0131631D01*
X0491660Y0131598D01*
X0491698Y0131568D01*
X0491739Y0131541D01*
X0491781Y0131517D01*
X0491825Y0131497D01*
X0491870Y0131480D01*
X0491917Y0131467D01*
X0491964Y0131458D01*
X0492013Y0131452D01*
X0492061Y0131450D01*
X0492266Y0131450D01*
X0493615Y0132067D02*
X0493615Y0133094D01*
X0493615Y0132683D02*
X0495260Y0132683D01*
X0495260Y0133094D01*
X0495258Y0133150D01*
X0495252Y0133206D01*
X0495243Y0133261D01*
X0495230Y0133316D01*
X0495213Y0133369D01*
X0495192Y0133421D01*
X0495168Y0133472D01*
X0495140Y0133521D01*
X0495110Y0133568D01*
X0495076Y0133613D01*
X0495039Y0133655D01*
X0494999Y0133695D01*
X0494957Y0133732D01*
X0494912Y0133766D01*
X0494865Y0133796D01*
X0494816Y0133824D01*
X0494765Y0133848D01*
X0494713Y0133869D01*
X0494660Y0133886D01*
X0494605Y0133899D01*
X0494550Y0133908D01*
X0494494Y0133914D01*
X0494438Y0133916D01*
X0494382Y0133914D01*
X0494326Y0133908D01*
X0494271Y0133899D01*
X0494216Y0133886D01*
X0494163Y0133869D01*
X0494111Y0133848D01*
X0494060Y0133824D01*
X0494011Y0133796D01*
X0493964Y0133766D01*
X0493919Y0133732D01*
X0493877Y0133695D01*
X0493837Y0133655D01*
X0493800Y0133613D01*
X0493766Y0133568D01*
X0493736Y0133521D01*
X0493708Y0133472D01*
X0493684Y0133421D01*
X0493663Y0133369D01*
X0493646Y0133316D01*
X0493633Y0133261D01*
X0493624Y0133206D01*
X0493618Y0133150D01*
X0493616Y0133094D01*
X0493615Y0132067D02*
X0493617Y0132019D01*
X0493623Y0131970D01*
X0493632Y0131923D01*
X0493645Y0131876D01*
X0493662Y0131831D01*
X0493682Y0131787D01*
X0493706Y0131745D01*
X0493733Y0131704D01*
X0493763Y0131666D01*
X0493796Y0131631D01*
X0493831Y0131598D01*
X0493869Y0131568D01*
X0493910Y0131541D01*
X0493952Y0131517D01*
X0493996Y0131497D01*
X0494041Y0131480D01*
X0494088Y0131467D01*
X0494135Y0131458D01*
X0494184Y0131452D01*
X0494232Y0131450D01*
X0495260Y0131450D01*
X0496855Y0131450D02*
X0496855Y0133917D01*
X0497883Y0133917D01*
X0497931Y0133915D01*
X0497980Y0133909D01*
X0498027Y0133900D01*
X0498074Y0133887D01*
X0498119Y0133870D01*
X0498163Y0133850D01*
X0498205Y0133826D01*
X0498246Y0133799D01*
X0498284Y0133769D01*
X0498319Y0133736D01*
X0498352Y0133701D01*
X0498382Y0133663D01*
X0498409Y0133622D01*
X0498433Y0133580D01*
X0498453Y0133536D01*
X0498470Y0133491D01*
X0498483Y0133444D01*
X0498492Y0133397D01*
X0498498Y0133348D01*
X0498500Y0133300D01*
X0498500Y0131450D01*
X0500204Y0132067D02*
X0500204Y0135150D01*
X0499793Y0133917D02*
X0501026Y0133917D01*
X0502358Y0133917D02*
X0502358Y0131450D01*
X0501026Y0131450D02*
X0500820Y0131450D01*
X0500772Y0131452D01*
X0500723Y0131458D01*
X0500676Y0131467D01*
X0500629Y0131480D01*
X0500584Y0131497D01*
X0500540Y0131517D01*
X0500498Y0131541D01*
X0500457Y0131568D01*
X0500419Y0131598D01*
X0500384Y0131631D01*
X0500351Y0131666D01*
X0500321Y0131704D01*
X0500294Y0131745D01*
X0500270Y0131787D01*
X0500250Y0131831D01*
X0500233Y0131876D01*
X0500220Y0131923D01*
X0500211Y0131970D01*
X0500205Y0132019D01*
X0500203Y0132067D01*
X0502255Y0134944D02*
X0502460Y0134944D01*
X0502460Y0135150D01*
X0502255Y0135150D01*
X0502255Y0134944D01*
X0503815Y0133094D02*
X0503815Y0132272D01*
X0503816Y0132272D02*
X0503818Y0132216D01*
X0503824Y0132160D01*
X0503833Y0132105D01*
X0503846Y0132050D01*
X0503863Y0131997D01*
X0503884Y0131945D01*
X0503908Y0131894D01*
X0503936Y0131845D01*
X0503966Y0131798D01*
X0504000Y0131753D01*
X0504037Y0131711D01*
X0504077Y0131671D01*
X0504119Y0131634D01*
X0504164Y0131600D01*
X0504211Y0131570D01*
X0504260Y0131542D01*
X0504311Y0131518D01*
X0504363Y0131497D01*
X0504416Y0131480D01*
X0504471Y0131467D01*
X0504526Y0131458D01*
X0504582Y0131452D01*
X0504638Y0131450D01*
X0504694Y0131452D01*
X0504750Y0131458D01*
X0504805Y0131467D01*
X0504860Y0131480D01*
X0504913Y0131497D01*
X0504965Y0131518D01*
X0505016Y0131542D01*
X0505065Y0131570D01*
X0505112Y0131600D01*
X0505157Y0131634D01*
X0505199Y0131671D01*
X0505239Y0131711D01*
X0505276Y0131753D01*
X0505310Y0131798D01*
X0505340Y0131845D01*
X0505368Y0131894D01*
X0505392Y0131945D01*
X0505413Y0131997D01*
X0505430Y0132050D01*
X0505443Y0132105D01*
X0505452Y0132160D01*
X0505458Y0132216D01*
X0505460Y0132272D01*
X0505460Y0133094D01*
X0505458Y0133150D01*
X0505452Y0133206D01*
X0505443Y0133261D01*
X0505430Y0133316D01*
X0505413Y0133369D01*
X0505392Y0133421D01*
X0505368Y0133472D01*
X0505340Y0133521D01*
X0505310Y0133568D01*
X0505276Y0133613D01*
X0505239Y0133655D01*
X0505199Y0133695D01*
X0505157Y0133732D01*
X0505112Y0133766D01*
X0505065Y0133796D01*
X0505016Y0133824D01*
X0504965Y0133848D01*
X0504913Y0133869D01*
X0504860Y0133886D01*
X0504805Y0133899D01*
X0504750Y0133908D01*
X0504694Y0133914D01*
X0504638Y0133916D01*
X0504582Y0133914D01*
X0504526Y0133908D01*
X0504471Y0133899D01*
X0504416Y0133886D01*
X0504363Y0133869D01*
X0504311Y0133848D01*
X0504260Y0133824D01*
X0504211Y0133796D01*
X0504164Y0133766D01*
X0504119Y0133732D01*
X0504077Y0133695D01*
X0504037Y0133655D01*
X0504000Y0133613D01*
X0503966Y0133568D01*
X0503936Y0133521D01*
X0503908Y0133472D01*
X0503884Y0133421D01*
X0503863Y0133369D01*
X0503846Y0133316D01*
X0503833Y0133261D01*
X0503824Y0133206D01*
X0503818Y0133150D01*
X0503816Y0133094D01*
X0507124Y0133917D02*
X0508974Y0133917D01*
X0508358Y0133917D02*
X0508358Y0131450D01*
X0509591Y0131450D02*
X0509591Y0133300D01*
X0509589Y0133348D01*
X0509583Y0133397D01*
X0509574Y0133444D01*
X0509561Y0133491D01*
X0509544Y0133536D01*
X0509524Y0133580D01*
X0509500Y0133622D01*
X0509473Y0133663D01*
X0509443Y0133701D01*
X0509410Y0133736D01*
X0509375Y0133769D01*
X0509337Y0133799D01*
X0509296Y0133826D01*
X0509254Y0133850D01*
X0509210Y0133870D01*
X0509165Y0133887D01*
X0509118Y0133900D01*
X0509071Y0133909D01*
X0509022Y0133915D01*
X0508974Y0133917D01*
X0507124Y0133917D02*
X0507124Y0131450D01*
X0511255Y0132067D02*
X0511255Y0133094D01*
X0511255Y0132683D02*
X0512900Y0132683D01*
X0512900Y0133094D01*
X0512898Y0133150D01*
X0512892Y0133206D01*
X0512883Y0133261D01*
X0512870Y0133316D01*
X0512853Y0133369D01*
X0512832Y0133421D01*
X0512808Y0133472D01*
X0512780Y0133521D01*
X0512750Y0133568D01*
X0512716Y0133613D01*
X0512679Y0133655D01*
X0512639Y0133695D01*
X0512597Y0133732D01*
X0512552Y0133766D01*
X0512505Y0133796D01*
X0512456Y0133824D01*
X0512405Y0133848D01*
X0512353Y0133869D01*
X0512300Y0133886D01*
X0512245Y0133899D01*
X0512190Y0133908D01*
X0512134Y0133914D01*
X0512078Y0133916D01*
X0512022Y0133914D01*
X0511966Y0133908D01*
X0511911Y0133899D01*
X0511856Y0133886D01*
X0511803Y0133869D01*
X0511751Y0133848D01*
X0511700Y0133824D01*
X0511651Y0133796D01*
X0511604Y0133766D01*
X0511559Y0133732D01*
X0511517Y0133695D01*
X0511477Y0133655D01*
X0511440Y0133613D01*
X0511406Y0133568D01*
X0511376Y0133521D01*
X0511348Y0133472D01*
X0511324Y0133421D01*
X0511303Y0133369D01*
X0511286Y0133316D01*
X0511273Y0133261D01*
X0511264Y0133206D01*
X0511258Y0133150D01*
X0511256Y0133094D01*
X0511255Y0132067D02*
X0511257Y0132019D01*
X0511263Y0131970D01*
X0511272Y0131923D01*
X0511285Y0131876D01*
X0511302Y0131831D01*
X0511322Y0131787D01*
X0511346Y0131745D01*
X0511373Y0131704D01*
X0511403Y0131666D01*
X0511436Y0131631D01*
X0511471Y0131598D01*
X0511509Y0131568D01*
X0511550Y0131541D01*
X0511592Y0131517D01*
X0511636Y0131497D01*
X0511681Y0131480D01*
X0511728Y0131467D01*
X0511775Y0131458D01*
X0511824Y0131452D01*
X0511872Y0131450D01*
X0512900Y0131450D01*
X0514484Y0132067D02*
X0514484Y0135150D01*
X0514073Y0133917D02*
X0515306Y0133917D01*
X0516655Y0133094D02*
X0516655Y0132067D01*
X0516655Y0132683D02*
X0518300Y0132683D01*
X0518300Y0133094D01*
X0518299Y0133094D02*
X0518297Y0133150D01*
X0518291Y0133206D01*
X0518282Y0133261D01*
X0518269Y0133316D01*
X0518252Y0133369D01*
X0518231Y0133421D01*
X0518207Y0133472D01*
X0518179Y0133521D01*
X0518149Y0133568D01*
X0518115Y0133613D01*
X0518078Y0133655D01*
X0518038Y0133695D01*
X0517996Y0133732D01*
X0517951Y0133766D01*
X0517904Y0133796D01*
X0517855Y0133824D01*
X0517804Y0133848D01*
X0517752Y0133869D01*
X0517699Y0133886D01*
X0517644Y0133899D01*
X0517589Y0133908D01*
X0517533Y0133914D01*
X0517477Y0133916D01*
X0517421Y0133914D01*
X0517365Y0133908D01*
X0517310Y0133899D01*
X0517255Y0133886D01*
X0517202Y0133869D01*
X0517150Y0133848D01*
X0517099Y0133824D01*
X0517050Y0133796D01*
X0517003Y0133766D01*
X0516958Y0133732D01*
X0516916Y0133695D01*
X0516876Y0133655D01*
X0516839Y0133613D01*
X0516805Y0133568D01*
X0516775Y0133521D01*
X0516747Y0133472D01*
X0516723Y0133421D01*
X0516702Y0133369D01*
X0516685Y0133316D01*
X0516672Y0133261D01*
X0516663Y0133206D01*
X0516657Y0133150D01*
X0516655Y0133094D01*
X0516655Y0132067D02*
X0516657Y0132019D01*
X0516663Y0131970D01*
X0516672Y0131923D01*
X0516685Y0131876D01*
X0516702Y0131831D01*
X0516722Y0131787D01*
X0516746Y0131745D01*
X0516773Y0131704D01*
X0516803Y0131666D01*
X0516836Y0131631D01*
X0516871Y0131598D01*
X0516909Y0131568D01*
X0516950Y0131541D01*
X0516992Y0131517D01*
X0517036Y0131497D01*
X0517081Y0131480D01*
X0517128Y0131467D01*
X0517175Y0131458D01*
X0517224Y0131452D01*
X0517272Y0131450D01*
X0518300Y0131450D01*
X0519916Y0131450D02*
X0519916Y0133917D01*
X0521149Y0133917D01*
X0521149Y0133506D01*
X0515306Y0131450D02*
X0515100Y0131450D01*
X0515052Y0131452D01*
X0515003Y0131458D01*
X0514956Y0131467D01*
X0514909Y0131480D01*
X0514864Y0131497D01*
X0514820Y0131517D01*
X0514778Y0131541D01*
X0514737Y0131568D01*
X0514699Y0131598D01*
X0514664Y0131631D01*
X0514631Y0131666D01*
X0514601Y0131704D01*
X0514574Y0131745D01*
X0514550Y0131787D01*
X0514530Y0131831D01*
X0514513Y0131876D01*
X0514500Y0131923D01*
X0514491Y0131970D01*
X0514485Y0132019D01*
X0514483Y0132067D01*
X0476917Y0133506D02*
X0475170Y0131450D01*
X0475171Y0134328D02*
X0475194Y0134392D01*
X0475220Y0134455D01*
X0475250Y0134516D01*
X0475283Y0134575D01*
X0475320Y0134632D01*
X0475360Y0134687D01*
X0475403Y0134739D01*
X0475449Y0134789D01*
X0475497Y0134837D01*
X0475549Y0134881D01*
X0475602Y0134923D01*
X0475658Y0134961D01*
X0475716Y0134996D01*
X0475776Y0135028D01*
X0475838Y0135056D01*
X0475901Y0135081D01*
X0475966Y0135102D01*
X0476032Y0135119D01*
X0476098Y0135133D01*
X0476165Y0135142D01*
X0476233Y0135148D01*
X0476301Y0135150D01*
X0476359Y0135148D01*
X0476417Y0135143D01*
X0476474Y0135134D01*
X0476531Y0135121D01*
X0476587Y0135105D01*
X0476642Y0135085D01*
X0476695Y0135062D01*
X0476747Y0135036D01*
X0476797Y0135006D01*
X0476845Y0134973D01*
X0476891Y0134938D01*
X0476934Y0134899D01*
X0476975Y0134858D01*
X0477014Y0134815D01*
X0477049Y0134769D01*
X0477082Y0134721D01*
X0477112Y0134671D01*
X0477138Y0134619D01*
X0477161Y0134566D01*
X0477181Y0134511D01*
X0477197Y0134455D01*
X0477210Y0134398D01*
X0477219Y0134341D01*
X0477224Y0134283D01*
X0477226Y0134225D01*
X0477224Y0134163D01*
X0477218Y0134101D01*
X0477209Y0134040D01*
X0477195Y0133980D01*
X0477178Y0133920D01*
X0477157Y0133862D01*
X0477133Y0133805D01*
X0477105Y0133750D01*
X0477074Y0133696D01*
X0477039Y0133645D01*
X0477002Y0133596D01*
X0476961Y0133549D01*
X0476918Y0133505D01*
X0485094Y0060850D02*
X0486061Y0060850D01*
X0485094Y0060850D02*
X0485043Y0060848D01*
X0484993Y0060842D01*
X0484944Y0060832D01*
X0484895Y0060818D01*
X0484848Y0060801D01*
X0484802Y0060780D01*
X0484758Y0060755D01*
X0484715Y0060727D01*
X0484676Y0060696D01*
X0484639Y0060661D01*
X0484604Y0060624D01*
X0484573Y0060585D01*
X0484545Y0060542D01*
X0484520Y0060498D01*
X0484499Y0060452D01*
X0484482Y0060405D01*
X0484468Y0060356D01*
X0484458Y0060307D01*
X0484452Y0060257D01*
X0484450Y0060206D01*
X0484450Y0058594D01*
X0484452Y0058546D01*
X0484457Y0058498D01*
X0484466Y0058451D01*
X0484479Y0058404D01*
X0484495Y0058359D01*
X0484514Y0058315D01*
X0484536Y0058272D01*
X0484562Y0058231D01*
X0484591Y0058192D01*
X0484622Y0058156D01*
X0484656Y0058122D01*
X0484692Y0058091D01*
X0484731Y0058062D01*
X0484772Y0058036D01*
X0484815Y0058014D01*
X0484859Y0057995D01*
X0484904Y0057979D01*
X0484951Y0057966D01*
X0484998Y0057957D01*
X0485046Y0057952D01*
X0485094Y0057950D01*
X0486061Y0057950D01*
X0486061Y0059561D01*
X0485578Y0059561D01*
X0487522Y0060850D02*
X0489133Y0057950D01*
X0489133Y0060850D01*
X0490594Y0060850D02*
X0491400Y0060850D01*
X0491455Y0060848D01*
X0491510Y0060842D01*
X0491564Y0060833D01*
X0491617Y0060820D01*
X0491670Y0060803D01*
X0491721Y0060783D01*
X0491771Y0060760D01*
X0491819Y0060733D01*
X0491865Y0060702D01*
X0491909Y0060669D01*
X0491950Y0060633D01*
X0491989Y0060594D01*
X0492025Y0060553D01*
X0492058Y0060509D01*
X0492089Y0060463D01*
X0492116Y0060415D01*
X0492139Y0060365D01*
X0492159Y0060314D01*
X0492176Y0060261D01*
X0492189Y0060208D01*
X0492198Y0060154D01*
X0492204Y0060099D01*
X0492206Y0060044D01*
X0492205Y0060044D02*
X0492205Y0058756D01*
X0492206Y0058756D02*
X0492204Y0058701D01*
X0492198Y0058646D01*
X0492189Y0058592D01*
X0492176Y0058539D01*
X0492159Y0058486D01*
X0492139Y0058435D01*
X0492116Y0058385D01*
X0492089Y0058337D01*
X0492058Y0058291D01*
X0492025Y0058247D01*
X0491989Y0058206D01*
X0491950Y0058167D01*
X0491909Y0058131D01*
X0491865Y0058098D01*
X0491819Y0058067D01*
X0491771Y0058040D01*
X0491721Y0058017D01*
X0491670Y0057997D01*
X0491617Y0057980D01*
X0491564Y0057967D01*
X0491510Y0057958D01*
X0491455Y0057952D01*
X0491400Y0057950D01*
X0490594Y0057950D01*
X0490594Y0060850D01*
X0487522Y0060850D02*
X0487522Y0057950D01*
X0487650Y0052150D02*
X0489705Y0052150D01*
X0488678Y0052150D02*
X0488678Y0048450D01*
X0486551Y0048450D02*
X0485318Y0052150D01*
X0484084Y0048450D01*
X0484393Y0049375D02*
X0486243Y0049375D01*
X0482941Y0048450D02*
X0481297Y0048450D01*
X0481297Y0052150D01*
X0482941Y0052150D01*
X0482530Y0050506D02*
X0481297Y0050506D01*
X0479506Y0050506D02*
X0477450Y0050506D01*
X0477450Y0052150D02*
X0477450Y0048450D01*
X0479506Y0048450D02*
X0479506Y0052150D01*
X0490907Y0052150D02*
X0491729Y0052150D01*
X0491318Y0052150D02*
X0491318Y0048450D01*
X0490907Y0048450D02*
X0491729Y0048450D01*
X0493290Y0048450D02*
X0493290Y0052150D01*
X0495345Y0048450D01*
X0495345Y0052150D01*
X0497130Y0051328D02*
X0497130Y0049272D01*
X0497132Y0049216D01*
X0497138Y0049160D01*
X0497147Y0049105D01*
X0497160Y0049050D01*
X0497177Y0048997D01*
X0497198Y0048945D01*
X0497222Y0048894D01*
X0497250Y0048845D01*
X0497280Y0048798D01*
X0497314Y0048753D01*
X0497351Y0048711D01*
X0497391Y0048671D01*
X0497433Y0048634D01*
X0497478Y0048600D01*
X0497525Y0048570D01*
X0497574Y0048542D01*
X0497625Y0048518D01*
X0497677Y0048497D01*
X0497730Y0048480D01*
X0497785Y0048467D01*
X0497840Y0048458D01*
X0497896Y0048452D01*
X0497952Y0048450D01*
X0499185Y0048450D01*
X0499185Y0050506D01*
X0498569Y0050506D01*
X0497130Y0051328D02*
X0497132Y0051384D01*
X0497138Y0051440D01*
X0497147Y0051495D01*
X0497160Y0051550D01*
X0497177Y0051603D01*
X0497198Y0051655D01*
X0497222Y0051706D01*
X0497250Y0051755D01*
X0497280Y0051802D01*
X0497314Y0051847D01*
X0497351Y0051889D01*
X0497391Y0051929D01*
X0497433Y0051966D01*
X0497478Y0052000D01*
X0497525Y0052030D01*
X0497574Y0052058D01*
X0497625Y0052082D01*
X0497677Y0052103D01*
X0497730Y0052120D01*
X0497785Y0052133D01*
X0497840Y0052142D01*
X0497896Y0052148D01*
X0497952Y0052150D01*
X0499185Y0052150D01*
X0500695Y0048039D02*
X0502340Y0048039D01*
X0503902Y0048450D02*
X0503902Y0052150D01*
X0504929Y0052150D01*
X0504992Y0052148D01*
X0505055Y0052142D01*
X0505118Y0052132D01*
X0505180Y0052119D01*
X0505241Y0052102D01*
X0505300Y0052081D01*
X0505359Y0052056D01*
X0505415Y0052028D01*
X0505470Y0051996D01*
X0505523Y0051961D01*
X0505573Y0051923D01*
X0505622Y0051882D01*
X0505667Y0051838D01*
X0505710Y0051791D01*
X0505749Y0051742D01*
X0505786Y0051690D01*
X0505819Y0051636D01*
X0505849Y0051580D01*
X0505876Y0051523D01*
X0505899Y0051464D01*
X0505918Y0051403D01*
X0505933Y0051342D01*
X0505945Y0051280D01*
X0505953Y0051217D01*
X0505957Y0051154D01*
X0505957Y0051090D01*
X0505953Y0051027D01*
X0505945Y0050964D01*
X0505933Y0050902D01*
X0505918Y0050841D01*
X0505899Y0050780D01*
X0505876Y0050721D01*
X0505849Y0050664D01*
X0505819Y0050608D01*
X0505786Y0050554D01*
X0505749Y0050502D01*
X0505710Y0050453D01*
X0505667Y0050406D01*
X0505622Y0050362D01*
X0505573Y0050321D01*
X0505523Y0050283D01*
X0505470Y0050248D01*
X0505415Y0050216D01*
X0505359Y0050188D01*
X0505300Y0050163D01*
X0505241Y0050142D01*
X0505180Y0050125D01*
X0505118Y0050112D01*
X0505055Y0050102D01*
X0504992Y0050096D01*
X0504929Y0050094D01*
X0503902Y0050094D01*
X0507433Y0049375D02*
X0509283Y0049375D01*
X0509591Y0048450D02*
X0508358Y0052150D01*
X0507124Y0048450D01*
X0511050Y0048450D02*
X0511050Y0052150D01*
X0512078Y0052150D01*
X0512140Y0052148D01*
X0512202Y0052143D01*
X0512263Y0052133D01*
X0512324Y0052120D01*
X0512384Y0052103D01*
X0512443Y0052083D01*
X0512500Y0052059D01*
X0512556Y0052032D01*
X0512610Y0052002D01*
X0512662Y0051968D01*
X0512712Y0051931D01*
X0512760Y0051891D01*
X0512805Y0051849D01*
X0512847Y0051804D01*
X0512887Y0051756D01*
X0512924Y0051706D01*
X0512958Y0051654D01*
X0512988Y0051600D01*
X0513015Y0051544D01*
X0513039Y0051487D01*
X0513059Y0051428D01*
X0513076Y0051368D01*
X0513089Y0051307D01*
X0513099Y0051246D01*
X0513104Y0051184D01*
X0513106Y0051122D01*
X0513105Y0051122D02*
X0513105Y0049478D01*
X0513106Y0049478D02*
X0513104Y0049416D01*
X0513099Y0049354D01*
X0513089Y0049293D01*
X0513076Y0049232D01*
X0513059Y0049172D01*
X0513039Y0049113D01*
X0513015Y0049056D01*
X0512988Y0049000D01*
X0512958Y0048946D01*
X0512924Y0048894D01*
X0512887Y0048844D01*
X0512847Y0048796D01*
X0512805Y0048751D01*
X0512760Y0048709D01*
X0512712Y0048669D01*
X0512662Y0048632D01*
X0512610Y0048598D01*
X0512556Y0048568D01*
X0512500Y0048541D01*
X0512443Y0048517D01*
X0512384Y0048497D01*
X0512324Y0048480D01*
X0512263Y0048467D01*
X0512202Y0048457D01*
X0512140Y0048452D01*
X0512078Y0048450D01*
X0511050Y0048450D01*
X0506465Y0057950D02*
X0505659Y0057950D01*
X0505659Y0060850D01*
X0506465Y0060850D01*
X0506520Y0060848D01*
X0506575Y0060842D01*
X0506629Y0060833D01*
X0506682Y0060820D01*
X0506735Y0060803D01*
X0506786Y0060783D01*
X0506836Y0060760D01*
X0506884Y0060733D01*
X0506930Y0060702D01*
X0506974Y0060669D01*
X0507015Y0060633D01*
X0507054Y0060594D01*
X0507090Y0060553D01*
X0507123Y0060509D01*
X0507154Y0060463D01*
X0507181Y0060415D01*
X0507204Y0060365D01*
X0507224Y0060314D01*
X0507241Y0060261D01*
X0507254Y0060208D01*
X0507263Y0060154D01*
X0507269Y0060099D01*
X0507271Y0060044D01*
X0507270Y0060044D02*
X0507270Y0058756D01*
X0507271Y0058756D02*
X0507269Y0058701D01*
X0507263Y0058646D01*
X0507254Y0058592D01*
X0507241Y0058539D01*
X0507224Y0058486D01*
X0507204Y0058435D01*
X0507181Y0058385D01*
X0507154Y0058337D01*
X0507123Y0058291D01*
X0507090Y0058247D01*
X0507054Y0058206D01*
X0507015Y0058167D01*
X0506974Y0058131D01*
X0506930Y0058098D01*
X0506884Y0058067D01*
X0506836Y0058040D01*
X0506786Y0058017D01*
X0506735Y0057997D01*
X0506682Y0057980D01*
X0506629Y0057967D01*
X0506575Y0057958D01*
X0506520Y0057952D01*
X0506465Y0057950D01*
X0504198Y0058756D02*
X0504198Y0060044D01*
X0504199Y0060044D02*
X0504197Y0060099D01*
X0504191Y0060154D01*
X0504182Y0060208D01*
X0504169Y0060261D01*
X0504152Y0060314D01*
X0504132Y0060365D01*
X0504109Y0060415D01*
X0504082Y0060463D01*
X0504051Y0060509D01*
X0504018Y0060553D01*
X0503982Y0060594D01*
X0503943Y0060633D01*
X0503902Y0060669D01*
X0503858Y0060702D01*
X0503812Y0060733D01*
X0503764Y0060760D01*
X0503714Y0060783D01*
X0503663Y0060803D01*
X0503610Y0060820D01*
X0503557Y0060833D01*
X0503503Y0060842D01*
X0503448Y0060848D01*
X0503393Y0060850D01*
X0502587Y0060850D01*
X0502587Y0057950D01*
X0503393Y0057950D01*
X0503448Y0057952D01*
X0503503Y0057958D01*
X0503557Y0057967D01*
X0503610Y0057980D01*
X0503663Y0057997D01*
X0503714Y0058017D01*
X0503764Y0058040D01*
X0503812Y0058067D01*
X0503858Y0058098D01*
X0503902Y0058131D01*
X0503943Y0058167D01*
X0503982Y0058206D01*
X0504018Y0058247D01*
X0504051Y0058291D01*
X0504082Y0058337D01*
X0504109Y0058385D01*
X0504132Y0058435D01*
X0504152Y0058486D01*
X0504169Y0058539D01*
X0504182Y0058592D01*
X0504191Y0058646D01*
X0504197Y0058701D01*
X0504199Y0058756D01*
X0501383Y0060850D02*
X0500417Y0057950D01*
X0499450Y0060850D01*
D11*
X0460135Y0039867D02*
X0458002Y0039867D01*
X0456290Y0039867D02*
X0454868Y0039867D01*
X0454804Y0039865D01*
X0454739Y0039859D01*
X0454676Y0039850D01*
X0454613Y0039836D01*
X0454551Y0039819D01*
X0454490Y0039798D01*
X0454430Y0039773D01*
X0454372Y0039745D01*
X0454316Y0039713D01*
X0454262Y0039678D01*
X0454210Y0039640D01*
X0454160Y0039599D01*
X0454114Y0039554D01*
X0454069Y0039508D01*
X0454028Y0039458D01*
X0453990Y0039406D01*
X0453955Y0039352D01*
X0453923Y0039296D01*
X0453895Y0039238D01*
X0453870Y0039178D01*
X0453849Y0039117D01*
X0453832Y0039055D01*
X0453818Y0038992D01*
X0453809Y0038929D01*
X0453803Y0038864D01*
X0453801Y0038800D01*
X0453801Y0036667D01*
X0453803Y0036603D01*
X0453809Y0036538D01*
X0453818Y0036475D01*
X0453832Y0036412D01*
X0453849Y0036350D01*
X0453870Y0036289D01*
X0453895Y0036229D01*
X0453923Y0036171D01*
X0453955Y0036115D01*
X0453990Y0036061D01*
X0454028Y0036009D01*
X0454069Y0035959D01*
X0454114Y0035913D01*
X0454160Y0035868D01*
X0454210Y0035827D01*
X0454262Y0035789D01*
X0454316Y0035754D01*
X0454372Y0035722D01*
X0454430Y0035694D01*
X0454490Y0035669D01*
X0454551Y0035648D01*
X0454613Y0035631D01*
X0454676Y0035617D01*
X0454739Y0035608D01*
X0454804Y0035602D01*
X0454868Y0035600D01*
X0456290Y0035600D01*
X0458713Y0036667D02*
X0458713Y0042000D01*
X0458712Y0036667D02*
X0458714Y0036603D01*
X0458720Y0036538D01*
X0458729Y0036475D01*
X0458743Y0036412D01*
X0458760Y0036350D01*
X0458781Y0036289D01*
X0458806Y0036229D01*
X0458834Y0036171D01*
X0458866Y0036115D01*
X0458901Y0036061D01*
X0458939Y0036009D01*
X0458980Y0035959D01*
X0459025Y0035913D01*
X0459071Y0035868D01*
X0459121Y0035827D01*
X0459173Y0035789D01*
X0459227Y0035754D01*
X0459283Y0035722D01*
X0459341Y0035694D01*
X0459401Y0035669D01*
X0459462Y0035648D01*
X0459524Y0035631D01*
X0459587Y0035617D01*
X0459650Y0035608D01*
X0459715Y0035602D01*
X0459779Y0035600D01*
X0460135Y0035600D01*
X0451305Y0035600D02*
X0449527Y0035600D01*
X0449463Y0035602D01*
X0449398Y0035608D01*
X0449335Y0035617D01*
X0449272Y0035631D01*
X0449210Y0035648D01*
X0449149Y0035669D01*
X0449089Y0035694D01*
X0449031Y0035722D01*
X0448975Y0035754D01*
X0448921Y0035789D01*
X0448869Y0035827D01*
X0448819Y0035868D01*
X0448773Y0035913D01*
X0448728Y0035959D01*
X0448687Y0036009D01*
X0448649Y0036061D01*
X0448614Y0036115D01*
X0448582Y0036171D01*
X0448554Y0036229D01*
X0448529Y0036289D01*
X0448508Y0036350D01*
X0448491Y0036412D01*
X0448477Y0036475D01*
X0448468Y0036538D01*
X0448462Y0036603D01*
X0448460Y0036667D01*
X0448461Y0036667D02*
X0448461Y0038444D01*
X0448461Y0037733D02*
X0451305Y0037733D01*
X0451305Y0038444D01*
X0451303Y0038518D01*
X0451297Y0038593D01*
X0451287Y0038666D01*
X0451274Y0038740D01*
X0451257Y0038812D01*
X0451235Y0038883D01*
X0451211Y0038954D01*
X0451182Y0039022D01*
X0451150Y0039090D01*
X0451114Y0039155D01*
X0451076Y0039218D01*
X0451033Y0039280D01*
X0450988Y0039339D01*
X0450940Y0039396D01*
X0450889Y0039450D01*
X0450835Y0039501D01*
X0450778Y0039549D01*
X0450719Y0039594D01*
X0450657Y0039637D01*
X0450594Y0039675D01*
X0450529Y0039711D01*
X0450461Y0039743D01*
X0450393Y0039772D01*
X0450322Y0039796D01*
X0450251Y0039818D01*
X0450179Y0039835D01*
X0450105Y0039848D01*
X0450032Y0039858D01*
X0449957Y0039864D01*
X0449883Y0039866D01*
X0449809Y0039864D01*
X0449734Y0039858D01*
X0449661Y0039848D01*
X0449587Y0039835D01*
X0449515Y0039818D01*
X0449444Y0039796D01*
X0449373Y0039772D01*
X0449305Y0039743D01*
X0449237Y0039711D01*
X0449172Y0039675D01*
X0449109Y0039637D01*
X0449047Y0039594D01*
X0448988Y0039549D01*
X0448931Y0039501D01*
X0448877Y0039450D01*
X0448826Y0039396D01*
X0448778Y0039339D01*
X0448733Y0039280D01*
X0448690Y0039218D01*
X0448652Y0039155D01*
X0448616Y0039090D01*
X0448584Y0039022D01*
X0448555Y0038954D01*
X0448531Y0038883D01*
X0448509Y0038812D01*
X0448492Y0038740D01*
X0448479Y0038666D01*
X0448469Y0038593D01*
X0448463Y0038518D01*
X0448461Y0038444D01*
X0445890Y0039867D02*
X0445890Y0034533D01*
X0445888Y0034469D01*
X0445882Y0034404D01*
X0445873Y0034341D01*
X0445859Y0034278D01*
X0445842Y0034216D01*
X0445821Y0034155D01*
X0445796Y0034095D01*
X0445768Y0034037D01*
X0445736Y0033981D01*
X0445701Y0033927D01*
X0445663Y0033875D01*
X0445622Y0033825D01*
X0445577Y0033779D01*
X0445531Y0033734D01*
X0445481Y0033693D01*
X0445429Y0033655D01*
X0445375Y0033620D01*
X0445319Y0033588D01*
X0445261Y0033560D01*
X0445201Y0033535D01*
X0445140Y0033514D01*
X0445078Y0033497D01*
X0445015Y0033483D01*
X0444952Y0033474D01*
X0444887Y0033468D01*
X0444823Y0033466D01*
X0444823Y0033467D02*
X0444467Y0033467D01*
X0443510Y0037022D02*
X0443510Y0038444D01*
X0443508Y0038518D01*
X0443502Y0038593D01*
X0443492Y0038666D01*
X0443479Y0038740D01*
X0443462Y0038812D01*
X0443440Y0038883D01*
X0443416Y0038954D01*
X0443387Y0039022D01*
X0443355Y0039090D01*
X0443319Y0039155D01*
X0443281Y0039218D01*
X0443238Y0039280D01*
X0443193Y0039339D01*
X0443145Y0039396D01*
X0443094Y0039450D01*
X0443040Y0039501D01*
X0442983Y0039549D01*
X0442924Y0039594D01*
X0442862Y0039637D01*
X0442799Y0039675D01*
X0442734Y0039711D01*
X0442666Y0039743D01*
X0442598Y0039772D01*
X0442527Y0039796D01*
X0442456Y0039818D01*
X0442384Y0039835D01*
X0442310Y0039848D01*
X0442237Y0039858D01*
X0442162Y0039864D01*
X0442088Y0039866D01*
X0442014Y0039864D01*
X0441939Y0039858D01*
X0441866Y0039848D01*
X0441792Y0039835D01*
X0441720Y0039818D01*
X0441649Y0039796D01*
X0441578Y0039772D01*
X0441510Y0039743D01*
X0441442Y0039711D01*
X0441377Y0039675D01*
X0441314Y0039637D01*
X0441252Y0039594D01*
X0441193Y0039549D01*
X0441136Y0039501D01*
X0441082Y0039450D01*
X0441031Y0039396D01*
X0440983Y0039339D01*
X0440938Y0039280D01*
X0440895Y0039218D01*
X0440857Y0039155D01*
X0440821Y0039090D01*
X0440789Y0039022D01*
X0440760Y0038954D01*
X0440736Y0038883D01*
X0440714Y0038812D01*
X0440697Y0038740D01*
X0440684Y0038666D01*
X0440674Y0038593D01*
X0440668Y0038518D01*
X0440666Y0038444D01*
X0440666Y0037022D01*
X0440668Y0036948D01*
X0440674Y0036873D01*
X0440684Y0036800D01*
X0440697Y0036726D01*
X0440714Y0036654D01*
X0440736Y0036583D01*
X0440760Y0036512D01*
X0440789Y0036444D01*
X0440821Y0036376D01*
X0440857Y0036311D01*
X0440895Y0036248D01*
X0440938Y0036186D01*
X0440983Y0036127D01*
X0441031Y0036070D01*
X0441082Y0036016D01*
X0441136Y0035965D01*
X0441193Y0035917D01*
X0441252Y0035872D01*
X0441314Y0035829D01*
X0441377Y0035791D01*
X0441442Y0035755D01*
X0441510Y0035723D01*
X0441578Y0035694D01*
X0441649Y0035670D01*
X0441720Y0035648D01*
X0441792Y0035631D01*
X0441866Y0035618D01*
X0441939Y0035608D01*
X0442014Y0035602D01*
X0442088Y0035600D01*
X0442162Y0035602D01*
X0442237Y0035608D01*
X0442310Y0035618D01*
X0442384Y0035631D01*
X0442456Y0035648D01*
X0442527Y0035670D01*
X0442598Y0035694D01*
X0442666Y0035723D01*
X0442734Y0035755D01*
X0442799Y0035791D01*
X0442862Y0035829D01*
X0442924Y0035872D01*
X0442983Y0035917D01*
X0443040Y0035965D01*
X0443094Y0036016D01*
X0443145Y0036070D01*
X0443193Y0036127D01*
X0443238Y0036186D01*
X0443281Y0036248D01*
X0443319Y0036311D01*
X0443355Y0036376D01*
X0443387Y0036444D01*
X0443416Y0036512D01*
X0443440Y0036583D01*
X0443462Y0036654D01*
X0443479Y0036726D01*
X0443492Y0036800D01*
X0443502Y0036873D01*
X0443508Y0036948D01*
X0443510Y0037022D01*
X0445712Y0041644D02*
X0446067Y0041644D01*
X0446067Y0042000D01*
X0445712Y0042000D01*
X0445712Y0041644D01*
X0438730Y0039867D02*
X0438730Y0039156D01*
X0438730Y0039867D02*
X0436596Y0039867D01*
X0436596Y0035600D01*
X0432324Y0038444D02*
X0430547Y0038444D01*
X0432324Y0038444D02*
X0432407Y0038446D01*
X0432490Y0038452D01*
X0432573Y0038462D01*
X0432656Y0038475D01*
X0432737Y0038493D01*
X0432818Y0038514D01*
X0432897Y0038539D01*
X0432975Y0038568D01*
X0433052Y0038600D01*
X0433127Y0038636D01*
X0433201Y0038675D01*
X0433272Y0038718D01*
X0433342Y0038764D01*
X0433409Y0038814D01*
X0433474Y0038866D01*
X0433536Y0038921D01*
X0433596Y0038980D01*
X0433653Y0039041D01*
X0433707Y0039104D01*
X0433758Y0039170D01*
X0433805Y0039239D01*
X0433850Y0039309D01*
X0433891Y0039382D01*
X0433928Y0039456D01*
X0433963Y0039532D01*
X0433993Y0039610D01*
X0434020Y0039688D01*
X0434043Y0039769D01*
X0434063Y0039850D01*
X0434078Y0039932D01*
X0434090Y0040014D01*
X0434098Y0040097D01*
X0434102Y0040180D01*
X0434102Y0040264D01*
X0434098Y0040347D01*
X0434090Y0040430D01*
X0434078Y0040512D01*
X0434063Y0040594D01*
X0434043Y0040675D01*
X0434020Y0040756D01*
X0433993Y0040834D01*
X0433963Y0040912D01*
X0433928Y0040988D01*
X0433891Y0041062D01*
X0433850Y0041135D01*
X0433805Y0041205D01*
X0433758Y0041274D01*
X0433707Y0041340D01*
X0433653Y0041403D01*
X0433596Y0041464D01*
X0433536Y0041523D01*
X0433474Y0041578D01*
X0433409Y0041630D01*
X0433342Y0041680D01*
X0433272Y0041726D01*
X0433201Y0041769D01*
X0433127Y0041808D01*
X0433052Y0041844D01*
X0432975Y0041876D01*
X0432897Y0041905D01*
X0432818Y0041930D01*
X0432737Y0041951D01*
X0432656Y0041969D01*
X0432573Y0041982D01*
X0432490Y0041992D01*
X0432407Y0041998D01*
X0432324Y0042000D01*
X0430547Y0042000D01*
X0430547Y0035600D01*
X0424986Y0039156D02*
X0424986Y0039867D01*
X0422852Y0039867D01*
X0422852Y0035600D01*
X0420125Y0035600D02*
X0418347Y0035600D01*
X0418283Y0035602D01*
X0418218Y0035608D01*
X0418155Y0035617D01*
X0418092Y0035631D01*
X0418030Y0035648D01*
X0417969Y0035669D01*
X0417909Y0035694D01*
X0417851Y0035722D01*
X0417795Y0035754D01*
X0417741Y0035789D01*
X0417689Y0035827D01*
X0417639Y0035868D01*
X0417593Y0035913D01*
X0417548Y0035959D01*
X0417507Y0036009D01*
X0417469Y0036061D01*
X0417434Y0036115D01*
X0417402Y0036171D01*
X0417374Y0036229D01*
X0417349Y0036289D01*
X0417328Y0036350D01*
X0417311Y0036412D01*
X0417297Y0036475D01*
X0417288Y0036538D01*
X0417282Y0036603D01*
X0417280Y0036667D01*
X0417280Y0038444D01*
X0417280Y0037733D02*
X0420125Y0037733D01*
X0420125Y0038444D01*
X0420123Y0038518D01*
X0420117Y0038593D01*
X0420107Y0038666D01*
X0420094Y0038740D01*
X0420077Y0038812D01*
X0420055Y0038883D01*
X0420031Y0038954D01*
X0420002Y0039022D01*
X0419970Y0039090D01*
X0419934Y0039155D01*
X0419896Y0039218D01*
X0419853Y0039280D01*
X0419808Y0039339D01*
X0419760Y0039396D01*
X0419709Y0039450D01*
X0419655Y0039501D01*
X0419598Y0039549D01*
X0419539Y0039594D01*
X0419477Y0039637D01*
X0419414Y0039675D01*
X0419349Y0039711D01*
X0419281Y0039743D01*
X0419213Y0039772D01*
X0419142Y0039796D01*
X0419071Y0039818D01*
X0418999Y0039835D01*
X0418925Y0039848D01*
X0418852Y0039858D01*
X0418777Y0039864D01*
X0418703Y0039866D01*
X0418629Y0039864D01*
X0418554Y0039858D01*
X0418481Y0039848D01*
X0418407Y0039835D01*
X0418335Y0039818D01*
X0418264Y0039796D01*
X0418193Y0039772D01*
X0418125Y0039743D01*
X0418057Y0039711D01*
X0417992Y0039675D01*
X0417929Y0039637D01*
X0417867Y0039594D01*
X0417808Y0039549D01*
X0417751Y0039501D01*
X0417697Y0039450D01*
X0417646Y0039396D01*
X0417598Y0039339D01*
X0417553Y0039280D01*
X0417510Y0039218D01*
X0417472Y0039155D01*
X0417436Y0039090D01*
X0417404Y0039022D01*
X0417375Y0038954D01*
X0417351Y0038883D01*
X0417329Y0038812D01*
X0417312Y0038740D01*
X0417299Y0038666D01*
X0417289Y0038593D01*
X0417283Y0038518D01*
X0417281Y0038444D01*
X0415005Y0039867D02*
X0412872Y0039867D01*
X0413583Y0042000D02*
X0413583Y0036667D01*
X0413585Y0036603D01*
X0413591Y0036538D01*
X0413600Y0036475D01*
X0413614Y0036412D01*
X0413631Y0036350D01*
X0413652Y0036289D01*
X0413677Y0036229D01*
X0413705Y0036171D01*
X0413737Y0036115D01*
X0413772Y0036061D01*
X0413810Y0036009D01*
X0413851Y0035959D01*
X0413896Y0035913D01*
X0413942Y0035868D01*
X0413992Y0035827D01*
X0414044Y0035789D01*
X0414098Y0035754D01*
X0414154Y0035722D01*
X0414212Y0035694D01*
X0414272Y0035669D01*
X0414333Y0035648D01*
X0414395Y0035631D01*
X0414458Y0035617D01*
X0414521Y0035608D01*
X0414586Y0035602D01*
X0414650Y0035600D01*
X0415005Y0035600D01*
X0410660Y0035600D02*
X0410660Y0038800D01*
X0410660Y0038089D02*
X0409060Y0038089D01*
X0410660Y0038800D02*
X0410658Y0038864D01*
X0410652Y0038929D01*
X0410643Y0038992D01*
X0410629Y0039055D01*
X0410612Y0039117D01*
X0410591Y0039178D01*
X0410566Y0039238D01*
X0410538Y0039296D01*
X0410506Y0039352D01*
X0410471Y0039406D01*
X0410433Y0039458D01*
X0410392Y0039508D01*
X0410347Y0039554D01*
X0410301Y0039599D01*
X0410251Y0039640D01*
X0410199Y0039678D01*
X0410145Y0039713D01*
X0410089Y0039745D01*
X0410031Y0039773D01*
X0409971Y0039798D01*
X0409910Y0039819D01*
X0409848Y0039836D01*
X0409785Y0039850D01*
X0409722Y0039859D01*
X0409657Y0039865D01*
X0409593Y0039867D01*
X0408171Y0039867D01*
X0409060Y0038088D02*
X0408990Y0038086D01*
X0408921Y0038080D01*
X0408852Y0038070D01*
X0408783Y0038057D01*
X0408716Y0038039D01*
X0408649Y0038018D01*
X0408584Y0037993D01*
X0408520Y0037965D01*
X0408458Y0037933D01*
X0408398Y0037897D01*
X0408340Y0037859D01*
X0408284Y0037817D01*
X0408231Y0037772D01*
X0408180Y0037724D01*
X0408132Y0037673D01*
X0408087Y0037620D01*
X0408045Y0037564D01*
X0408007Y0037506D01*
X0407971Y0037446D01*
X0407939Y0037384D01*
X0407911Y0037320D01*
X0407886Y0037255D01*
X0407865Y0037188D01*
X0407847Y0037121D01*
X0407834Y0037052D01*
X0407824Y0036983D01*
X0407818Y0036914D01*
X0407816Y0036844D01*
X0407818Y0036774D01*
X0407824Y0036705D01*
X0407834Y0036636D01*
X0407847Y0036567D01*
X0407865Y0036500D01*
X0407886Y0036433D01*
X0407911Y0036368D01*
X0407939Y0036304D01*
X0407971Y0036242D01*
X0408007Y0036182D01*
X0408045Y0036124D01*
X0408087Y0036068D01*
X0408132Y0036015D01*
X0408180Y0035964D01*
X0408231Y0035916D01*
X0408284Y0035871D01*
X0408340Y0035829D01*
X0408398Y0035791D01*
X0408458Y0035755D01*
X0408520Y0035723D01*
X0408584Y0035695D01*
X0408649Y0035670D01*
X0408716Y0035649D01*
X0408783Y0035631D01*
X0408852Y0035618D01*
X0408921Y0035608D01*
X0408990Y0035602D01*
X0409060Y0035600D01*
X0410660Y0035600D01*
X0405355Y0035600D02*
X0403577Y0035600D01*
X0403513Y0035602D01*
X0403448Y0035608D01*
X0403385Y0035617D01*
X0403322Y0035631D01*
X0403260Y0035648D01*
X0403199Y0035669D01*
X0403139Y0035694D01*
X0403081Y0035722D01*
X0403025Y0035754D01*
X0402971Y0035789D01*
X0402919Y0035827D01*
X0402869Y0035868D01*
X0402823Y0035913D01*
X0402778Y0035959D01*
X0402737Y0036009D01*
X0402699Y0036061D01*
X0402664Y0036115D01*
X0402632Y0036171D01*
X0402604Y0036229D01*
X0402579Y0036289D01*
X0402558Y0036350D01*
X0402541Y0036412D01*
X0402527Y0036475D01*
X0402518Y0036538D01*
X0402512Y0036603D01*
X0402510Y0036667D01*
X0402511Y0036667D02*
X0402511Y0038444D01*
X0402511Y0037733D02*
X0405355Y0037733D01*
X0405355Y0038444D01*
X0405353Y0038518D01*
X0405347Y0038593D01*
X0405337Y0038666D01*
X0405324Y0038740D01*
X0405307Y0038812D01*
X0405285Y0038883D01*
X0405261Y0038954D01*
X0405232Y0039022D01*
X0405200Y0039090D01*
X0405164Y0039155D01*
X0405126Y0039218D01*
X0405083Y0039280D01*
X0405038Y0039339D01*
X0404990Y0039396D01*
X0404939Y0039450D01*
X0404885Y0039501D01*
X0404828Y0039549D01*
X0404769Y0039594D01*
X0404707Y0039637D01*
X0404644Y0039675D01*
X0404579Y0039711D01*
X0404511Y0039743D01*
X0404443Y0039772D01*
X0404372Y0039796D01*
X0404301Y0039818D01*
X0404229Y0039835D01*
X0404155Y0039848D01*
X0404082Y0039858D01*
X0404007Y0039864D01*
X0403933Y0039866D01*
X0403859Y0039864D01*
X0403784Y0039858D01*
X0403711Y0039848D01*
X0403637Y0039835D01*
X0403565Y0039818D01*
X0403494Y0039796D01*
X0403423Y0039772D01*
X0403355Y0039743D01*
X0403287Y0039711D01*
X0403222Y0039675D01*
X0403159Y0039637D01*
X0403097Y0039594D01*
X0403038Y0039549D01*
X0402981Y0039501D01*
X0402927Y0039450D01*
X0402876Y0039396D01*
X0402828Y0039339D01*
X0402783Y0039280D01*
X0402740Y0039218D01*
X0402702Y0039155D01*
X0402666Y0039090D01*
X0402634Y0039022D01*
X0402605Y0038954D01*
X0402581Y0038883D01*
X0402559Y0038812D01*
X0402542Y0038740D01*
X0402529Y0038666D01*
X0402519Y0038593D01*
X0402513Y0038518D01*
X0402511Y0038444D01*
X0399762Y0039156D02*
X0396206Y0039156D01*
X0396206Y0042000D02*
X0396206Y0035600D01*
X0399762Y0035600D02*
X0399762Y0042000D01*
X0390175Y0038444D02*
X0390175Y0037733D01*
X0387331Y0037733D01*
X0387331Y0038444D02*
X0387331Y0036667D01*
X0387330Y0036667D02*
X0387332Y0036603D01*
X0387338Y0036538D01*
X0387347Y0036475D01*
X0387361Y0036412D01*
X0387378Y0036350D01*
X0387399Y0036289D01*
X0387424Y0036229D01*
X0387452Y0036171D01*
X0387484Y0036115D01*
X0387519Y0036061D01*
X0387557Y0036009D01*
X0387598Y0035959D01*
X0387643Y0035913D01*
X0387689Y0035868D01*
X0387739Y0035827D01*
X0387791Y0035789D01*
X0387845Y0035754D01*
X0387901Y0035722D01*
X0387959Y0035694D01*
X0388019Y0035669D01*
X0388080Y0035648D01*
X0388142Y0035631D01*
X0388205Y0035617D01*
X0388268Y0035608D01*
X0388333Y0035602D01*
X0388397Y0035600D01*
X0390175Y0035600D01*
X0390175Y0038444D02*
X0390173Y0038518D01*
X0390167Y0038593D01*
X0390157Y0038666D01*
X0390144Y0038740D01*
X0390127Y0038812D01*
X0390105Y0038883D01*
X0390081Y0038954D01*
X0390052Y0039022D01*
X0390020Y0039090D01*
X0389984Y0039155D01*
X0389946Y0039218D01*
X0389903Y0039280D01*
X0389858Y0039339D01*
X0389810Y0039396D01*
X0389759Y0039450D01*
X0389705Y0039501D01*
X0389648Y0039549D01*
X0389589Y0039594D01*
X0389527Y0039637D01*
X0389464Y0039675D01*
X0389399Y0039711D01*
X0389331Y0039743D01*
X0389263Y0039772D01*
X0389192Y0039796D01*
X0389121Y0039818D01*
X0389049Y0039835D01*
X0388975Y0039848D01*
X0388902Y0039858D01*
X0388827Y0039864D01*
X0388753Y0039866D01*
X0388679Y0039864D01*
X0388604Y0039858D01*
X0388531Y0039848D01*
X0388457Y0039835D01*
X0388385Y0039818D01*
X0388314Y0039796D01*
X0388243Y0039772D01*
X0388175Y0039743D01*
X0388107Y0039711D01*
X0388042Y0039675D01*
X0387979Y0039637D01*
X0387917Y0039594D01*
X0387858Y0039549D01*
X0387801Y0039501D01*
X0387747Y0039450D01*
X0387696Y0039396D01*
X0387648Y0039339D01*
X0387603Y0039280D01*
X0387560Y0039218D01*
X0387522Y0039155D01*
X0387486Y0039090D01*
X0387454Y0039022D01*
X0387425Y0038954D01*
X0387401Y0038883D01*
X0387379Y0038812D01*
X0387362Y0038740D01*
X0387349Y0038666D01*
X0387339Y0038593D01*
X0387333Y0038518D01*
X0387331Y0038444D01*
X0384842Y0038444D02*
X0384842Y0037733D01*
X0381997Y0037733D01*
X0381997Y0038444D02*
X0381997Y0036667D01*
X0381999Y0036603D01*
X0382005Y0036538D01*
X0382014Y0036475D01*
X0382028Y0036412D01*
X0382045Y0036350D01*
X0382066Y0036289D01*
X0382091Y0036229D01*
X0382119Y0036171D01*
X0382151Y0036115D01*
X0382186Y0036061D01*
X0382224Y0036009D01*
X0382265Y0035959D01*
X0382310Y0035913D01*
X0382356Y0035868D01*
X0382406Y0035827D01*
X0382458Y0035789D01*
X0382512Y0035754D01*
X0382568Y0035722D01*
X0382626Y0035694D01*
X0382686Y0035669D01*
X0382747Y0035648D01*
X0382809Y0035631D01*
X0382872Y0035617D01*
X0382935Y0035608D01*
X0383000Y0035602D01*
X0383064Y0035600D01*
X0384842Y0035600D01*
X0384841Y0038444D02*
X0384839Y0038518D01*
X0384833Y0038593D01*
X0384823Y0038666D01*
X0384810Y0038740D01*
X0384793Y0038812D01*
X0384771Y0038883D01*
X0384747Y0038954D01*
X0384718Y0039022D01*
X0384686Y0039090D01*
X0384650Y0039155D01*
X0384612Y0039218D01*
X0384569Y0039280D01*
X0384524Y0039339D01*
X0384476Y0039396D01*
X0384425Y0039450D01*
X0384371Y0039501D01*
X0384314Y0039549D01*
X0384255Y0039594D01*
X0384193Y0039637D01*
X0384130Y0039675D01*
X0384065Y0039711D01*
X0383997Y0039743D01*
X0383929Y0039772D01*
X0383858Y0039796D01*
X0383787Y0039818D01*
X0383715Y0039835D01*
X0383641Y0039848D01*
X0383568Y0039858D01*
X0383493Y0039864D01*
X0383419Y0039866D01*
X0383345Y0039864D01*
X0383270Y0039858D01*
X0383197Y0039848D01*
X0383123Y0039835D01*
X0383051Y0039818D01*
X0382980Y0039796D01*
X0382909Y0039772D01*
X0382841Y0039743D01*
X0382773Y0039711D01*
X0382708Y0039675D01*
X0382645Y0039637D01*
X0382583Y0039594D01*
X0382524Y0039549D01*
X0382467Y0039501D01*
X0382413Y0039450D01*
X0382362Y0039396D01*
X0382314Y0039339D01*
X0382269Y0039280D01*
X0382226Y0039218D01*
X0382188Y0039155D01*
X0382152Y0039090D01*
X0382120Y0039022D01*
X0382091Y0038954D01*
X0382067Y0038883D01*
X0382045Y0038812D01*
X0382028Y0038740D01*
X0382015Y0038666D01*
X0382005Y0038593D01*
X0381999Y0038518D01*
X0381997Y0038444D01*
X0380282Y0039867D02*
X0378148Y0039867D01*
X0378859Y0040933D02*
X0378859Y0035600D01*
X0375372Y0035600D02*
X0375372Y0040933D01*
X0375374Y0040997D01*
X0375380Y0041062D01*
X0375389Y0041125D01*
X0375403Y0041188D01*
X0375420Y0041250D01*
X0375441Y0041311D01*
X0375466Y0041371D01*
X0375494Y0041429D01*
X0375526Y0041485D01*
X0375561Y0041539D01*
X0375599Y0041591D01*
X0375640Y0041641D01*
X0375685Y0041687D01*
X0375731Y0041732D01*
X0375781Y0041773D01*
X0375833Y0041811D01*
X0375887Y0041846D01*
X0375943Y0041878D01*
X0376001Y0041906D01*
X0376061Y0041931D01*
X0376122Y0041952D01*
X0376184Y0041969D01*
X0376247Y0041983D01*
X0376310Y0041992D01*
X0376375Y0041998D01*
X0376439Y0042000D01*
X0376794Y0042000D01*
X0376794Y0039867D02*
X0374661Y0039867D01*
X0372534Y0038444D02*
X0372534Y0037022D01*
X0372533Y0037022D02*
X0372531Y0036948D01*
X0372525Y0036873D01*
X0372515Y0036800D01*
X0372502Y0036726D01*
X0372485Y0036654D01*
X0372463Y0036583D01*
X0372439Y0036512D01*
X0372410Y0036444D01*
X0372378Y0036376D01*
X0372342Y0036311D01*
X0372304Y0036248D01*
X0372261Y0036186D01*
X0372216Y0036127D01*
X0372168Y0036070D01*
X0372117Y0036016D01*
X0372063Y0035965D01*
X0372006Y0035917D01*
X0371947Y0035872D01*
X0371885Y0035829D01*
X0371822Y0035791D01*
X0371757Y0035755D01*
X0371689Y0035723D01*
X0371621Y0035694D01*
X0371550Y0035670D01*
X0371479Y0035648D01*
X0371407Y0035631D01*
X0371333Y0035618D01*
X0371260Y0035608D01*
X0371185Y0035602D01*
X0371111Y0035600D01*
X0371037Y0035602D01*
X0370962Y0035608D01*
X0370889Y0035618D01*
X0370815Y0035631D01*
X0370743Y0035648D01*
X0370672Y0035670D01*
X0370601Y0035694D01*
X0370533Y0035723D01*
X0370465Y0035755D01*
X0370400Y0035791D01*
X0370337Y0035829D01*
X0370275Y0035872D01*
X0370216Y0035917D01*
X0370159Y0035965D01*
X0370105Y0036016D01*
X0370054Y0036070D01*
X0370006Y0036127D01*
X0369961Y0036186D01*
X0369918Y0036248D01*
X0369880Y0036311D01*
X0369844Y0036376D01*
X0369812Y0036444D01*
X0369783Y0036512D01*
X0369759Y0036583D01*
X0369737Y0036654D01*
X0369720Y0036726D01*
X0369707Y0036800D01*
X0369697Y0036873D01*
X0369691Y0036948D01*
X0369689Y0037022D01*
X0369689Y0038444D01*
X0369691Y0038518D01*
X0369697Y0038593D01*
X0369707Y0038666D01*
X0369720Y0038740D01*
X0369737Y0038812D01*
X0369759Y0038883D01*
X0369783Y0038954D01*
X0369812Y0039022D01*
X0369844Y0039090D01*
X0369880Y0039155D01*
X0369918Y0039218D01*
X0369961Y0039280D01*
X0370006Y0039339D01*
X0370054Y0039396D01*
X0370105Y0039450D01*
X0370159Y0039501D01*
X0370216Y0039549D01*
X0370275Y0039594D01*
X0370337Y0039637D01*
X0370400Y0039675D01*
X0370465Y0039711D01*
X0370533Y0039743D01*
X0370601Y0039772D01*
X0370672Y0039796D01*
X0370743Y0039818D01*
X0370815Y0039835D01*
X0370889Y0039848D01*
X0370962Y0039858D01*
X0371037Y0039864D01*
X0371111Y0039866D01*
X0371185Y0039864D01*
X0371260Y0039858D01*
X0371333Y0039848D01*
X0371407Y0039835D01*
X0371479Y0039818D01*
X0371550Y0039796D01*
X0371621Y0039772D01*
X0371689Y0039743D01*
X0371757Y0039711D01*
X0371822Y0039675D01*
X0371885Y0039637D01*
X0371947Y0039594D01*
X0372006Y0039549D01*
X0372063Y0039501D01*
X0372117Y0039450D01*
X0372168Y0039396D01*
X0372216Y0039339D01*
X0372261Y0039280D01*
X0372304Y0039218D01*
X0372342Y0039155D01*
X0372378Y0039090D01*
X0372410Y0039022D01*
X0372439Y0038954D01*
X0372463Y0038883D01*
X0372485Y0038812D01*
X0372502Y0038740D01*
X0372515Y0038666D01*
X0372525Y0038593D01*
X0372531Y0038518D01*
X0372533Y0038444D01*
X0367444Y0035600D02*
X0366022Y0035600D01*
X0365948Y0035602D01*
X0365873Y0035608D01*
X0365800Y0035618D01*
X0365726Y0035631D01*
X0365654Y0035648D01*
X0365583Y0035670D01*
X0365512Y0035694D01*
X0365444Y0035723D01*
X0365376Y0035755D01*
X0365311Y0035791D01*
X0365248Y0035829D01*
X0365186Y0035872D01*
X0365127Y0035917D01*
X0365070Y0035965D01*
X0365016Y0036016D01*
X0364965Y0036070D01*
X0364917Y0036127D01*
X0364872Y0036186D01*
X0364829Y0036248D01*
X0364791Y0036311D01*
X0364755Y0036376D01*
X0364723Y0036444D01*
X0364694Y0036512D01*
X0364670Y0036583D01*
X0364648Y0036654D01*
X0364631Y0036726D01*
X0364618Y0036800D01*
X0364608Y0036873D01*
X0364602Y0036948D01*
X0364600Y0037022D01*
X0364600Y0040578D01*
X0364602Y0040652D01*
X0364608Y0040727D01*
X0364618Y0040800D01*
X0364631Y0040874D01*
X0364648Y0040946D01*
X0364670Y0041017D01*
X0364694Y0041088D01*
X0364723Y0041156D01*
X0364755Y0041224D01*
X0364791Y0041289D01*
X0364829Y0041352D01*
X0364872Y0041414D01*
X0364917Y0041473D01*
X0364965Y0041529D01*
X0365016Y0041584D01*
X0365070Y0041635D01*
X0365127Y0041683D01*
X0365186Y0041728D01*
X0365248Y0041771D01*
X0365311Y0041809D01*
X0365376Y0041845D01*
X0365444Y0041877D01*
X0365512Y0041906D01*
X0365583Y0041930D01*
X0365654Y0041952D01*
X0365726Y0041969D01*
X0365800Y0041982D01*
X0365873Y0041992D01*
X0365948Y0041998D01*
X0366022Y0042000D01*
X0367444Y0042000D01*
X0379926Y0042000D02*
X0380282Y0042000D01*
X0379926Y0042000D02*
X0379862Y0041998D01*
X0379797Y0041992D01*
X0379734Y0041983D01*
X0379671Y0041969D01*
X0379609Y0041952D01*
X0379548Y0041931D01*
X0379488Y0041906D01*
X0379430Y0041878D01*
X0379374Y0041846D01*
X0379320Y0041811D01*
X0379268Y0041773D01*
X0379218Y0041732D01*
X0379172Y0041687D01*
X0379127Y0041641D01*
X0379086Y0041591D01*
X0379048Y0041539D01*
X0379013Y0041485D01*
X0378981Y0041429D01*
X0378953Y0041371D01*
X0378928Y0041311D01*
X0378907Y0041250D01*
X0378890Y0041188D01*
X0378876Y0041125D01*
X0378867Y0041062D01*
X0378861Y0040997D01*
X0378859Y0040933D01*
X0544600Y0040000D02*
X0544600Y0033600D01*
X0544600Y0036444D02*
X0546378Y0036444D01*
X0546733Y0036444D02*
X0548156Y0033600D01*
X0550663Y0034667D02*
X0550663Y0036444D01*
X0550663Y0035733D02*
X0553508Y0035733D01*
X0553508Y0036444D01*
X0553507Y0036444D02*
X0553505Y0036518D01*
X0553499Y0036593D01*
X0553489Y0036666D01*
X0553476Y0036740D01*
X0553459Y0036812D01*
X0553437Y0036883D01*
X0553413Y0036954D01*
X0553384Y0037022D01*
X0553352Y0037090D01*
X0553316Y0037155D01*
X0553278Y0037218D01*
X0553235Y0037280D01*
X0553190Y0037339D01*
X0553142Y0037396D01*
X0553091Y0037450D01*
X0553037Y0037501D01*
X0552980Y0037549D01*
X0552921Y0037594D01*
X0552859Y0037637D01*
X0552796Y0037675D01*
X0552731Y0037711D01*
X0552663Y0037743D01*
X0552595Y0037772D01*
X0552524Y0037796D01*
X0552453Y0037818D01*
X0552381Y0037835D01*
X0552307Y0037848D01*
X0552234Y0037858D01*
X0552159Y0037864D01*
X0552085Y0037866D01*
X0552011Y0037864D01*
X0551936Y0037858D01*
X0551863Y0037848D01*
X0551789Y0037835D01*
X0551717Y0037818D01*
X0551646Y0037796D01*
X0551575Y0037772D01*
X0551507Y0037743D01*
X0551439Y0037711D01*
X0551374Y0037675D01*
X0551311Y0037637D01*
X0551249Y0037594D01*
X0551190Y0037549D01*
X0551133Y0037501D01*
X0551079Y0037450D01*
X0551028Y0037396D01*
X0550980Y0037339D01*
X0550935Y0037280D01*
X0550892Y0037218D01*
X0550854Y0037155D01*
X0550818Y0037090D01*
X0550786Y0037022D01*
X0550757Y0036954D01*
X0550733Y0036883D01*
X0550711Y0036812D01*
X0550694Y0036740D01*
X0550681Y0036666D01*
X0550671Y0036593D01*
X0550665Y0036518D01*
X0550663Y0036444D01*
X0550663Y0034667D02*
X0550665Y0034603D01*
X0550671Y0034538D01*
X0550680Y0034475D01*
X0550694Y0034412D01*
X0550711Y0034350D01*
X0550732Y0034289D01*
X0550757Y0034229D01*
X0550785Y0034171D01*
X0550817Y0034115D01*
X0550852Y0034061D01*
X0550890Y0034009D01*
X0550931Y0033959D01*
X0550976Y0033913D01*
X0551022Y0033868D01*
X0551072Y0033827D01*
X0551124Y0033789D01*
X0551178Y0033754D01*
X0551234Y0033722D01*
X0551292Y0033694D01*
X0551352Y0033669D01*
X0551413Y0033648D01*
X0551475Y0033631D01*
X0551538Y0033617D01*
X0551601Y0033608D01*
X0551666Y0033602D01*
X0551730Y0033600D01*
X0553508Y0033600D01*
X0557214Y0033600D02*
X0558636Y0037867D01*
X0555792Y0037867D02*
X0557214Y0033600D01*
X0564257Y0033600D02*
X0567812Y0033600D01*
X0566035Y0033600D02*
X0566035Y0040000D01*
X0564257Y0038578D01*
X0570589Y0035200D02*
X0573789Y0035200D01*
X0574322Y0033600D02*
X0572189Y0040000D01*
X0570055Y0033600D01*
X0546378Y0036444D02*
X0546461Y0036446D01*
X0546544Y0036452D01*
X0546627Y0036462D01*
X0546710Y0036475D01*
X0546791Y0036493D01*
X0546872Y0036514D01*
X0546951Y0036539D01*
X0547029Y0036568D01*
X0547106Y0036600D01*
X0547181Y0036636D01*
X0547255Y0036675D01*
X0547326Y0036718D01*
X0547396Y0036764D01*
X0547463Y0036814D01*
X0547528Y0036866D01*
X0547590Y0036921D01*
X0547650Y0036980D01*
X0547707Y0037041D01*
X0547761Y0037104D01*
X0547812Y0037170D01*
X0547859Y0037239D01*
X0547904Y0037309D01*
X0547945Y0037382D01*
X0547982Y0037456D01*
X0548017Y0037532D01*
X0548047Y0037610D01*
X0548074Y0037688D01*
X0548097Y0037769D01*
X0548117Y0037850D01*
X0548132Y0037932D01*
X0548144Y0038014D01*
X0548152Y0038097D01*
X0548156Y0038180D01*
X0548156Y0038264D01*
X0548152Y0038347D01*
X0548144Y0038430D01*
X0548132Y0038512D01*
X0548117Y0038594D01*
X0548097Y0038675D01*
X0548074Y0038756D01*
X0548047Y0038834D01*
X0548017Y0038912D01*
X0547982Y0038988D01*
X0547945Y0039062D01*
X0547904Y0039135D01*
X0547859Y0039205D01*
X0547812Y0039274D01*
X0547761Y0039340D01*
X0547707Y0039403D01*
X0547650Y0039464D01*
X0547590Y0039523D01*
X0547528Y0039578D01*
X0547463Y0039630D01*
X0547396Y0039680D01*
X0547326Y0039726D01*
X0547255Y0039769D01*
X0547181Y0039808D01*
X0547106Y0039844D01*
X0547029Y0039876D01*
X0546951Y0039905D01*
X0546872Y0039930D01*
X0546791Y0039951D01*
X0546710Y0039969D01*
X0546627Y0039982D01*
X0546544Y0039992D01*
X0546461Y0039998D01*
X0546378Y0040000D01*
X0544600Y0040000D01*
X0472051Y0213100D02*
X0472095Y0213102D01*
X0472139Y0213107D01*
X0472182Y0213116D01*
X0472224Y0213129D01*
X0472266Y0213145D01*
X0472305Y0213164D01*
X0472343Y0213187D01*
X0472379Y0213213D01*
X0472413Y0213241D01*
X0472444Y0213272D01*
X0472473Y0213306D01*
X0472498Y0213342D01*
X0472521Y0213380D01*
X0472540Y0213420D01*
X0472556Y0213461D01*
X0472051Y0213100D02*
X0472007Y0213102D01*
X0471963Y0213107D01*
X0471920Y0213116D01*
X0471878Y0213129D01*
X0471836Y0213145D01*
X0471797Y0213164D01*
X0471759Y0213187D01*
X0471723Y0213213D01*
X0471689Y0213241D01*
X0471658Y0213272D01*
X0471630Y0213306D01*
X0471604Y0213342D01*
X0471581Y0213380D01*
X0471562Y0213420D01*
X0471546Y0213461D01*
X0471473Y0213678D02*
X0472629Y0215122D01*
X0472556Y0215339D02*
X0472540Y0215380D01*
X0472521Y0215420D01*
X0472498Y0215458D01*
X0472473Y0215494D01*
X0472444Y0215528D01*
X0472413Y0215559D01*
X0472379Y0215587D01*
X0472343Y0215613D01*
X0472305Y0215636D01*
X0472266Y0215655D01*
X0472224Y0215671D01*
X0472182Y0215684D01*
X0472139Y0215693D01*
X0472095Y0215698D01*
X0472051Y0215700D01*
X0472007Y0215698D01*
X0471963Y0215693D01*
X0471920Y0215684D01*
X0471878Y0215671D01*
X0471836Y0215655D01*
X0471797Y0215636D01*
X0471759Y0215613D01*
X0471723Y0215587D01*
X0471689Y0215559D01*
X0471658Y0215528D01*
X0471630Y0215494D01*
X0471604Y0215458D01*
X0471581Y0215420D01*
X0471562Y0215380D01*
X0471546Y0215339D01*
X0472557Y0215339D02*
X0472594Y0215259D01*
X0472628Y0215177D01*
X0472658Y0215094D01*
X0472685Y0215010D01*
X0472709Y0214925D01*
X0472729Y0214839D01*
X0472745Y0214752D01*
X0472758Y0214664D01*
X0472767Y0214577D01*
X0472772Y0214488D01*
X0472774Y0214400D01*
X0471329Y0214400D02*
X0471331Y0214488D01*
X0471336Y0214577D01*
X0471345Y0214664D01*
X0471358Y0214752D01*
X0471374Y0214839D01*
X0471394Y0214925D01*
X0471418Y0215010D01*
X0471445Y0215094D01*
X0471475Y0215177D01*
X0471509Y0215259D01*
X0471546Y0215339D01*
X0472774Y0214400D02*
X0472772Y0214312D01*
X0472767Y0214223D01*
X0472758Y0214136D01*
X0472745Y0214048D01*
X0472729Y0213961D01*
X0472709Y0213875D01*
X0472685Y0213790D01*
X0472658Y0213706D01*
X0472628Y0213623D01*
X0472594Y0213541D01*
X0472557Y0213461D01*
X0471546Y0213461D02*
X0471509Y0213541D01*
X0471475Y0213623D01*
X0471445Y0213706D01*
X0471418Y0213790D01*
X0471394Y0213875D01*
X0471374Y0213961D01*
X0471358Y0214048D01*
X0471345Y0214136D01*
X0471336Y0214223D01*
X0471331Y0214312D01*
X0471329Y0214400D01*
X0469893Y0213100D02*
X0468449Y0213100D01*
X0469171Y0213100D02*
X0469171Y0215700D01*
X0468449Y0215122D01*
X0466322Y0215700D02*
X0466375Y0215698D01*
X0466427Y0215692D01*
X0466479Y0215683D01*
X0466530Y0215669D01*
X0466580Y0215652D01*
X0466628Y0215632D01*
X0466675Y0215608D01*
X0466720Y0215580D01*
X0466763Y0215549D01*
X0466804Y0215516D01*
X0466842Y0215479D01*
X0466877Y0215440D01*
X0466909Y0215398D01*
X0466938Y0215354D01*
X0466964Y0215308D01*
X0466986Y0215260D01*
X0467005Y0215211D01*
X0467021Y0215161D01*
X0467032Y0215109D01*
X0467040Y0215057D01*
X0467044Y0215004D01*
X0467044Y0214952D01*
X0467040Y0214899D01*
X0467032Y0214847D01*
X0467021Y0214795D01*
X0467005Y0214745D01*
X0466986Y0214696D01*
X0466964Y0214648D01*
X0466938Y0214602D01*
X0466909Y0214558D01*
X0466877Y0214516D01*
X0466842Y0214477D01*
X0466804Y0214440D01*
X0466763Y0214407D01*
X0466720Y0214376D01*
X0466675Y0214348D01*
X0466628Y0214324D01*
X0466580Y0214304D01*
X0466530Y0214287D01*
X0466479Y0214273D01*
X0466427Y0214264D01*
X0466375Y0214258D01*
X0466322Y0214256D01*
X0465600Y0214256D01*
X0466467Y0214256D02*
X0467044Y0213100D01*
X0465600Y0213100D02*
X0465600Y0215700D01*
X0466322Y0215700D01*
X0431700Y0225707D02*
X0429100Y0225707D01*
X0429100Y0226429D01*
X0429102Y0226482D01*
X0429108Y0226534D01*
X0429117Y0226586D01*
X0429131Y0226637D01*
X0429148Y0226687D01*
X0429168Y0226735D01*
X0429192Y0226782D01*
X0429220Y0226827D01*
X0429251Y0226870D01*
X0429284Y0226911D01*
X0429321Y0226949D01*
X0429360Y0226984D01*
X0429402Y0227016D01*
X0429446Y0227045D01*
X0429492Y0227071D01*
X0429540Y0227093D01*
X0429589Y0227112D01*
X0429639Y0227128D01*
X0429691Y0227139D01*
X0429743Y0227147D01*
X0429796Y0227151D01*
X0429848Y0227151D01*
X0429901Y0227147D01*
X0429953Y0227139D01*
X0430005Y0227128D01*
X0430055Y0227112D01*
X0430104Y0227093D01*
X0430152Y0227071D01*
X0430198Y0227045D01*
X0430242Y0227016D01*
X0430284Y0226984D01*
X0430323Y0226949D01*
X0430360Y0226911D01*
X0430393Y0226870D01*
X0430424Y0226827D01*
X0430452Y0226782D01*
X0430476Y0226735D01*
X0430496Y0226687D01*
X0430513Y0226637D01*
X0430527Y0226586D01*
X0430536Y0226534D01*
X0430542Y0226482D01*
X0430544Y0226429D01*
X0430544Y0225707D01*
X0430544Y0226573D02*
X0431700Y0227151D01*
X0431700Y0228844D02*
X0431698Y0228911D01*
X0431692Y0228978D01*
X0431682Y0229045D01*
X0431669Y0229111D01*
X0431651Y0229176D01*
X0431630Y0229239D01*
X0431605Y0229302D01*
X0431577Y0229363D01*
X0431545Y0229422D01*
X0431510Y0229479D01*
X0431471Y0229534D01*
X0431430Y0229587D01*
X0431385Y0229637D01*
X0431337Y0229685D01*
X0431287Y0229730D01*
X0431234Y0229771D01*
X0431179Y0229810D01*
X0431122Y0229845D01*
X0431063Y0229877D01*
X0431002Y0229905D01*
X0430939Y0229930D01*
X0430876Y0229951D01*
X0430811Y0229969D01*
X0430745Y0229982D01*
X0430678Y0229992D01*
X0430611Y0229998D01*
X0430544Y0230000D01*
X0429822Y0230000D01*
X0429769Y0229998D01*
X0429717Y0229992D01*
X0429665Y0229983D01*
X0429614Y0229969D01*
X0429564Y0229952D01*
X0429516Y0229932D01*
X0429469Y0229908D01*
X0429424Y0229880D01*
X0429381Y0229849D01*
X0429340Y0229816D01*
X0429302Y0229779D01*
X0429267Y0229740D01*
X0429235Y0229698D01*
X0429206Y0229654D01*
X0429180Y0229608D01*
X0429158Y0229560D01*
X0429139Y0229511D01*
X0429123Y0229461D01*
X0429112Y0229409D01*
X0429104Y0229357D01*
X0429100Y0229304D01*
X0429100Y0229252D01*
X0429104Y0229199D01*
X0429112Y0229147D01*
X0429123Y0229095D01*
X0429139Y0229045D01*
X0429158Y0228996D01*
X0429180Y0228948D01*
X0429206Y0228902D01*
X0429235Y0228858D01*
X0429267Y0228816D01*
X0429302Y0228777D01*
X0429340Y0228740D01*
X0429381Y0228707D01*
X0429424Y0228676D01*
X0429469Y0228648D01*
X0429516Y0228624D01*
X0429564Y0228604D01*
X0429614Y0228587D01*
X0429665Y0228573D01*
X0429717Y0228564D01*
X0429769Y0228558D01*
X0429822Y0228556D01*
X0429967Y0228556D01*
X0429967Y0228555D02*
X0430012Y0228557D01*
X0430057Y0228562D01*
X0430102Y0228571D01*
X0430146Y0228583D01*
X0430188Y0228599D01*
X0430229Y0228618D01*
X0430269Y0228640D01*
X0430307Y0228665D01*
X0430342Y0228693D01*
X0430376Y0228724D01*
X0430407Y0228758D01*
X0430435Y0228793D01*
X0430460Y0228831D01*
X0430482Y0228871D01*
X0430501Y0228912D01*
X0430517Y0228954D01*
X0430529Y0228998D01*
X0430538Y0229043D01*
X0430543Y0229088D01*
X0430545Y0229133D01*
X0430544Y0229133D02*
X0430544Y0230000D01*
X0403700Y0230000D02*
X0403700Y0228556D01*
X0402256Y0229783D01*
X0401100Y0229350D02*
X0401102Y0229295D01*
X0401107Y0229240D01*
X0401116Y0229185D01*
X0401129Y0229132D01*
X0401145Y0229079D01*
X0401165Y0229027D01*
X0401188Y0228977D01*
X0401214Y0228928D01*
X0401244Y0228881D01*
X0401276Y0228837D01*
X0401312Y0228794D01*
X0401350Y0228754D01*
X0401391Y0228717D01*
X0401434Y0228682D01*
X0401479Y0228651D01*
X0401526Y0228622D01*
X0401575Y0228597D01*
X0401626Y0228574D01*
X0401678Y0228556D01*
X0402255Y0229783D02*
X0402219Y0229819D01*
X0402179Y0229852D01*
X0402138Y0229882D01*
X0402094Y0229909D01*
X0402048Y0229933D01*
X0402001Y0229953D01*
X0401953Y0229970D01*
X0401903Y0229983D01*
X0401852Y0229992D01*
X0401801Y0229998D01*
X0401750Y0230000D01*
X0401701Y0229998D01*
X0401653Y0229993D01*
X0401605Y0229984D01*
X0401558Y0229971D01*
X0401513Y0229955D01*
X0401468Y0229936D01*
X0401425Y0229913D01*
X0401384Y0229887D01*
X0401345Y0229858D01*
X0401308Y0229826D01*
X0401274Y0229792D01*
X0401242Y0229755D01*
X0401213Y0229716D01*
X0401187Y0229675D01*
X0401164Y0229632D01*
X0401145Y0229587D01*
X0401129Y0229542D01*
X0401116Y0229495D01*
X0401107Y0229447D01*
X0401102Y0229399D01*
X0401100Y0229350D01*
X0401100Y0227297D02*
X0401100Y0226719D01*
X0401102Y0226671D01*
X0401108Y0226624D01*
X0401118Y0226577D01*
X0401131Y0226531D01*
X0401149Y0226487D01*
X0401170Y0226444D01*
X0401194Y0226403D01*
X0401222Y0226364D01*
X0401253Y0226328D01*
X0401287Y0226294D01*
X0401323Y0226263D01*
X0401362Y0226235D01*
X0401403Y0226211D01*
X0401446Y0226190D01*
X0401490Y0226172D01*
X0401536Y0226159D01*
X0401583Y0226149D01*
X0401630Y0226143D01*
X0401678Y0226141D01*
X0401678Y0226142D02*
X0403122Y0226142D01*
X0403122Y0226141D02*
X0403170Y0226143D01*
X0403217Y0226149D01*
X0403264Y0226159D01*
X0403310Y0226172D01*
X0403354Y0226190D01*
X0403397Y0226211D01*
X0403438Y0226235D01*
X0403477Y0226263D01*
X0403513Y0226294D01*
X0403547Y0226328D01*
X0403578Y0226364D01*
X0403606Y0226403D01*
X0403630Y0226444D01*
X0403651Y0226487D01*
X0403669Y0226531D01*
X0403682Y0226577D01*
X0403692Y0226624D01*
X0403698Y0226671D01*
X0403700Y0226719D01*
X0403700Y0227297D01*
X0378700Y0227297D02*
X0378700Y0226719D01*
X0378698Y0226671D01*
X0378692Y0226624D01*
X0378682Y0226577D01*
X0378669Y0226531D01*
X0378651Y0226487D01*
X0378630Y0226444D01*
X0378606Y0226403D01*
X0378578Y0226364D01*
X0378547Y0226328D01*
X0378513Y0226294D01*
X0378477Y0226263D01*
X0378438Y0226235D01*
X0378397Y0226211D01*
X0378354Y0226190D01*
X0378310Y0226172D01*
X0378264Y0226159D01*
X0378217Y0226149D01*
X0378170Y0226143D01*
X0378122Y0226141D01*
X0378122Y0226142D02*
X0376678Y0226142D01*
X0376678Y0226141D02*
X0376630Y0226143D01*
X0376583Y0226149D01*
X0376536Y0226159D01*
X0376490Y0226172D01*
X0376446Y0226190D01*
X0376403Y0226211D01*
X0376362Y0226235D01*
X0376323Y0226263D01*
X0376287Y0226294D01*
X0376253Y0226328D01*
X0376222Y0226364D01*
X0376194Y0226403D01*
X0376170Y0226444D01*
X0376149Y0226487D01*
X0376131Y0226531D01*
X0376118Y0226577D01*
X0376108Y0226624D01*
X0376102Y0226671D01*
X0376100Y0226719D01*
X0376100Y0227297D01*
X0376678Y0228556D02*
X0376100Y0229278D01*
X0378700Y0229278D01*
X0378700Y0228556D02*
X0378700Y0230000D01*
X0475900Y0268678D02*
X0475900Y0269256D01*
X0475900Y0268678D02*
X0475902Y0268630D01*
X0475908Y0268583D01*
X0475918Y0268536D01*
X0475931Y0268490D01*
X0475949Y0268446D01*
X0475970Y0268403D01*
X0475994Y0268362D01*
X0476022Y0268323D01*
X0476053Y0268287D01*
X0476087Y0268253D01*
X0476123Y0268222D01*
X0476162Y0268194D01*
X0476203Y0268170D01*
X0476246Y0268149D01*
X0476290Y0268131D01*
X0476336Y0268118D01*
X0476383Y0268108D01*
X0476430Y0268102D01*
X0476478Y0268100D01*
X0477922Y0268100D01*
X0477970Y0268102D01*
X0478017Y0268108D01*
X0478064Y0268118D01*
X0478110Y0268131D01*
X0478154Y0268149D01*
X0478197Y0268170D01*
X0478238Y0268194D01*
X0478277Y0268222D01*
X0478313Y0268253D01*
X0478347Y0268287D01*
X0478378Y0268323D01*
X0478406Y0268362D01*
X0478430Y0268403D01*
X0478451Y0268446D01*
X0478469Y0268490D01*
X0478482Y0268536D01*
X0478492Y0268583D01*
X0478498Y0268630D01*
X0478500Y0268678D01*
X0478500Y0269256D01*
X0478500Y0270514D02*
X0478500Y0271236D01*
X0478498Y0271289D01*
X0478492Y0271341D01*
X0478483Y0271393D01*
X0478469Y0271444D01*
X0478452Y0271494D01*
X0478432Y0271542D01*
X0478408Y0271589D01*
X0478380Y0271634D01*
X0478349Y0271677D01*
X0478316Y0271718D01*
X0478279Y0271756D01*
X0478240Y0271791D01*
X0478198Y0271823D01*
X0478154Y0271852D01*
X0478108Y0271878D01*
X0478060Y0271900D01*
X0478011Y0271919D01*
X0477961Y0271935D01*
X0477909Y0271946D01*
X0477857Y0271954D01*
X0477804Y0271958D01*
X0477752Y0271958D01*
X0477699Y0271954D01*
X0477647Y0271946D01*
X0477595Y0271935D01*
X0477545Y0271919D01*
X0477496Y0271900D01*
X0477448Y0271878D01*
X0477402Y0271852D01*
X0477358Y0271823D01*
X0477316Y0271791D01*
X0477277Y0271756D01*
X0477240Y0271718D01*
X0477207Y0271677D01*
X0477176Y0271634D01*
X0477148Y0271589D01*
X0477124Y0271542D01*
X0477104Y0271494D01*
X0477087Y0271444D01*
X0477073Y0271393D01*
X0477064Y0271341D01*
X0477058Y0271289D01*
X0477056Y0271236D01*
X0477056Y0271381D02*
X0477056Y0270803D01*
X0477056Y0271381D02*
X0477054Y0271428D01*
X0477049Y0271474D01*
X0477039Y0271519D01*
X0477026Y0271564D01*
X0477010Y0271608D01*
X0476990Y0271650D01*
X0476967Y0271690D01*
X0476940Y0271728D01*
X0476911Y0271764D01*
X0476878Y0271798D01*
X0476844Y0271829D01*
X0476806Y0271857D01*
X0476767Y0271882D01*
X0476726Y0271903D01*
X0476683Y0271921D01*
X0476639Y0271936D01*
X0476594Y0271947D01*
X0476548Y0271955D01*
X0476501Y0271959D01*
X0476455Y0271959D01*
X0476408Y0271955D01*
X0476362Y0271947D01*
X0476317Y0271936D01*
X0476273Y0271921D01*
X0476230Y0271903D01*
X0476189Y0271882D01*
X0476150Y0271857D01*
X0476112Y0271829D01*
X0476078Y0271798D01*
X0476045Y0271764D01*
X0476016Y0271728D01*
X0475989Y0271690D01*
X0475966Y0271650D01*
X0475946Y0271608D01*
X0475930Y0271564D01*
X0475917Y0271519D01*
X0475907Y0271474D01*
X0475902Y0271428D01*
X0475900Y0271381D01*
X0475900Y0270514D01*
X0498207Y0276900D02*
X0498207Y0279500D01*
X0498929Y0279500D01*
X0498982Y0279498D01*
X0499034Y0279492D01*
X0499086Y0279483D01*
X0499137Y0279469D01*
X0499187Y0279452D01*
X0499235Y0279432D01*
X0499282Y0279408D01*
X0499327Y0279380D01*
X0499370Y0279349D01*
X0499411Y0279316D01*
X0499449Y0279279D01*
X0499484Y0279240D01*
X0499516Y0279198D01*
X0499545Y0279154D01*
X0499571Y0279108D01*
X0499593Y0279060D01*
X0499612Y0279011D01*
X0499628Y0278961D01*
X0499639Y0278909D01*
X0499647Y0278857D01*
X0499651Y0278804D01*
X0499651Y0278752D01*
X0499647Y0278699D01*
X0499639Y0278647D01*
X0499628Y0278595D01*
X0499612Y0278545D01*
X0499593Y0278496D01*
X0499571Y0278448D01*
X0499545Y0278402D01*
X0499516Y0278358D01*
X0499484Y0278316D01*
X0499449Y0278277D01*
X0499411Y0278240D01*
X0499370Y0278207D01*
X0499327Y0278176D01*
X0499282Y0278148D01*
X0499235Y0278124D01*
X0499187Y0278104D01*
X0499137Y0278087D01*
X0499086Y0278073D01*
X0499034Y0278064D01*
X0498982Y0278058D01*
X0498929Y0278056D01*
X0498207Y0278056D01*
X0499073Y0278056D02*
X0499651Y0276900D01*
X0501778Y0276900D02*
X0502500Y0279500D01*
X0501056Y0279500D01*
X0501056Y0279211D01*
X0477700Y0303707D02*
X0475100Y0303707D01*
X0475100Y0304429D01*
X0475102Y0304482D01*
X0475108Y0304534D01*
X0475117Y0304586D01*
X0475131Y0304637D01*
X0475148Y0304687D01*
X0475168Y0304735D01*
X0475192Y0304782D01*
X0475220Y0304827D01*
X0475251Y0304870D01*
X0475284Y0304911D01*
X0475321Y0304949D01*
X0475360Y0304984D01*
X0475402Y0305016D01*
X0475446Y0305045D01*
X0475492Y0305071D01*
X0475540Y0305093D01*
X0475589Y0305112D01*
X0475639Y0305128D01*
X0475691Y0305139D01*
X0475743Y0305147D01*
X0475796Y0305151D01*
X0475848Y0305151D01*
X0475901Y0305147D01*
X0475953Y0305139D01*
X0476005Y0305128D01*
X0476055Y0305112D01*
X0476104Y0305093D01*
X0476152Y0305071D01*
X0476198Y0305045D01*
X0476242Y0305016D01*
X0476284Y0304984D01*
X0476323Y0304949D01*
X0476360Y0304911D01*
X0476393Y0304870D01*
X0476424Y0304827D01*
X0476452Y0304782D01*
X0476476Y0304735D01*
X0476496Y0304687D01*
X0476513Y0304637D01*
X0476527Y0304586D01*
X0476536Y0304534D01*
X0476542Y0304482D01*
X0476544Y0304429D01*
X0476544Y0303707D01*
X0476544Y0304573D02*
X0477700Y0305151D01*
X0477700Y0306556D02*
X0477700Y0307422D01*
X0477698Y0307470D01*
X0477692Y0307517D01*
X0477682Y0307564D01*
X0477669Y0307610D01*
X0477651Y0307654D01*
X0477630Y0307697D01*
X0477606Y0307738D01*
X0477578Y0307777D01*
X0477547Y0307813D01*
X0477513Y0307847D01*
X0477477Y0307878D01*
X0477438Y0307906D01*
X0477397Y0307930D01*
X0477354Y0307951D01*
X0477310Y0307969D01*
X0477264Y0307982D01*
X0477217Y0307992D01*
X0477170Y0307998D01*
X0477122Y0308000D01*
X0476833Y0308000D01*
X0476788Y0307998D01*
X0476743Y0307993D01*
X0476698Y0307984D01*
X0476654Y0307972D01*
X0476612Y0307956D01*
X0476571Y0307937D01*
X0476531Y0307915D01*
X0476493Y0307890D01*
X0476458Y0307862D01*
X0476424Y0307831D01*
X0476393Y0307797D01*
X0476365Y0307762D01*
X0476340Y0307724D01*
X0476318Y0307684D01*
X0476299Y0307643D01*
X0476283Y0307601D01*
X0476271Y0307557D01*
X0476262Y0307512D01*
X0476257Y0307467D01*
X0476255Y0307422D01*
X0476256Y0307422D02*
X0476256Y0306556D01*
X0475100Y0306556D01*
X0475100Y0308000D01*
X0463700Y0305151D02*
X0462544Y0304573D01*
X0462544Y0304429D02*
X0462544Y0303707D01*
X0462544Y0304429D02*
X0462542Y0304482D01*
X0462536Y0304534D01*
X0462527Y0304586D01*
X0462513Y0304637D01*
X0462496Y0304687D01*
X0462476Y0304735D01*
X0462452Y0304782D01*
X0462424Y0304827D01*
X0462393Y0304870D01*
X0462360Y0304911D01*
X0462323Y0304949D01*
X0462284Y0304984D01*
X0462242Y0305016D01*
X0462198Y0305045D01*
X0462152Y0305071D01*
X0462104Y0305093D01*
X0462055Y0305112D01*
X0462005Y0305128D01*
X0461953Y0305139D01*
X0461901Y0305147D01*
X0461848Y0305151D01*
X0461796Y0305151D01*
X0461743Y0305147D01*
X0461691Y0305139D01*
X0461639Y0305128D01*
X0461589Y0305112D01*
X0461540Y0305093D01*
X0461492Y0305071D01*
X0461446Y0305045D01*
X0461402Y0305016D01*
X0461360Y0304984D01*
X0461321Y0304949D01*
X0461284Y0304911D01*
X0461251Y0304870D01*
X0461220Y0304827D01*
X0461192Y0304782D01*
X0461168Y0304735D01*
X0461148Y0304687D01*
X0461131Y0304637D01*
X0461117Y0304586D01*
X0461108Y0304534D01*
X0461102Y0304482D01*
X0461100Y0304429D01*
X0461100Y0303707D01*
X0463700Y0303707D01*
X0462978Y0306556D02*
X0462256Y0306556D01*
X0462256Y0307422D01*
X0462256Y0306555D02*
X0462189Y0306557D01*
X0462122Y0306563D01*
X0462055Y0306573D01*
X0461989Y0306586D01*
X0461924Y0306604D01*
X0461861Y0306625D01*
X0461798Y0306650D01*
X0461737Y0306678D01*
X0461678Y0306710D01*
X0461621Y0306745D01*
X0461566Y0306784D01*
X0461513Y0306825D01*
X0461463Y0306870D01*
X0461415Y0306918D01*
X0461370Y0306968D01*
X0461329Y0307021D01*
X0461290Y0307076D01*
X0461255Y0307133D01*
X0461223Y0307192D01*
X0461195Y0307253D01*
X0461170Y0307316D01*
X0461149Y0307379D01*
X0461131Y0307444D01*
X0461118Y0307510D01*
X0461108Y0307577D01*
X0461102Y0307644D01*
X0461100Y0307711D01*
X0462255Y0307422D02*
X0462257Y0307467D01*
X0462262Y0307512D01*
X0462271Y0307557D01*
X0462283Y0307601D01*
X0462299Y0307643D01*
X0462318Y0307684D01*
X0462340Y0307724D01*
X0462365Y0307762D01*
X0462393Y0307797D01*
X0462424Y0307831D01*
X0462458Y0307862D01*
X0462493Y0307890D01*
X0462531Y0307915D01*
X0462571Y0307937D01*
X0462612Y0307956D01*
X0462654Y0307972D01*
X0462698Y0307984D01*
X0462743Y0307993D01*
X0462788Y0307998D01*
X0462833Y0308000D01*
X0462978Y0308000D01*
X0463031Y0307998D01*
X0463083Y0307992D01*
X0463135Y0307983D01*
X0463186Y0307969D01*
X0463236Y0307952D01*
X0463284Y0307932D01*
X0463331Y0307908D01*
X0463376Y0307880D01*
X0463419Y0307849D01*
X0463460Y0307816D01*
X0463498Y0307779D01*
X0463533Y0307740D01*
X0463565Y0307698D01*
X0463594Y0307654D01*
X0463620Y0307608D01*
X0463642Y0307560D01*
X0463661Y0307511D01*
X0463677Y0307461D01*
X0463688Y0307409D01*
X0463696Y0307357D01*
X0463700Y0307304D01*
X0463700Y0307252D01*
X0463696Y0307199D01*
X0463688Y0307147D01*
X0463677Y0307095D01*
X0463661Y0307045D01*
X0463642Y0306996D01*
X0463620Y0306948D01*
X0463594Y0306902D01*
X0463565Y0306858D01*
X0463533Y0306816D01*
X0463498Y0306777D01*
X0463460Y0306740D01*
X0463419Y0306707D01*
X0463376Y0306676D01*
X0463331Y0306648D01*
X0463284Y0306624D01*
X0463236Y0306604D01*
X0463186Y0306587D01*
X0463135Y0306573D01*
X0463083Y0306564D01*
X0463031Y0306558D01*
X0462978Y0306556D01*
X0466178Y0329100D02*
X0466756Y0329100D01*
X0466178Y0329100D02*
X0466133Y0329102D01*
X0466088Y0329107D01*
X0466043Y0329116D01*
X0465999Y0329128D01*
X0465957Y0329144D01*
X0465916Y0329163D01*
X0465876Y0329185D01*
X0465838Y0329210D01*
X0465803Y0329238D01*
X0465769Y0329269D01*
X0465738Y0329303D01*
X0465710Y0329338D01*
X0465685Y0329376D01*
X0465663Y0329416D01*
X0465644Y0329457D01*
X0465628Y0329499D01*
X0465616Y0329543D01*
X0465607Y0329588D01*
X0465602Y0329633D01*
X0465600Y0329678D01*
X0465600Y0331122D01*
X0465602Y0331170D01*
X0465608Y0331217D01*
X0465618Y0331264D01*
X0465631Y0331310D01*
X0465649Y0331354D01*
X0465670Y0331397D01*
X0465694Y0331438D01*
X0465722Y0331477D01*
X0465753Y0331513D01*
X0465787Y0331547D01*
X0465823Y0331578D01*
X0465862Y0331606D01*
X0465903Y0331630D01*
X0465946Y0331651D01*
X0465990Y0331669D01*
X0466036Y0331682D01*
X0466083Y0331692D01*
X0466130Y0331698D01*
X0466178Y0331700D01*
X0466756Y0331700D01*
X0468592Y0331700D02*
X0468014Y0329678D01*
X0469458Y0329678D01*
X0469025Y0330256D02*
X0469025Y0329100D01*
X0465922Y0348600D02*
X0464478Y0348600D01*
X0464430Y0348602D01*
X0464383Y0348608D01*
X0464336Y0348618D01*
X0464290Y0348631D01*
X0464246Y0348649D01*
X0464203Y0348670D01*
X0464162Y0348694D01*
X0464123Y0348722D01*
X0464087Y0348753D01*
X0464053Y0348787D01*
X0464022Y0348823D01*
X0463994Y0348862D01*
X0463970Y0348903D01*
X0463949Y0348946D01*
X0463931Y0348990D01*
X0463918Y0349036D01*
X0463908Y0349083D01*
X0463902Y0349130D01*
X0463900Y0349178D01*
X0463900Y0349756D01*
X0464478Y0351158D02*
X0464525Y0351160D01*
X0464571Y0351165D01*
X0464616Y0351175D01*
X0464661Y0351188D01*
X0464705Y0351204D01*
X0464747Y0351224D01*
X0464787Y0351247D01*
X0464825Y0351274D01*
X0464861Y0351303D01*
X0464895Y0351336D01*
X0464926Y0351370D01*
X0464954Y0351408D01*
X0464979Y0351447D01*
X0465000Y0351488D01*
X0465018Y0351531D01*
X0465033Y0351575D01*
X0465044Y0351620D01*
X0465052Y0351666D01*
X0465056Y0351713D01*
X0465056Y0351759D01*
X0465052Y0351806D01*
X0465044Y0351852D01*
X0465033Y0351897D01*
X0465018Y0351941D01*
X0465000Y0351984D01*
X0464979Y0352025D01*
X0464954Y0352064D01*
X0464926Y0352102D01*
X0464895Y0352136D01*
X0464861Y0352169D01*
X0464825Y0352198D01*
X0464787Y0352225D01*
X0464747Y0352248D01*
X0464705Y0352268D01*
X0464661Y0352284D01*
X0464616Y0352297D01*
X0464571Y0352307D01*
X0464525Y0352312D01*
X0464478Y0352314D01*
X0464431Y0352312D01*
X0464385Y0352307D01*
X0464340Y0352297D01*
X0464295Y0352284D01*
X0464251Y0352268D01*
X0464209Y0352248D01*
X0464169Y0352225D01*
X0464131Y0352198D01*
X0464095Y0352169D01*
X0464061Y0352136D01*
X0464030Y0352102D01*
X0464002Y0352064D01*
X0463977Y0352025D01*
X0463956Y0351984D01*
X0463938Y0351941D01*
X0463923Y0351897D01*
X0463912Y0351852D01*
X0463904Y0351806D01*
X0463900Y0351759D01*
X0463900Y0351713D01*
X0463904Y0351666D01*
X0463912Y0351620D01*
X0463923Y0351575D01*
X0463938Y0351531D01*
X0463956Y0351488D01*
X0463977Y0351447D01*
X0464002Y0351408D01*
X0464030Y0351370D01*
X0464061Y0351336D01*
X0464095Y0351303D01*
X0464131Y0351274D01*
X0464169Y0351247D01*
X0464209Y0351224D01*
X0464251Y0351204D01*
X0464295Y0351188D01*
X0464340Y0351175D01*
X0464385Y0351165D01*
X0464431Y0351160D01*
X0464478Y0351158D01*
X0465778Y0351014D02*
X0465831Y0351016D01*
X0465883Y0351022D01*
X0465935Y0351031D01*
X0465986Y0351045D01*
X0466036Y0351062D01*
X0466084Y0351082D01*
X0466131Y0351106D01*
X0466176Y0351134D01*
X0466219Y0351165D01*
X0466260Y0351198D01*
X0466298Y0351235D01*
X0466333Y0351274D01*
X0466365Y0351316D01*
X0466394Y0351360D01*
X0466420Y0351406D01*
X0466442Y0351454D01*
X0466461Y0351503D01*
X0466477Y0351553D01*
X0466488Y0351605D01*
X0466496Y0351657D01*
X0466500Y0351710D01*
X0466500Y0351762D01*
X0466496Y0351815D01*
X0466488Y0351867D01*
X0466477Y0351919D01*
X0466461Y0351969D01*
X0466442Y0352018D01*
X0466420Y0352066D01*
X0466394Y0352112D01*
X0466365Y0352156D01*
X0466333Y0352198D01*
X0466298Y0352237D01*
X0466260Y0352274D01*
X0466219Y0352307D01*
X0466176Y0352338D01*
X0466131Y0352366D01*
X0466084Y0352390D01*
X0466036Y0352410D01*
X0465986Y0352427D01*
X0465935Y0352441D01*
X0465883Y0352450D01*
X0465831Y0352456D01*
X0465778Y0352458D01*
X0465725Y0352456D01*
X0465673Y0352450D01*
X0465621Y0352441D01*
X0465570Y0352427D01*
X0465520Y0352410D01*
X0465472Y0352390D01*
X0465425Y0352366D01*
X0465380Y0352338D01*
X0465337Y0352307D01*
X0465296Y0352274D01*
X0465258Y0352237D01*
X0465223Y0352198D01*
X0465191Y0352156D01*
X0465162Y0352112D01*
X0465136Y0352066D01*
X0465114Y0352018D01*
X0465095Y0351969D01*
X0465079Y0351919D01*
X0465068Y0351867D01*
X0465060Y0351815D01*
X0465056Y0351762D01*
X0465056Y0351710D01*
X0465060Y0351657D01*
X0465068Y0351605D01*
X0465079Y0351553D01*
X0465095Y0351503D01*
X0465114Y0351454D01*
X0465136Y0351406D01*
X0465162Y0351360D01*
X0465191Y0351316D01*
X0465223Y0351274D01*
X0465258Y0351235D01*
X0465296Y0351198D01*
X0465337Y0351165D01*
X0465380Y0351134D01*
X0465425Y0351106D01*
X0465472Y0351082D01*
X0465520Y0351062D01*
X0465570Y0351045D01*
X0465621Y0351031D01*
X0465673Y0351022D01*
X0465725Y0351016D01*
X0465778Y0351014D01*
X0466500Y0349756D02*
X0466500Y0349178D01*
X0466498Y0349130D01*
X0466492Y0349083D01*
X0466482Y0349036D01*
X0466469Y0348990D01*
X0466451Y0348946D01*
X0466430Y0348903D01*
X0466406Y0348862D01*
X0466378Y0348823D01*
X0466347Y0348787D01*
X0466313Y0348753D01*
X0466277Y0348722D01*
X0466238Y0348694D01*
X0466197Y0348670D01*
X0466154Y0348649D01*
X0466110Y0348631D01*
X0466064Y0348618D01*
X0466017Y0348608D01*
X0465970Y0348602D01*
X0465922Y0348600D01*
X0488900Y0349178D02*
X0488900Y0349756D01*
X0488900Y0349178D02*
X0488902Y0349130D01*
X0488908Y0349083D01*
X0488918Y0349036D01*
X0488931Y0348990D01*
X0488949Y0348946D01*
X0488970Y0348903D01*
X0488994Y0348862D01*
X0489022Y0348823D01*
X0489053Y0348787D01*
X0489087Y0348753D01*
X0489123Y0348722D01*
X0489162Y0348694D01*
X0489203Y0348670D01*
X0489246Y0348649D01*
X0489290Y0348631D01*
X0489336Y0348618D01*
X0489383Y0348608D01*
X0489430Y0348602D01*
X0489478Y0348600D01*
X0490922Y0348600D01*
X0490970Y0348602D01*
X0491017Y0348608D01*
X0491064Y0348618D01*
X0491110Y0348631D01*
X0491154Y0348649D01*
X0491197Y0348670D01*
X0491238Y0348694D01*
X0491277Y0348722D01*
X0491313Y0348753D01*
X0491347Y0348787D01*
X0491378Y0348823D01*
X0491406Y0348862D01*
X0491430Y0348903D01*
X0491451Y0348946D01*
X0491469Y0348990D01*
X0491482Y0349036D01*
X0491492Y0349083D01*
X0491498Y0349130D01*
X0491500Y0349178D01*
X0491500Y0349756D01*
X0491500Y0351014D02*
X0491500Y0351881D01*
X0491498Y0351929D01*
X0491492Y0351976D01*
X0491482Y0352023D01*
X0491469Y0352069D01*
X0491451Y0352113D01*
X0491430Y0352156D01*
X0491406Y0352197D01*
X0491378Y0352236D01*
X0491347Y0352272D01*
X0491313Y0352306D01*
X0491277Y0352337D01*
X0491238Y0352365D01*
X0491197Y0352389D01*
X0491154Y0352410D01*
X0491110Y0352428D01*
X0491064Y0352441D01*
X0491017Y0352451D01*
X0490970Y0352457D01*
X0490922Y0352459D01*
X0490922Y0352458D02*
X0490633Y0352458D01*
X0490633Y0352459D02*
X0490588Y0352457D01*
X0490543Y0352452D01*
X0490498Y0352443D01*
X0490454Y0352431D01*
X0490412Y0352415D01*
X0490371Y0352396D01*
X0490331Y0352374D01*
X0490293Y0352349D01*
X0490258Y0352321D01*
X0490224Y0352290D01*
X0490193Y0352256D01*
X0490165Y0352221D01*
X0490140Y0352183D01*
X0490118Y0352143D01*
X0490099Y0352102D01*
X0490083Y0352060D01*
X0490071Y0352016D01*
X0490062Y0351971D01*
X0490057Y0351926D01*
X0490055Y0351881D01*
X0490056Y0351881D02*
X0490056Y0351014D01*
X0488900Y0351014D01*
X0488900Y0352458D01*
X0513900Y0349756D02*
X0513900Y0349178D01*
X0513902Y0349130D01*
X0513908Y0349083D01*
X0513918Y0349036D01*
X0513931Y0348990D01*
X0513949Y0348946D01*
X0513970Y0348903D01*
X0513994Y0348862D01*
X0514022Y0348823D01*
X0514053Y0348787D01*
X0514087Y0348753D01*
X0514123Y0348722D01*
X0514162Y0348694D01*
X0514203Y0348670D01*
X0514246Y0348649D01*
X0514290Y0348631D01*
X0514336Y0348618D01*
X0514383Y0348608D01*
X0514430Y0348602D01*
X0514478Y0348600D01*
X0515922Y0348600D01*
X0515970Y0348602D01*
X0516017Y0348608D01*
X0516064Y0348618D01*
X0516110Y0348631D01*
X0516154Y0348649D01*
X0516197Y0348670D01*
X0516238Y0348694D01*
X0516277Y0348722D01*
X0516313Y0348753D01*
X0516347Y0348787D01*
X0516378Y0348823D01*
X0516406Y0348862D01*
X0516430Y0348903D01*
X0516451Y0348946D01*
X0516469Y0348990D01*
X0516482Y0349036D01*
X0516492Y0349083D01*
X0516498Y0349130D01*
X0516500Y0349178D01*
X0516500Y0349756D01*
X0515778Y0351014D02*
X0515056Y0351014D01*
X0515056Y0351881D01*
X0515056Y0351014D02*
X0514989Y0351016D01*
X0514922Y0351022D01*
X0514855Y0351032D01*
X0514789Y0351045D01*
X0514724Y0351063D01*
X0514661Y0351084D01*
X0514598Y0351109D01*
X0514537Y0351137D01*
X0514478Y0351169D01*
X0514421Y0351204D01*
X0514366Y0351243D01*
X0514313Y0351284D01*
X0514263Y0351329D01*
X0514215Y0351377D01*
X0514170Y0351427D01*
X0514129Y0351480D01*
X0514090Y0351535D01*
X0514055Y0351592D01*
X0514023Y0351651D01*
X0513995Y0351712D01*
X0513970Y0351775D01*
X0513949Y0351838D01*
X0513931Y0351903D01*
X0513918Y0351969D01*
X0513908Y0352036D01*
X0513902Y0352103D01*
X0513900Y0352170D01*
X0515633Y0352458D02*
X0515778Y0352458D01*
X0515633Y0352459D02*
X0515588Y0352457D01*
X0515543Y0352452D01*
X0515498Y0352443D01*
X0515454Y0352431D01*
X0515412Y0352415D01*
X0515371Y0352396D01*
X0515331Y0352374D01*
X0515293Y0352349D01*
X0515258Y0352321D01*
X0515224Y0352290D01*
X0515193Y0352256D01*
X0515165Y0352221D01*
X0515140Y0352183D01*
X0515118Y0352143D01*
X0515099Y0352102D01*
X0515083Y0352060D01*
X0515071Y0352016D01*
X0515062Y0351971D01*
X0515057Y0351926D01*
X0515055Y0351881D01*
X0515778Y0352458D02*
X0515831Y0352456D01*
X0515883Y0352450D01*
X0515935Y0352441D01*
X0515986Y0352427D01*
X0516036Y0352410D01*
X0516084Y0352390D01*
X0516131Y0352366D01*
X0516176Y0352338D01*
X0516219Y0352307D01*
X0516260Y0352274D01*
X0516298Y0352237D01*
X0516333Y0352198D01*
X0516365Y0352156D01*
X0516394Y0352112D01*
X0516420Y0352066D01*
X0516442Y0352018D01*
X0516461Y0351969D01*
X0516477Y0351919D01*
X0516488Y0351867D01*
X0516496Y0351815D01*
X0516500Y0351762D01*
X0516500Y0351710D01*
X0516496Y0351657D01*
X0516488Y0351605D01*
X0516477Y0351553D01*
X0516461Y0351503D01*
X0516442Y0351454D01*
X0516420Y0351406D01*
X0516394Y0351360D01*
X0516365Y0351316D01*
X0516333Y0351274D01*
X0516298Y0351235D01*
X0516260Y0351198D01*
X0516219Y0351165D01*
X0516176Y0351134D01*
X0516131Y0351106D01*
X0516084Y0351082D01*
X0516036Y0351062D01*
X0515986Y0351045D01*
X0515935Y0351031D01*
X0515883Y0351022D01*
X0515831Y0351016D01*
X0515778Y0351014D01*
X0538900Y0351014D02*
X0538900Y0352458D01*
X0541500Y0351736D01*
X0541500Y0349756D02*
X0541500Y0349178D01*
X0541498Y0349130D01*
X0541492Y0349083D01*
X0541482Y0349036D01*
X0541469Y0348990D01*
X0541451Y0348946D01*
X0541430Y0348903D01*
X0541406Y0348862D01*
X0541378Y0348823D01*
X0541347Y0348787D01*
X0541313Y0348753D01*
X0541277Y0348722D01*
X0541238Y0348694D01*
X0541197Y0348670D01*
X0541154Y0348649D01*
X0541110Y0348631D01*
X0541064Y0348618D01*
X0541017Y0348608D01*
X0540970Y0348602D01*
X0540922Y0348600D01*
X0539478Y0348600D01*
X0539430Y0348602D01*
X0539383Y0348608D01*
X0539336Y0348618D01*
X0539290Y0348631D01*
X0539246Y0348649D01*
X0539203Y0348670D01*
X0539162Y0348694D01*
X0539123Y0348722D01*
X0539087Y0348753D01*
X0539053Y0348787D01*
X0539022Y0348823D01*
X0538994Y0348862D01*
X0538970Y0348903D01*
X0538949Y0348946D01*
X0538931Y0348990D01*
X0538918Y0349036D01*
X0538908Y0349083D01*
X0538902Y0349130D01*
X0538900Y0349178D01*
X0538900Y0349756D01*
X0538900Y0351014D02*
X0539189Y0351014D01*
X0568600Y0342278D02*
X0571200Y0342278D01*
X0571200Y0341556D02*
X0571200Y0343000D01*
X0569178Y0341556D02*
X0568600Y0342278D01*
X0569322Y0340024D02*
X0570478Y0340024D01*
X0570530Y0340022D01*
X0570581Y0340017D01*
X0570631Y0340008D01*
X0570681Y0339995D01*
X0570730Y0339978D01*
X0570778Y0339959D01*
X0570824Y0339936D01*
X0570868Y0339909D01*
X0570911Y0339880D01*
X0570951Y0339848D01*
X0570989Y0339813D01*
X0571024Y0339775D01*
X0571056Y0339735D01*
X0571085Y0339692D01*
X0571112Y0339648D01*
X0571135Y0339602D01*
X0571154Y0339554D01*
X0571171Y0339505D01*
X0571184Y0339455D01*
X0571193Y0339405D01*
X0571198Y0339354D01*
X0571200Y0339302D01*
X0571200Y0338580D01*
X0568600Y0338580D01*
X0568600Y0339302D01*
X0568602Y0339354D01*
X0568607Y0339405D01*
X0568617Y0339455D01*
X0568629Y0339505D01*
X0568646Y0339554D01*
X0568665Y0339602D01*
X0568688Y0339648D01*
X0568715Y0339692D01*
X0568744Y0339735D01*
X0568776Y0339775D01*
X0568811Y0339813D01*
X0568849Y0339848D01*
X0568889Y0339880D01*
X0568932Y0339909D01*
X0568976Y0339936D01*
X0569022Y0339959D01*
X0569070Y0339978D01*
X0569119Y0339995D01*
X0569169Y0340008D01*
X0569219Y0340017D01*
X0569271Y0340022D01*
X0569322Y0340024D01*
X0576022Y0344671D02*
X0576578Y0344671D01*
X0576300Y0344300D02*
X0574800Y0346300D01*
X0577800Y0346300D01*
X0576300Y0344300D01*
X0575573Y0345269D02*
X0577027Y0345269D01*
X0577476Y0345868D02*
X0575124Y0345868D01*
X0581678Y0307856D02*
X0581725Y0307854D01*
X0581771Y0307849D01*
X0581816Y0307839D01*
X0581861Y0307826D01*
X0581905Y0307810D01*
X0581947Y0307790D01*
X0581987Y0307767D01*
X0582025Y0307740D01*
X0582061Y0307711D01*
X0582095Y0307678D01*
X0582126Y0307644D01*
X0582154Y0307606D01*
X0582179Y0307567D01*
X0582200Y0307526D01*
X0582218Y0307483D01*
X0582233Y0307439D01*
X0582244Y0307394D01*
X0582252Y0307348D01*
X0582256Y0307301D01*
X0582256Y0307255D01*
X0582252Y0307208D01*
X0582244Y0307162D01*
X0582233Y0307117D01*
X0582218Y0307073D01*
X0582200Y0307030D01*
X0582179Y0306989D01*
X0582154Y0306950D01*
X0582126Y0306912D01*
X0582095Y0306878D01*
X0582061Y0306845D01*
X0582025Y0306816D01*
X0581987Y0306789D01*
X0581947Y0306766D01*
X0581905Y0306746D01*
X0581861Y0306730D01*
X0581816Y0306717D01*
X0581771Y0306707D01*
X0581725Y0306702D01*
X0581678Y0306700D01*
X0581631Y0306702D01*
X0581585Y0306707D01*
X0581540Y0306717D01*
X0581495Y0306730D01*
X0581451Y0306746D01*
X0581409Y0306766D01*
X0581369Y0306789D01*
X0581331Y0306816D01*
X0581295Y0306845D01*
X0581261Y0306878D01*
X0581230Y0306912D01*
X0581202Y0306950D01*
X0581177Y0306989D01*
X0581156Y0307030D01*
X0581138Y0307073D01*
X0581123Y0307117D01*
X0581112Y0307162D01*
X0581104Y0307208D01*
X0581100Y0307255D01*
X0581100Y0307301D01*
X0581104Y0307348D01*
X0581112Y0307394D01*
X0581123Y0307439D01*
X0581138Y0307483D01*
X0581156Y0307526D01*
X0581177Y0307567D01*
X0581202Y0307606D01*
X0581230Y0307644D01*
X0581261Y0307678D01*
X0581295Y0307711D01*
X0581331Y0307740D01*
X0581369Y0307767D01*
X0581409Y0307790D01*
X0581451Y0307810D01*
X0581495Y0307826D01*
X0581540Y0307839D01*
X0581585Y0307849D01*
X0581631Y0307854D01*
X0581678Y0307856D01*
X0582978Y0308000D02*
X0583031Y0307998D01*
X0583083Y0307992D01*
X0583135Y0307983D01*
X0583186Y0307969D01*
X0583236Y0307952D01*
X0583284Y0307932D01*
X0583331Y0307908D01*
X0583376Y0307880D01*
X0583419Y0307849D01*
X0583460Y0307816D01*
X0583498Y0307779D01*
X0583533Y0307740D01*
X0583565Y0307698D01*
X0583594Y0307654D01*
X0583620Y0307608D01*
X0583642Y0307560D01*
X0583661Y0307511D01*
X0583677Y0307461D01*
X0583688Y0307409D01*
X0583696Y0307357D01*
X0583700Y0307304D01*
X0583700Y0307252D01*
X0583696Y0307199D01*
X0583688Y0307147D01*
X0583677Y0307095D01*
X0583661Y0307045D01*
X0583642Y0306996D01*
X0583620Y0306948D01*
X0583594Y0306902D01*
X0583565Y0306858D01*
X0583533Y0306816D01*
X0583498Y0306777D01*
X0583460Y0306740D01*
X0583419Y0306707D01*
X0583376Y0306676D01*
X0583331Y0306648D01*
X0583284Y0306624D01*
X0583236Y0306604D01*
X0583186Y0306587D01*
X0583135Y0306573D01*
X0583083Y0306564D01*
X0583031Y0306558D01*
X0582978Y0306556D01*
X0582925Y0306558D01*
X0582873Y0306564D01*
X0582821Y0306573D01*
X0582770Y0306587D01*
X0582720Y0306604D01*
X0582672Y0306624D01*
X0582625Y0306648D01*
X0582580Y0306676D01*
X0582537Y0306707D01*
X0582496Y0306740D01*
X0582458Y0306777D01*
X0582423Y0306816D01*
X0582391Y0306858D01*
X0582362Y0306902D01*
X0582336Y0306948D01*
X0582314Y0306996D01*
X0582295Y0307045D01*
X0582279Y0307095D01*
X0582268Y0307147D01*
X0582260Y0307199D01*
X0582256Y0307252D01*
X0582256Y0307304D01*
X0582260Y0307357D01*
X0582268Y0307409D01*
X0582279Y0307461D01*
X0582295Y0307511D01*
X0582314Y0307560D01*
X0582336Y0307608D01*
X0582362Y0307654D01*
X0582391Y0307698D01*
X0582423Y0307740D01*
X0582458Y0307779D01*
X0582496Y0307816D01*
X0582537Y0307849D01*
X0582580Y0307880D01*
X0582625Y0307908D01*
X0582672Y0307932D01*
X0582720Y0307952D01*
X0582770Y0307969D01*
X0582821Y0307983D01*
X0582873Y0307992D01*
X0582925Y0307998D01*
X0582978Y0308000D01*
X0583700Y0305151D02*
X0582544Y0304573D01*
X0582544Y0304429D02*
X0582544Y0303707D01*
X0582544Y0304429D02*
X0582542Y0304482D01*
X0582536Y0304534D01*
X0582527Y0304586D01*
X0582513Y0304637D01*
X0582496Y0304687D01*
X0582476Y0304735D01*
X0582452Y0304782D01*
X0582424Y0304827D01*
X0582393Y0304870D01*
X0582360Y0304911D01*
X0582323Y0304949D01*
X0582284Y0304984D01*
X0582242Y0305016D01*
X0582198Y0305045D01*
X0582152Y0305071D01*
X0582104Y0305093D01*
X0582055Y0305112D01*
X0582005Y0305128D01*
X0581953Y0305139D01*
X0581901Y0305147D01*
X0581848Y0305151D01*
X0581796Y0305151D01*
X0581743Y0305147D01*
X0581691Y0305139D01*
X0581639Y0305128D01*
X0581589Y0305112D01*
X0581540Y0305093D01*
X0581492Y0305071D01*
X0581446Y0305045D01*
X0581402Y0305016D01*
X0581360Y0304984D01*
X0581321Y0304949D01*
X0581284Y0304911D01*
X0581251Y0304870D01*
X0581220Y0304827D01*
X0581192Y0304782D01*
X0581168Y0304735D01*
X0581148Y0304687D01*
X0581131Y0304637D01*
X0581117Y0304586D01*
X0581108Y0304534D01*
X0581102Y0304482D01*
X0581100Y0304429D01*
X0581100Y0303707D01*
X0583700Y0303707D01*
X0553200Y0292500D02*
X0553200Y0291056D01*
X0553200Y0291778D02*
X0550600Y0291778D01*
X0551178Y0291056D01*
X0551322Y0289805D02*
X0552478Y0289805D01*
X0552622Y0289516D02*
X0553200Y0290094D01*
X0552478Y0289805D02*
X0552531Y0289803D01*
X0552583Y0289797D01*
X0552635Y0289788D01*
X0552686Y0289774D01*
X0552736Y0289757D01*
X0552784Y0289737D01*
X0552831Y0289713D01*
X0552876Y0289685D01*
X0552919Y0289654D01*
X0552960Y0289621D01*
X0552998Y0289584D01*
X0553033Y0289545D01*
X0553065Y0289503D01*
X0553094Y0289459D01*
X0553120Y0289413D01*
X0553142Y0289365D01*
X0553161Y0289316D01*
X0553177Y0289266D01*
X0553188Y0289214D01*
X0553196Y0289162D01*
X0553200Y0289109D01*
X0553200Y0289057D01*
X0553196Y0289004D01*
X0553188Y0288952D01*
X0553177Y0288900D01*
X0553161Y0288850D01*
X0553142Y0288801D01*
X0553120Y0288753D01*
X0553094Y0288707D01*
X0553065Y0288663D01*
X0553033Y0288621D01*
X0552998Y0288582D01*
X0552960Y0288545D01*
X0552919Y0288512D01*
X0552876Y0288481D01*
X0552831Y0288453D01*
X0552784Y0288429D01*
X0552736Y0288409D01*
X0552686Y0288392D01*
X0552635Y0288378D01*
X0552583Y0288369D01*
X0552531Y0288363D01*
X0552478Y0288361D01*
X0551322Y0288361D01*
X0551269Y0288363D01*
X0551217Y0288369D01*
X0551165Y0288378D01*
X0551114Y0288392D01*
X0551064Y0288409D01*
X0551016Y0288429D01*
X0550969Y0288453D01*
X0550924Y0288481D01*
X0550881Y0288512D01*
X0550840Y0288545D01*
X0550802Y0288582D01*
X0550767Y0288621D01*
X0550735Y0288663D01*
X0550706Y0288707D01*
X0550680Y0288753D01*
X0550658Y0288801D01*
X0550639Y0288850D01*
X0550623Y0288900D01*
X0550612Y0288952D01*
X0550604Y0289004D01*
X0550600Y0289057D01*
X0550600Y0289109D01*
X0550604Y0289162D01*
X0550612Y0289214D01*
X0550623Y0289266D01*
X0550639Y0289316D01*
X0550658Y0289365D01*
X0550680Y0289413D01*
X0550706Y0289459D01*
X0550735Y0289503D01*
X0550767Y0289545D01*
X0550802Y0289584D01*
X0550840Y0289621D01*
X0550881Y0289654D01*
X0550924Y0289685D01*
X0550969Y0289713D01*
X0551016Y0289737D01*
X0551064Y0289757D01*
X0551114Y0289774D01*
X0551165Y0289788D01*
X0551217Y0289797D01*
X0551269Y0289803D01*
X0551322Y0289805D01*
X0405687Y0374380D02*
X0404242Y0374380D01*
X0404965Y0374380D02*
X0404965Y0376980D01*
X0404242Y0376402D01*
X0403008Y0374380D02*
X0401852Y0374380D01*
X0401852Y0376980D01*
X0063000Y0365656D02*
X0063000Y0363211D01*
X0060556Y0365289D01*
X0058600Y0364556D02*
X0058602Y0364482D01*
X0058608Y0364408D01*
X0058617Y0364335D01*
X0058631Y0364262D01*
X0058648Y0364190D01*
X0058669Y0364119D01*
X0058694Y0364049D01*
X0058722Y0363981D01*
X0058754Y0363914D01*
X0058790Y0363849D01*
X0058828Y0363786D01*
X0058870Y0363725D01*
X0058915Y0363666D01*
X0058963Y0363610D01*
X0059014Y0363556D01*
X0059068Y0363505D01*
X0059125Y0363457D01*
X0059183Y0363412D01*
X0059244Y0363370D01*
X0059307Y0363332D01*
X0059373Y0363296D01*
X0059439Y0363265D01*
X0059508Y0363236D01*
X0059578Y0363212D01*
X0060555Y0365288D02*
X0060507Y0365337D01*
X0060455Y0365382D01*
X0060402Y0365424D01*
X0060346Y0365463D01*
X0060287Y0365499D01*
X0060227Y0365531D01*
X0060165Y0365560D01*
X0060102Y0365585D01*
X0060037Y0365606D01*
X0059971Y0365624D01*
X0059904Y0365637D01*
X0059836Y0365647D01*
X0059768Y0365653D01*
X0059700Y0365655D01*
X0059700Y0365656D02*
X0059636Y0365654D01*
X0059572Y0365649D01*
X0059509Y0365639D01*
X0059446Y0365626D01*
X0059385Y0365610D01*
X0059324Y0365590D01*
X0059264Y0365566D01*
X0059206Y0365539D01*
X0059150Y0365509D01*
X0059096Y0365475D01*
X0059043Y0365438D01*
X0058993Y0365399D01*
X0058945Y0365356D01*
X0058900Y0365311D01*
X0058857Y0365263D01*
X0058818Y0365213D01*
X0058781Y0365160D01*
X0058747Y0365106D01*
X0058717Y0365050D01*
X0058690Y0364992D01*
X0058666Y0364932D01*
X0058646Y0364871D01*
X0058630Y0364810D01*
X0058617Y0364747D01*
X0058607Y0364684D01*
X0058602Y0364620D01*
X0058600Y0364556D01*
X0058600Y0360167D02*
X0058600Y0358944D01*
X0063000Y0358944D01*
X0061044Y0358944D02*
X0061044Y0360167D01*
X0061042Y0360236D01*
X0061036Y0360304D01*
X0061027Y0360372D01*
X0061013Y0360439D01*
X0060996Y0360505D01*
X0060975Y0360571D01*
X0060951Y0360635D01*
X0060923Y0360697D01*
X0060892Y0360758D01*
X0060857Y0360817D01*
X0060819Y0360874D01*
X0060777Y0360929D01*
X0060733Y0360981D01*
X0060686Y0361031D01*
X0060636Y0361078D01*
X0060584Y0361122D01*
X0060529Y0361164D01*
X0060472Y0361202D01*
X0060413Y0361237D01*
X0060352Y0361268D01*
X0060290Y0361296D01*
X0060226Y0361320D01*
X0060160Y0361341D01*
X0060094Y0361358D01*
X0060027Y0361372D01*
X0059959Y0361381D01*
X0059891Y0361387D01*
X0059822Y0361389D01*
X0059753Y0361387D01*
X0059685Y0361381D01*
X0059617Y0361372D01*
X0059550Y0361358D01*
X0059484Y0361341D01*
X0059418Y0361320D01*
X0059354Y0361296D01*
X0059292Y0361268D01*
X0059231Y0361237D01*
X0059172Y0361202D01*
X0059115Y0361164D01*
X0059060Y0361122D01*
X0059008Y0361078D01*
X0058958Y0361031D01*
X0058911Y0360981D01*
X0058867Y0360929D01*
X0058825Y0360874D01*
X0058787Y0360817D01*
X0058752Y0360758D01*
X0058721Y0360697D01*
X0058693Y0360635D01*
X0058669Y0360571D01*
X0058648Y0360505D01*
X0058631Y0360439D01*
X0058617Y0360372D01*
X0058608Y0360304D01*
X0058602Y0360236D01*
X0058600Y0360167D01*
X0052938Y0401600D02*
X0051516Y0401600D01*
X0051442Y0401602D01*
X0051367Y0401608D01*
X0051294Y0401618D01*
X0051220Y0401631D01*
X0051148Y0401648D01*
X0051077Y0401670D01*
X0051006Y0401694D01*
X0050938Y0401723D01*
X0050870Y0401755D01*
X0050805Y0401791D01*
X0050742Y0401829D01*
X0050680Y0401872D01*
X0050621Y0401917D01*
X0050564Y0401965D01*
X0050510Y0402016D01*
X0050459Y0402070D01*
X0050411Y0402127D01*
X0050366Y0402186D01*
X0050323Y0402248D01*
X0050285Y0402311D01*
X0050249Y0402376D01*
X0050217Y0402444D01*
X0050188Y0402512D01*
X0050164Y0402583D01*
X0050142Y0402654D01*
X0050125Y0402726D01*
X0050112Y0402800D01*
X0050102Y0402873D01*
X0050096Y0402948D01*
X0050094Y0403022D01*
X0050094Y0406578D01*
X0050096Y0406652D01*
X0050102Y0406727D01*
X0050112Y0406800D01*
X0050125Y0406874D01*
X0050142Y0406946D01*
X0050164Y0407017D01*
X0050188Y0407088D01*
X0050217Y0407156D01*
X0050249Y0407224D01*
X0050285Y0407289D01*
X0050323Y0407352D01*
X0050366Y0407414D01*
X0050411Y0407473D01*
X0050459Y0407529D01*
X0050510Y0407584D01*
X0050564Y0407635D01*
X0050621Y0407683D01*
X0050680Y0407728D01*
X0050742Y0407771D01*
X0050805Y0407809D01*
X0050870Y0407845D01*
X0050938Y0407877D01*
X0051006Y0407906D01*
X0051077Y0407930D01*
X0051148Y0407952D01*
X0051220Y0407969D01*
X0051294Y0407982D01*
X0051367Y0407992D01*
X0051442Y0407998D01*
X0051516Y0408000D01*
X0052938Y0408000D01*
X0045733Y0408000D02*
X0047867Y0401600D01*
X0047333Y0403200D02*
X0044133Y0403200D01*
X0043600Y0401600D02*
X0045733Y0408000D01*
X0063000Y0265656D02*
X0063000Y0263211D01*
X0063000Y0264433D02*
X0058600Y0264433D01*
X0059578Y0263211D01*
X0058600Y0260167D02*
X0058602Y0260236D01*
X0058608Y0260304D01*
X0058617Y0260372D01*
X0058631Y0260439D01*
X0058648Y0260505D01*
X0058669Y0260571D01*
X0058693Y0260635D01*
X0058721Y0260697D01*
X0058752Y0260758D01*
X0058787Y0260817D01*
X0058825Y0260874D01*
X0058867Y0260929D01*
X0058911Y0260981D01*
X0058958Y0261031D01*
X0059008Y0261078D01*
X0059060Y0261122D01*
X0059115Y0261164D01*
X0059172Y0261202D01*
X0059231Y0261237D01*
X0059292Y0261268D01*
X0059354Y0261296D01*
X0059418Y0261320D01*
X0059484Y0261341D01*
X0059550Y0261358D01*
X0059617Y0261372D01*
X0059685Y0261381D01*
X0059753Y0261387D01*
X0059822Y0261389D01*
X0059891Y0261387D01*
X0059959Y0261381D01*
X0060027Y0261372D01*
X0060094Y0261358D01*
X0060160Y0261341D01*
X0060226Y0261320D01*
X0060290Y0261296D01*
X0060352Y0261268D01*
X0060413Y0261237D01*
X0060472Y0261202D01*
X0060529Y0261164D01*
X0060584Y0261122D01*
X0060636Y0261078D01*
X0060686Y0261031D01*
X0060733Y0260981D01*
X0060777Y0260929D01*
X0060819Y0260874D01*
X0060857Y0260817D01*
X0060892Y0260758D01*
X0060923Y0260697D01*
X0060951Y0260635D01*
X0060975Y0260571D01*
X0060996Y0260505D01*
X0061013Y0260439D01*
X0061027Y0260372D01*
X0061036Y0260304D01*
X0061042Y0260236D01*
X0061044Y0260167D01*
X0061044Y0258944D01*
X0063000Y0258944D02*
X0058600Y0258944D01*
X0058600Y0260167D01*
D12*
X0188300Y0198300D02*
X0188300Y0194300D01*
X0188300Y0213300D02*
X0188300Y0217300D01*
X0296300Y0311300D02*
X0336300Y0311300D01*
X0336300Y0326300D01*
X0296300Y0326300D01*
X0296300Y0311300D01*
X0287300Y0354300D02*
X0287300Y0358300D01*
X0443706Y0284894D02*
X0443706Y0283576D01*
X0443706Y0284894D02*
X0445024Y0284894D01*
X0455576Y0284894D02*
X0456894Y0284894D01*
X0456894Y0283576D01*
X0456894Y0273024D02*
X0456894Y0271706D01*
X0455576Y0271706D01*
X0445024Y0271706D02*
X0443706Y0271706D01*
X0443706Y0273024D01*
X0466300Y0151300D02*
X0516300Y0151300D01*
X0516300Y0139300D01*
X0466300Y0139300D01*
X0466300Y0151300D01*
X0426450Y0148269D02*
X0420150Y0148269D01*
X0422316Y0146891D02*
X0423300Y0146300D01*
X0422316Y0145709D01*
X0422316Y0146891D01*
X0422513Y0146300D02*
X0422709Y0146300D01*
X0423694Y0147284D02*
X0423694Y0145316D01*
X0426450Y0144331D02*
X0420150Y0144331D01*
X0481300Y0071300D02*
X0511300Y0071300D01*
X0511300Y0056300D01*
X0481300Y0056300D01*
X0481300Y0071300D01*
D13*
X0224965Y0241800D02*
X0087170Y0241800D01*
X0086219Y0241811D01*
X0085268Y0241846D01*
X0084318Y0241903D01*
X0083370Y0241984D01*
X0082424Y0242087D01*
X0081481Y0242213D01*
X0080542Y0242362D01*
X0079606Y0242533D01*
X0078675Y0242728D01*
X0077748Y0242944D01*
X0076827Y0243183D01*
X0075912Y0243444D01*
X0075004Y0243727D01*
X0074103Y0244032D01*
X0073209Y0244358D01*
X0072324Y0244707D01*
X0071447Y0245076D01*
X0070579Y0245466D01*
X0069722Y0245878D01*
X0068874Y0246310D01*
X0068037Y0246762D01*
X0067211Y0247234D01*
X0066397Y0247726D01*
X0065595Y0248238D01*
X0064805Y0248769D01*
X0064029Y0249319D01*
X0063266Y0249887D01*
X0062517Y0250474D01*
X0061783Y0251079D01*
X0061063Y0251701D01*
X0060358Y0252341D01*
X0059670Y0252997D01*
X0058997Y0253670D01*
X0058341Y0254358D01*
X0057701Y0255063D01*
X0057079Y0255783D01*
X0056474Y0256517D01*
X0055887Y0257266D01*
X0055319Y0258029D01*
X0054769Y0258805D01*
X0054238Y0259595D01*
X0053726Y0260397D01*
X0053234Y0261211D01*
X0052762Y0262037D01*
X0052310Y0262874D01*
X0051878Y0263722D01*
X0051466Y0264579D01*
X0051076Y0265447D01*
X0050707Y0266324D01*
X0050358Y0267209D01*
X0050032Y0268103D01*
X0049727Y0269004D01*
X0049444Y0269912D01*
X0049183Y0270827D01*
X0048944Y0271748D01*
X0048728Y0272675D01*
X0048533Y0273606D01*
X0048362Y0274542D01*
X0048213Y0275481D01*
X0048087Y0276424D01*
X0047984Y0277370D01*
X0047903Y0278318D01*
X0047846Y0279268D01*
X0047811Y0280219D01*
X0047800Y0281170D01*
X0047800Y0340225D01*
X0047811Y0341176D01*
X0047846Y0342127D01*
X0047903Y0343077D01*
X0047984Y0344025D01*
X0048087Y0344971D01*
X0048213Y0345914D01*
X0048362Y0346853D01*
X0048533Y0347789D01*
X0048728Y0348720D01*
X0048944Y0349647D01*
X0049183Y0350568D01*
X0049444Y0351483D01*
X0049727Y0352391D01*
X0050032Y0353292D01*
X0050358Y0354186D01*
X0050707Y0355071D01*
X0051076Y0355948D01*
X0051466Y0356816D01*
X0051878Y0357673D01*
X0052310Y0358521D01*
X0052762Y0359358D01*
X0053234Y0360184D01*
X0053726Y0360998D01*
X0054238Y0361800D01*
X0054769Y0362590D01*
X0055319Y0363366D01*
X0055887Y0364129D01*
X0056474Y0364878D01*
X0057079Y0365612D01*
X0057701Y0366332D01*
X0058341Y0367037D01*
X0058997Y0367725D01*
X0059670Y0368398D01*
X0060358Y0369054D01*
X0061063Y0369694D01*
X0061783Y0370316D01*
X0062517Y0370921D01*
X0063266Y0371508D01*
X0064029Y0372076D01*
X0064805Y0372626D01*
X0065595Y0373157D01*
X0066397Y0373669D01*
X0067211Y0374161D01*
X0068037Y0374633D01*
X0068874Y0375085D01*
X0069722Y0375517D01*
X0070579Y0375929D01*
X0071447Y0376319D01*
X0072324Y0376688D01*
X0073209Y0377037D01*
X0074103Y0377363D01*
X0075004Y0377668D01*
X0075912Y0377951D01*
X0076827Y0378212D01*
X0077748Y0378451D01*
X0078675Y0378667D01*
X0079606Y0378862D01*
X0080542Y0379033D01*
X0081481Y0379182D01*
X0082424Y0379308D01*
X0083370Y0379411D01*
X0084318Y0379492D01*
X0085268Y0379549D01*
X0086219Y0379584D01*
X0087170Y0379595D01*
X0224965Y0379595D01*
X0225916Y0379584D01*
X0226867Y0379549D01*
X0227817Y0379492D01*
X0228765Y0379411D01*
X0229711Y0379308D01*
X0230654Y0379182D01*
X0231593Y0379033D01*
X0232529Y0378862D01*
X0233460Y0378667D01*
X0234387Y0378451D01*
X0235308Y0378212D01*
X0236223Y0377951D01*
X0237131Y0377668D01*
X0238032Y0377363D01*
X0238926Y0377037D01*
X0239811Y0376688D01*
X0240688Y0376319D01*
X0241556Y0375929D01*
X0242413Y0375517D01*
X0243261Y0375085D01*
X0244098Y0374633D01*
X0244924Y0374161D01*
X0245738Y0373669D01*
X0246540Y0373157D01*
X0247330Y0372626D01*
X0248106Y0372076D01*
X0248869Y0371508D01*
X0249618Y0370921D01*
X0250352Y0370316D01*
X0251072Y0369694D01*
X0251777Y0369054D01*
X0252465Y0368398D01*
X0253138Y0367725D01*
X0253794Y0367037D01*
X0254434Y0366332D01*
X0255056Y0365612D01*
X0255661Y0364878D01*
X0256248Y0364129D01*
X0256816Y0363366D01*
X0257366Y0362590D01*
X0257897Y0361800D01*
X0258409Y0360998D01*
X0258901Y0360184D01*
X0259373Y0359358D01*
X0259825Y0358521D01*
X0260257Y0357673D01*
X0260669Y0356816D01*
X0261059Y0355948D01*
X0261428Y0355071D01*
X0261777Y0354186D01*
X0262103Y0353292D01*
X0262408Y0352391D01*
X0262691Y0351483D01*
X0262952Y0350568D01*
X0263191Y0349647D01*
X0263407Y0348720D01*
X0263602Y0347789D01*
X0263773Y0346853D01*
X0263922Y0345914D01*
X0264048Y0344971D01*
X0264151Y0344025D01*
X0264232Y0343077D01*
X0264289Y0342127D01*
X0264324Y0341176D01*
X0264335Y0340225D01*
X0264335Y0281170D01*
X0264324Y0280219D01*
X0264289Y0279268D01*
X0264232Y0278318D01*
X0264151Y0277370D01*
X0264048Y0276424D01*
X0263922Y0275481D01*
X0263773Y0274542D01*
X0263602Y0273606D01*
X0263407Y0272675D01*
X0263191Y0271748D01*
X0262952Y0270827D01*
X0262691Y0269912D01*
X0262408Y0269004D01*
X0262103Y0268103D01*
X0261777Y0267209D01*
X0261428Y0266324D01*
X0261059Y0265447D01*
X0260669Y0264579D01*
X0260257Y0263722D01*
X0259825Y0262874D01*
X0259373Y0262037D01*
X0258901Y0261211D01*
X0258409Y0260397D01*
X0257897Y0259595D01*
X0257366Y0258805D01*
X0256816Y0258029D01*
X0256248Y0257266D01*
X0255661Y0256517D01*
X0255056Y0255783D01*
X0254434Y0255063D01*
X0253794Y0254358D01*
X0253138Y0253670D01*
X0252465Y0252997D01*
X0251777Y0252341D01*
X0251072Y0251701D01*
X0250352Y0251079D01*
X0249618Y0250474D01*
X0248869Y0249887D01*
X0248106Y0249319D01*
X0247330Y0248769D01*
X0246540Y0248238D01*
X0245738Y0247726D01*
X0244924Y0247234D01*
X0244098Y0246762D01*
X0243261Y0246310D01*
X0242413Y0245878D01*
X0241556Y0245466D01*
X0240688Y0245076D01*
X0239811Y0244707D01*
X0238926Y0244358D01*
X0238032Y0244032D01*
X0237131Y0243727D01*
X0236223Y0243444D01*
X0235308Y0243183D01*
X0234387Y0242944D01*
X0233460Y0242728D01*
X0232529Y0242533D01*
X0231593Y0242362D01*
X0230654Y0242213D01*
X0229711Y0242087D01*
X0228765Y0241984D01*
X0227817Y0241903D01*
X0226867Y0241846D01*
X0225916Y0241811D01*
X0224965Y0241800D01*
D14*
X0176683Y0340000D02*
X0175405Y0340000D01*
X0175350Y0340002D01*
X0175296Y0340008D01*
X0175242Y0340018D01*
X0175189Y0340031D01*
X0175137Y0340048D01*
X0175086Y0340069D01*
X0175037Y0340094D01*
X0174990Y0340122D01*
X0174945Y0340153D01*
X0174903Y0340187D01*
X0174863Y0340225D01*
X0174825Y0340265D01*
X0174791Y0340307D01*
X0174760Y0340352D01*
X0174732Y0340399D01*
X0174707Y0340448D01*
X0174686Y0340499D01*
X0174669Y0340551D01*
X0174656Y0340604D01*
X0174646Y0340658D01*
X0174640Y0340712D01*
X0174638Y0340767D01*
X0174639Y0340767D02*
X0174639Y0342044D01*
X0174639Y0341533D02*
X0176683Y0341533D01*
X0176683Y0342044D01*
X0176681Y0342107D01*
X0176675Y0342170D01*
X0176666Y0342232D01*
X0176652Y0342293D01*
X0176635Y0342354D01*
X0176614Y0342413D01*
X0176589Y0342471D01*
X0176561Y0342528D01*
X0176530Y0342582D01*
X0176495Y0342634D01*
X0176457Y0342685D01*
X0176416Y0342733D01*
X0176372Y0342778D01*
X0176326Y0342820D01*
X0176277Y0342860D01*
X0176226Y0342896D01*
X0176172Y0342929D01*
X0176117Y0342959D01*
X0176059Y0342985D01*
X0176001Y0343008D01*
X0175941Y0343027D01*
X0175880Y0343042D01*
X0175818Y0343054D01*
X0175755Y0343062D01*
X0175692Y0343066D01*
X0175630Y0343066D01*
X0175567Y0343062D01*
X0175504Y0343054D01*
X0175442Y0343042D01*
X0175381Y0343027D01*
X0175321Y0343008D01*
X0175263Y0342985D01*
X0175205Y0342959D01*
X0175150Y0342929D01*
X0175096Y0342896D01*
X0175045Y0342860D01*
X0174996Y0342820D01*
X0174950Y0342778D01*
X0174906Y0342733D01*
X0174865Y0342685D01*
X0174827Y0342634D01*
X0174792Y0342582D01*
X0174761Y0342528D01*
X0174733Y0342471D01*
X0174708Y0342413D01*
X0174687Y0342354D01*
X0174670Y0342293D01*
X0174656Y0342232D01*
X0174647Y0342170D01*
X0174641Y0342107D01*
X0174639Y0342044D01*
X0173064Y0340000D02*
X0173009Y0340002D01*
X0172955Y0340008D01*
X0172901Y0340018D01*
X0172848Y0340031D01*
X0172796Y0340048D01*
X0172745Y0340069D01*
X0172696Y0340094D01*
X0172649Y0340122D01*
X0172604Y0340153D01*
X0172562Y0340187D01*
X0172522Y0340225D01*
X0172484Y0340265D01*
X0172450Y0340307D01*
X0172419Y0340352D01*
X0172391Y0340399D01*
X0172366Y0340448D01*
X0172345Y0340499D01*
X0172328Y0340551D01*
X0172315Y0340604D01*
X0172305Y0340658D01*
X0172299Y0340712D01*
X0172297Y0340767D01*
X0172298Y0340767D02*
X0172298Y0344600D01*
X0170210Y0343067D02*
X0170210Y0339233D01*
X0170208Y0339178D01*
X0170202Y0339124D01*
X0170192Y0339070D01*
X0170179Y0339017D01*
X0170162Y0338965D01*
X0170141Y0338914D01*
X0170116Y0338865D01*
X0170088Y0338818D01*
X0170057Y0338773D01*
X0170023Y0338731D01*
X0169985Y0338691D01*
X0169945Y0338653D01*
X0169903Y0338619D01*
X0169858Y0338588D01*
X0169811Y0338560D01*
X0169762Y0338535D01*
X0169711Y0338514D01*
X0169659Y0338497D01*
X0169606Y0338484D01*
X0169552Y0338474D01*
X0169498Y0338468D01*
X0169443Y0338466D01*
X0169443Y0338467D02*
X0168421Y0338467D01*
X0168932Y0340000D02*
X0170210Y0340000D01*
X0168932Y0340000D02*
X0168877Y0340002D01*
X0168823Y0340008D01*
X0168769Y0340018D01*
X0168716Y0340031D01*
X0168664Y0340048D01*
X0168613Y0340069D01*
X0168564Y0340094D01*
X0168517Y0340122D01*
X0168472Y0340153D01*
X0168430Y0340187D01*
X0168390Y0340225D01*
X0168352Y0340265D01*
X0168318Y0340307D01*
X0168287Y0340352D01*
X0168259Y0340399D01*
X0168234Y0340448D01*
X0168213Y0340499D01*
X0168196Y0340551D01*
X0168183Y0340604D01*
X0168173Y0340658D01*
X0168167Y0340712D01*
X0168165Y0340767D01*
X0168166Y0340767D02*
X0168166Y0342300D01*
X0168165Y0342300D02*
X0168167Y0342355D01*
X0168173Y0342409D01*
X0168183Y0342463D01*
X0168196Y0342516D01*
X0168213Y0342568D01*
X0168234Y0342619D01*
X0168259Y0342668D01*
X0168287Y0342715D01*
X0168318Y0342760D01*
X0168352Y0342802D01*
X0168390Y0342842D01*
X0168430Y0342880D01*
X0168472Y0342914D01*
X0168517Y0342945D01*
X0168564Y0342973D01*
X0168613Y0342998D01*
X0168664Y0343019D01*
X0168716Y0343036D01*
X0168769Y0343049D01*
X0168823Y0343059D01*
X0168877Y0343065D01*
X0168932Y0343067D01*
X0170210Y0343067D01*
X0166160Y0342300D02*
X0166160Y0340000D01*
X0165010Y0340000D01*
X0164952Y0340002D01*
X0164893Y0340008D01*
X0164836Y0340017D01*
X0164779Y0340030D01*
X0164723Y0340047D01*
X0164668Y0340068D01*
X0164615Y0340092D01*
X0164563Y0340120D01*
X0164513Y0340151D01*
X0164466Y0340185D01*
X0164421Y0340222D01*
X0164378Y0340262D01*
X0164338Y0340305D01*
X0164301Y0340350D01*
X0164267Y0340397D01*
X0164236Y0340447D01*
X0164208Y0340499D01*
X0164184Y0340552D01*
X0164163Y0340607D01*
X0164146Y0340663D01*
X0164133Y0340720D01*
X0164124Y0340777D01*
X0164118Y0340836D01*
X0164116Y0340894D01*
X0164118Y0340952D01*
X0164124Y0341011D01*
X0164133Y0341068D01*
X0164146Y0341125D01*
X0164163Y0341181D01*
X0164184Y0341236D01*
X0164208Y0341289D01*
X0164236Y0341341D01*
X0164267Y0341391D01*
X0164301Y0341438D01*
X0164338Y0341483D01*
X0164378Y0341526D01*
X0164421Y0341566D01*
X0164466Y0341603D01*
X0164513Y0341637D01*
X0164563Y0341668D01*
X0164615Y0341696D01*
X0164668Y0341720D01*
X0164723Y0341741D01*
X0164779Y0341758D01*
X0164836Y0341771D01*
X0164893Y0341780D01*
X0164952Y0341786D01*
X0165010Y0341788D01*
X0165010Y0341789D02*
X0166160Y0341789D01*
X0166160Y0342300D02*
X0166158Y0342355D01*
X0166152Y0342409D01*
X0166142Y0342463D01*
X0166129Y0342516D01*
X0166112Y0342568D01*
X0166091Y0342619D01*
X0166066Y0342668D01*
X0166038Y0342715D01*
X0166007Y0342760D01*
X0165973Y0342802D01*
X0165935Y0342842D01*
X0165895Y0342880D01*
X0165853Y0342914D01*
X0165808Y0342945D01*
X0165761Y0342973D01*
X0165712Y0342998D01*
X0165661Y0343019D01*
X0165609Y0343036D01*
X0165556Y0343049D01*
X0165502Y0343059D01*
X0165448Y0343065D01*
X0165393Y0343067D01*
X0164371Y0343067D01*
X0162283Y0342044D02*
X0162283Y0341533D01*
X0160239Y0341533D01*
X0160239Y0342044D02*
X0160239Y0340767D01*
X0160238Y0340767D02*
X0160240Y0340712D01*
X0160246Y0340658D01*
X0160256Y0340604D01*
X0160269Y0340551D01*
X0160286Y0340499D01*
X0160307Y0340448D01*
X0160332Y0340399D01*
X0160360Y0340352D01*
X0160391Y0340307D01*
X0160425Y0340265D01*
X0160463Y0340225D01*
X0160503Y0340187D01*
X0160545Y0340153D01*
X0160590Y0340122D01*
X0160637Y0340094D01*
X0160686Y0340069D01*
X0160737Y0340048D01*
X0160789Y0340031D01*
X0160842Y0340018D01*
X0160896Y0340008D01*
X0160950Y0340002D01*
X0161005Y0340000D01*
X0162283Y0340000D01*
X0162283Y0342044D02*
X0162281Y0342107D01*
X0162275Y0342170D01*
X0162266Y0342232D01*
X0162252Y0342293D01*
X0162235Y0342354D01*
X0162214Y0342413D01*
X0162189Y0342471D01*
X0162161Y0342528D01*
X0162130Y0342582D01*
X0162095Y0342634D01*
X0162057Y0342685D01*
X0162016Y0342733D01*
X0161972Y0342778D01*
X0161926Y0342820D01*
X0161877Y0342860D01*
X0161826Y0342896D01*
X0161772Y0342929D01*
X0161717Y0342959D01*
X0161659Y0342985D01*
X0161601Y0343008D01*
X0161541Y0343027D01*
X0161480Y0343042D01*
X0161418Y0343054D01*
X0161355Y0343062D01*
X0161292Y0343066D01*
X0161230Y0343066D01*
X0161167Y0343062D01*
X0161104Y0343054D01*
X0161042Y0343042D01*
X0160981Y0343027D01*
X0160921Y0343008D01*
X0160863Y0342985D01*
X0160805Y0342959D01*
X0160750Y0342929D01*
X0160696Y0342896D01*
X0160645Y0342860D01*
X0160596Y0342820D01*
X0160550Y0342778D01*
X0160506Y0342733D01*
X0160465Y0342685D01*
X0160427Y0342634D01*
X0160392Y0342582D01*
X0160361Y0342528D01*
X0160333Y0342471D01*
X0160308Y0342413D01*
X0160287Y0342354D01*
X0160270Y0342293D01*
X0160256Y0342232D01*
X0160247Y0342170D01*
X0160241Y0342107D01*
X0160239Y0342044D01*
X0157278Y0342556D02*
X0156000Y0342556D01*
X0157278Y0342556D02*
X0157341Y0342558D01*
X0157404Y0342564D01*
X0157466Y0342573D01*
X0157527Y0342587D01*
X0157588Y0342604D01*
X0157647Y0342625D01*
X0157705Y0342650D01*
X0157762Y0342678D01*
X0157816Y0342709D01*
X0157868Y0342744D01*
X0157919Y0342782D01*
X0157967Y0342823D01*
X0158012Y0342867D01*
X0158054Y0342913D01*
X0158094Y0342962D01*
X0158130Y0343013D01*
X0158163Y0343067D01*
X0158193Y0343122D01*
X0158219Y0343180D01*
X0158242Y0343238D01*
X0158261Y0343298D01*
X0158276Y0343359D01*
X0158288Y0343421D01*
X0158296Y0343484D01*
X0158300Y0343547D01*
X0158300Y0343609D01*
X0158296Y0343672D01*
X0158288Y0343735D01*
X0158276Y0343797D01*
X0158261Y0343858D01*
X0158242Y0343918D01*
X0158219Y0343976D01*
X0158193Y0344034D01*
X0158163Y0344089D01*
X0158130Y0344143D01*
X0158094Y0344194D01*
X0158054Y0344243D01*
X0158012Y0344289D01*
X0157967Y0344333D01*
X0157919Y0344374D01*
X0157868Y0344412D01*
X0157816Y0344447D01*
X0157762Y0344478D01*
X0157705Y0344506D01*
X0157647Y0344531D01*
X0157588Y0344552D01*
X0157527Y0344569D01*
X0157466Y0344583D01*
X0157404Y0344592D01*
X0157341Y0344598D01*
X0157278Y0344600D01*
X0156000Y0344600D01*
X0156000Y0340000D01*
X0157278Y0340000D01*
X0157348Y0340002D01*
X0157419Y0340008D01*
X0157488Y0340017D01*
X0157557Y0340031D01*
X0157626Y0340048D01*
X0157693Y0340069D01*
X0157759Y0340094D01*
X0157823Y0340122D01*
X0157886Y0340154D01*
X0157947Y0340189D01*
X0158006Y0340228D01*
X0158063Y0340269D01*
X0158117Y0340314D01*
X0158169Y0340362D01*
X0158218Y0340412D01*
X0158265Y0340466D01*
X0158308Y0340521D01*
X0158348Y0340579D01*
X0158385Y0340639D01*
X0158418Y0340701D01*
X0158448Y0340765D01*
X0158475Y0340830D01*
X0158498Y0340896D01*
X0158517Y0340964D01*
X0158532Y0341033D01*
X0158544Y0341102D01*
X0158552Y0341172D01*
X0158556Y0341243D01*
X0158556Y0341313D01*
X0158552Y0341384D01*
X0158544Y0341454D01*
X0158532Y0341523D01*
X0158517Y0341592D01*
X0158498Y0341660D01*
X0158475Y0341726D01*
X0158448Y0341791D01*
X0158418Y0341855D01*
X0158385Y0341917D01*
X0158348Y0341977D01*
X0158308Y0342035D01*
X0158265Y0342090D01*
X0158218Y0342144D01*
X0158169Y0342194D01*
X0158117Y0342242D01*
X0158063Y0342287D01*
X0158006Y0342328D01*
X0157947Y0342367D01*
X0157886Y0342402D01*
X0157823Y0342434D01*
X0157759Y0342462D01*
X0157693Y0342487D01*
X0157626Y0342508D01*
X0157557Y0342525D01*
X0157488Y0342539D01*
X0157419Y0342548D01*
X0157348Y0342554D01*
X0157278Y0342556D01*
X0154041Y0343067D02*
X0152508Y0343067D01*
X0151237Y0343067D02*
X0149192Y0341533D01*
X0150087Y0342172D02*
X0151237Y0340000D01*
X0153019Y0340767D02*
X0153019Y0344600D01*
X0149192Y0344600D02*
X0149192Y0340000D01*
X0147133Y0340000D02*
X0145856Y0340000D01*
X0145801Y0340002D01*
X0145747Y0340008D01*
X0145693Y0340018D01*
X0145640Y0340031D01*
X0145588Y0340048D01*
X0145537Y0340069D01*
X0145488Y0340094D01*
X0145441Y0340122D01*
X0145396Y0340153D01*
X0145354Y0340187D01*
X0145314Y0340225D01*
X0145276Y0340265D01*
X0145242Y0340307D01*
X0145211Y0340352D01*
X0145183Y0340399D01*
X0145158Y0340448D01*
X0145137Y0340499D01*
X0145120Y0340551D01*
X0145107Y0340604D01*
X0145097Y0340658D01*
X0145091Y0340712D01*
X0145089Y0340767D01*
X0145089Y0342044D01*
X0145089Y0341533D02*
X0147133Y0341533D01*
X0147133Y0342044D01*
X0147131Y0342107D01*
X0147125Y0342170D01*
X0147116Y0342232D01*
X0147102Y0342293D01*
X0147085Y0342354D01*
X0147064Y0342413D01*
X0147039Y0342471D01*
X0147011Y0342528D01*
X0146980Y0342582D01*
X0146945Y0342634D01*
X0146907Y0342685D01*
X0146866Y0342733D01*
X0146822Y0342778D01*
X0146776Y0342820D01*
X0146727Y0342860D01*
X0146676Y0342896D01*
X0146622Y0342929D01*
X0146567Y0342959D01*
X0146509Y0342985D01*
X0146451Y0343008D01*
X0146391Y0343027D01*
X0146330Y0343042D01*
X0146268Y0343054D01*
X0146205Y0343062D01*
X0146142Y0343066D01*
X0146080Y0343066D01*
X0146017Y0343062D01*
X0145954Y0343054D01*
X0145892Y0343042D01*
X0145831Y0343027D01*
X0145771Y0343008D01*
X0145713Y0342985D01*
X0145655Y0342959D01*
X0145600Y0342929D01*
X0145546Y0342896D01*
X0145495Y0342860D01*
X0145446Y0342820D01*
X0145400Y0342778D01*
X0145356Y0342733D01*
X0145315Y0342685D01*
X0145277Y0342634D01*
X0145242Y0342582D01*
X0145211Y0342528D01*
X0145183Y0342471D01*
X0145158Y0342413D01*
X0145137Y0342354D01*
X0145120Y0342293D01*
X0145106Y0342232D01*
X0145097Y0342170D01*
X0145091Y0342107D01*
X0145089Y0342044D01*
X0143433Y0343067D02*
X0142411Y0343067D01*
X0142356Y0343065D01*
X0142302Y0343059D01*
X0142248Y0343049D01*
X0142195Y0343036D01*
X0142143Y0343019D01*
X0142092Y0342998D01*
X0142043Y0342973D01*
X0141996Y0342945D01*
X0141951Y0342914D01*
X0141909Y0342880D01*
X0141869Y0342842D01*
X0141831Y0342802D01*
X0141797Y0342760D01*
X0141766Y0342715D01*
X0141738Y0342668D01*
X0141713Y0342619D01*
X0141692Y0342568D01*
X0141675Y0342516D01*
X0141662Y0342463D01*
X0141652Y0342409D01*
X0141646Y0342355D01*
X0141644Y0342300D01*
X0141644Y0340767D01*
X0141646Y0340712D01*
X0141652Y0340658D01*
X0141662Y0340604D01*
X0141675Y0340551D01*
X0141692Y0340499D01*
X0141713Y0340448D01*
X0141738Y0340399D01*
X0141766Y0340352D01*
X0141797Y0340307D01*
X0141831Y0340265D01*
X0141869Y0340225D01*
X0141909Y0340187D01*
X0141951Y0340153D01*
X0141996Y0340122D01*
X0142043Y0340094D01*
X0142092Y0340069D01*
X0142143Y0340048D01*
X0142195Y0340031D01*
X0142248Y0340018D01*
X0142302Y0340008D01*
X0142356Y0340002D01*
X0142411Y0340000D01*
X0143433Y0340000D01*
X0139783Y0341022D02*
X0139783Y0342044D01*
X0139781Y0342107D01*
X0139775Y0342170D01*
X0139766Y0342232D01*
X0139752Y0342293D01*
X0139735Y0342354D01*
X0139714Y0342413D01*
X0139689Y0342471D01*
X0139661Y0342528D01*
X0139630Y0342582D01*
X0139595Y0342634D01*
X0139557Y0342685D01*
X0139516Y0342733D01*
X0139472Y0342778D01*
X0139426Y0342820D01*
X0139377Y0342860D01*
X0139326Y0342896D01*
X0139272Y0342929D01*
X0139217Y0342959D01*
X0139159Y0342985D01*
X0139101Y0343008D01*
X0139041Y0343027D01*
X0138980Y0343042D01*
X0138918Y0343054D01*
X0138855Y0343062D01*
X0138792Y0343066D01*
X0138730Y0343066D01*
X0138667Y0343062D01*
X0138604Y0343054D01*
X0138542Y0343042D01*
X0138481Y0343027D01*
X0138421Y0343008D01*
X0138363Y0342985D01*
X0138305Y0342959D01*
X0138250Y0342929D01*
X0138196Y0342896D01*
X0138145Y0342860D01*
X0138096Y0342820D01*
X0138050Y0342778D01*
X0138006Y0342733D01*
X0137965Y0342685D01*
X0137927Y0342634D01*
X0137892Y0342582D01*
X0137861Y0342528D01*
X0137833Y0342471D01*
X0137808Y0342413D01*
X0137787Y0342354D01*
X0137770Y0342293D01*
X0137756Y0342232D01*
X0137747Y0342170D01*
X0137741Y0342107D01*
X0137739Y0342044D01*
X0137739Y0341022D01*
X0137741Y0340959D01*
X0137747Y0340896D01*
X0137756Y0340834D01*
X0137770Y0340773D01*
X0137787Y0340712D01*
X0137808Y0340653D01*
X0137833Y0340595D01*
X0137861Y0340538D01*
X0137892Y0340484D01*
X0137927Y0340432D01*
X0137965Y0340381D01*
X0138006Y0340333D01*
X0138050Y0340288D01*
X0138096Y0340246D01*
X0138145Y0340206D01*
X0138196Y0340170D01*
X0138250Y0340137D01*
X0138305Y0340107D01*
X0138363Y0340081D01*
X0138421Y0340058D01*
X0138481Y0340039D01*
X0138542Y0340024D01*
X0138604Y0340012D01*
X0138667Y0340004D01*
X0138730Y0340000D01*
X0138792Y0340000D01*
X0138855Y0340004D01*
X0138918Y0340012D01*
X0138980Y0340024D01*
X0139041Y0340039D01*
X0139101Y0340058D01*
X0139159Y0340081D01*
X0139217Y0340107D01*
X0139272Y0340137D01*
X0139326Y0340170D01*
X0139377Y0340206D01*
X0139426Y0340246D01*
X0139472Y0340288D01*
X0139516Y0340333D01*
X0139557Y0340381D01*
X0139595Y0340432D01*
X0139630Y0340484D01*
X0139661Y0340538D01*
X0139689Y0340595D01*
X0139714Y0340653D01*
X0139735Y0340712D01*
X0139752Y0340773D01*
X0139766Y0340834D01*
X0139775Y0340896D01*
X0139781Y0340959D01*
X0139783Y0341022D01*
X0134778Y0342044D02*
X0133500Y0342044D01*
X0134778Y0342044D02*
X0134848Y0342046D01*
X0134919Y0342052D01*
X0134988Y0342061D01*
X0135057Y0342075D01*
X0135126Y0342092D01*
X0135193Y0342113D01*
X0135259Y0342138D01*
X0135323Y0342166D01*
X0135386Y0342198D01*
X0135447Y0342233D01*
X0135506Y0342272D01*
X0135563Y0342313D01*
X0135617Y0342358D01*
X0135669Y0342406D01*
X0135718Y0342456D01*
X0135765Y0342510D01*
X0135808Y0342565D01*
X0135848Y0342623D01*
X0135885Y0342683D01*
X0135918Y0342745D01*
X0135948Y0342809D01*
X0135975Y0342874D01*
X0135998Y0342940D01*
X0136017Y0343008D01*
X0136032Y0343077D01*
X0136044Y0343146D01*
X0136052Y0343216D01*
X0136056Y0343287D01*
X0136056Y0343357D01*
X0136052Y0343428D01*
X0136044Y0343498D01*
X0136032Y0343567D01*
X0136017Y0343636D01*
X0135998Y0343704D01*
X0135975Y0343770D01*
X0135948Y0343835D01*
X0135918Y0343899D01*
X0135885Y0343961D01*
X0135848Y0344021D01*
X0135808Y0344079D01*
X0135765Y0344134D01*
X0135718Y0344188D01*
X0135669Y0344238D01*
X0135617Y0344286D01*
X0135563Y0344331D01*
X0135506Y0344372D01*
X0135447Y0344411D01*
X0135386Y0344446D01*
X0135323Y0344478D01*
X0135259Y0344506D01*
X0135193Y0344531D01*
X0135126Y0344552D01*
X0135057Y0344569D01*
X0134988Y0344583D01*
X0134919Y0344592D01*
X0134848Y0344598D01*
X0134778Y0344600D01*
X0133500Y0344600D01*
X0133500Y0340000D01*
X0153786Y0340000D02*
X0154041Y0340000D01*
X0153786Y0340000D02*
X0153731Y0340002D01*
X0153677Y0340008D01*
X0153623Y0340018D01*
X0153570Y0340031D01*
X0153518Y0340048D01*
X0153467Y0340069D01*
X0153418Y0340094D01*
X0153371Y0340122D01*
X0153326Y0340153D01*
X0153284Y0340187D01*
X0153244Y0340225D01*
X0153206Y0340265D01*
X0153172Y0340307D01*
X0153141Y0340352D01*
X0153113Y0340399D01*
X0153088Y0340448D01*
X0153067Y0340499D01*
X0153050Y0340551D01*
X0153037Y0340604D01*
X0153027Y0340658D01*
X0153021Y0340712D01*
X0153019Y0340767D01*
D15*
X0475400Y0143111D02*
X0476011Y0143600D01*
X0476011Y0141400D01*
X0475400Y0141400D02*
X0476622Y0141400D01*
X0490400Y0141400D02*
X0491622Y0141400D01*
X0490400Y0141400D02*
X0491439Y0142622D01*
X0491072Y0143600D02*
X0491020Y0143598D01*
X0490968Y0143592D01*
X0490916Y0143583D01*
X0490866Y0143569D01*
X0490816Y0143552D01*
X0490768Y0143531D01*
X0490722Y0143507D01*
X0490678Y0143480D01*
X0490635Y0143449D01*
X0490595Y0143415D01*
X0490558Y0143379D01*
X0490524Y0143339D01*
X0490492Y0143297D01*
X0490464Y0143254D01*
X0490439Y0143208D01*
X0490417Y0143160D01*
X0490399Y0143111D01*
X0491439Y0142622D02*
X0491472Y0142656D01*
X0491502Y0142693D01*
X0491530Y0142733D01*
X0491554Y0142774D01*
X0491574Y0142817D01*
X0491591Y0142862D01*
X0491605Y0142908D01*
X0491614Y0142955D01*
X0491620Y0143002D01*
X0491622Y0143050D01*
X0491620Y0143095D01*
X0491614Y0143141D01*
X0491605Y0143185D01*
X0491592Y0143229D01*
X0491576Y0143271D01*
X0491556Y0143312D01*
X0491532Y0143351D01*
X0491506Y0143388D01*
X0491477Y0143423D01*
X0491445Y0143455D01*
X0491410Y0143484D01*
X0491373Y0143510D01*
X0491334Y0143534D01*
X0491293Y0143554D01*
X0491251Y0143570D01*
X0491207Y0143583D01*
X0491163Y0143592D01*
X0491117Y0143598D01*
X0491072Y0143600D01*
X0506400Y0143600D02*
X0507133Y0143600D01*
X0507176Y0143598D01*
X0507218Y0143593D01*
X0507260Y0143583D01*
X0507300Y0143571D01*
X0507340Y0143554D01*
X0507378Y0143534D01*
X0507413Y0143512D01*
X0507447Y0143486D01*
X0507479Y0143457D01*
X0507508Y0143425D01*
X0507534Y0143391D01*
X0507556Y0143356D01*
X0507576Y0143318D01*
X0507593Y0143278D01*
X0507605Y0143238D01*
X0507615Y0143196D01*
X0507620Y0143154D01*
X0507622Y0143111D01*
X0507620Y0143068D01*
X0507615Y0143026D01*
X0507605Y0142984D01*
X0507593Y0142944D01*
X0507576Y0142904D01*
X0507556Y0142867D01*
X0507534Y0142831D01*
X0507508Y0142797D01*
X0507479Y0142765D01*
X0507447Y0142736D01*
X0507413Y0142710D01*
X0507378Y0142688D01*
X0507340Y0142668D01*
X0507300Y0142651D01*
X0507260Y0142639D01*
X0507218Y0142629D01*
X0507176Y0142624D01*
X0507133Y0142622D01*
X0506644Y0142622D01*
X0507011Y0142622D02*
X0507059Y0142620D01*
X0507107Y0142614D01*
X0507154Y0142605D01*
X0507200Y0142592D01*
X0507245Y0142575D01*
X0507288Y0142555D01*
X0507330Y0142532D01*
X0507370Y0142505D01*
X0507408Y0142476D01*
X0507443Y0142443D01*
X0507476Y0142408D01*
X0507505Y0142370D01*
X0507532Y0142330D01*
X0507555Y0142288D01*
X0507575Y0142245D01*
X0507592Y0142200D01*
X0507605Y0142154D01*
X0507614Y0142107D01*
X0507620Y0142059D01*
X0507622Y0142011D01*
X0507620Y0141963D01*
X0507614Y0141915D01*
X0507605Y0141868D01*
X0507592Y0141822D01*
X0507575Y0141777D01*
X0507555Y0141734D01*
X0507532Y0141692D01*
X0507505Y0141652D01*
X0507476Y0141614D01*
X0507443Y0141579D01*
X0507408Y0141546D01*
X0507370Y0141517D01*
X0507330Y0141490D01*
X0507288Y0141467D01*
X0507245Y0141447D01*
X0507200Y0141430D01*
X0507154Y0141417D01*
X0507107Y0141408D01*
X0507059Y0141402D01*
X0507011Y0141400D01*
X0506400Y0141400D01*
D16*
X0471300Y0207300D02*
X0471300Y0211300D01*
X0437300Y0233300D02*
X0433300Y0233300D01*
X0409300Y0233300D02*
X0405300Y0233300D01*
X0384300Y0233300D02*
X0380300Y0233300D01*
X0441082Y0272394D02*
X0441084Y0272441D01*
X0441090Y0272487D01*
X0441099Y0272533D01*
X0441113Y0272577D01*
X0441130Y0272621D01*
X0441151Y0272662D01*
X0441175Y0272702D01*
X0441202Y0272740D01*
X0441233Y0272775D01*
X0441266Y0272808D01*
X0441302Y0272838D01*
X0441341Y0272864D01*
X0441381Y0272888D01*
X0441423Y0272907D01*
X0441467Y0272924D01*
X0441512Y0272936D01*
X0441558Y0272945D01*
X0441604Y0272950D01*
X0441651Y0272951D01*
X0441697Y0272948D01*
X0441743Y0272941D01*
X0441789Y0272930D01*
X0441833Y0272916D01*
X0441876Y0272898D01*
X0441917Y0272876D01*
X0441957Y0272851D01*
X0441994Y0272823D01*
X0442029Y0272792D01*
X0442061Y0272758D01*
X0442090Y0272721D01*
X0442115Y0272683D01*
X0442138Y0272642D01*
X0442157Y0272599D01*
X0442172Y0272555D01*
X0442184Y0272510D01*
X0442192Y0272464D01*
X0442196Y0272417D01*
X0442196Y0272371D01*
X0442192Y0272324D01*
X0442184Y0272278D01*
X0442172Y0272233D01*
X0442157Y0272189D01*
X0442138Y0272146D01*
X0442115Y0272105D01*
X0442090Y0272067D01*
X0442061Y0272030D01*
X0442029Y0271996D01*
X0441994Y0271965D01*
X0441957Y0271937D01*
X0441918Y0271912D01*
X0441876Y0271890D01*
X0441833Y0271872D01*
X0441789Y0271858D01*
X0441743Y0271847D01*
X0441697Y0271840D01*
X0441651Y0271837D01*
X0441604Y0271838D01*
X0441558Y0271843D01*
X0441512Y0271852D01*
X0441467Y0271864D01*
X0441423Y0271881D01*
X0441381Y0271900D01*
X0441341Y0271924D01*
X0441302Y0271950D01*
X0441266Y0271980D01*
X0441233Y0272013D01*
X0441202Y0272048D01*
X0441175Y0272086D01*
X0441151Y0272126D01*
X0441130Y0272167D01*
X0441113Y0272211D01*
X0441099Y0272255D01*
X0441090Y0272301D01*
X0441084Y0272347D01*
X0441082Y0272394D01*
X0469300Y0273300D02*
X0473300Y0273300D01*
X0495800Y0274300D02*
X0495800Y0270300D01*
X0472300Y0301300D02*
X0468300Y0301300D01*
X0458300Y0301300D02*
X0454300Y0301300D01*
X0471300Y0322300D02*
X0471300Y0326300D01*
X0469300Y0346300D02*
X0473300Y0346300D01*
X0494300Y0346300D02*
X0498300Y0346300D01*
X0519300Y0346300D02*
X0523300Y0346300D01*
X0544300Y0346300D02*
X0548300Y0346300D01*
X0574300Y0301300D02*
X0578300Y0301300D01*
D17*
X0547900Y0300109D02*
X0547900Y0303884D01*
X0542731Y0303884D01*
X0542700Y0298231D02*
X0542700Y0296424D01*
X0547900Y0294491D02*
X0547900Y0290716D01*
X0542731Y0290716D01*
X0422520Y0350473D02*
X0422520Y0372127D01*
X0400080Y0372127D01*
X0400080Y0350473D01*
X0422520Y0350473D01*
X0364473Y0285973D02*
X0358961Y0285973D01*
X0358961Y0258414D01*
X0364473Y0258414D01*
X0364473Y0285973D01*
X0358961Y0285973D02*
X0336914Y0285973D01*
X0336914Y0258414D01*
X0358961Y0258414D01*
D18*
X0576300Y0344372D03*
M02*
