G75*
%MOIN*%
%OFA0B0*%
%FSLAX25Y25*%
%IPPOS*%
%LPD*%
%AMOC8*
5,1,8,0,0,1.08239X$1,22.5*
%
%ADD10R,0.03740X0.04060*%
%ADD11R,0.03150X0.03150*%
%ADD12C,0.01102*%
%ADD13R,0.03150X0.00906*%
%ADD14R,0.03150X0.02362*%
%ADD15R,0.07874X0.19685*%
%ADD16R,0.05906X0.05118*%
%ADD17R,0.05118X0.05906*%
%ADD18R,0.04724X0.04724*%
%ADD19R,0.04724X0.03937*%
%ADD20C,0.04000*%
%ADD21R,0.04500X0.05000*%
D10*
X0185150Y0196300D03*
X0191450Y0196300D03*
X0191450Y0215300D03*
X0185150Y0215300D03*
X0284150Y0356300D03*
X0290450Y0356300D03*
D11*
X0420347Y0146300D03*
X0426253Y0146300D03*
D12*
X0446363Y0271371D02*
X0446363Y0273615D01*
X0448331Y0273615D02*
X0448331Y0271371D01*
X0450300Y0271371D02*
X0450300Y0273615D01*
X0452269Y0273615D02*
X0452269Y0271371D01*
X0454237Y0271371D02*
X0454237Y0273615D01*
X0454237Y0282985D02*
X0454237Y0285229D01*
X0452269Y0285229D02*
X0452269Y0282985D01*
X0450300Y0282985D02*
X0450300Y0285229D01*
X0448331Y0285229D02*
X0448331Y0282985D01*
X0446363Y0282985D02*
X0446363Y0285229D01*
D13*
X0444552Y0280662D03*
X0444552Y0279087D03*
X0444552Y0277513D03*
X0444552Y0275938D03*
X0456048Y0275938D03*
X0456048Y0277513D03*
X0456048Y0279087D03*
X0456048Y0280662D03*
D14*
X0452269Y0279875D03*
X0452269Y0276725D03*
X0448331Y0276725D03*
X0448331Y0279875D03*
D15*
X0417599Y0361300D03*
X0405001Y0361300D03*
D16*
X0471300Y0350040D03*
X0471300Y0342560D03*
X0496300Y0342560D03*
X0496300Y0350040D03*
X0521300Y0350040D03*
X0521300Y0342560D03*
X0546300Y0342560D03*
X0546300Y0350040D03*
X0576300Y0305040D03*
X0576300Y0297560D03*
X0470300Y0297560D03*
X0470300Y0305040D03*
X0456300Y0305040D03*
X0456300Y0297560D03*
X0471300Y0277040D03*
X0471300Y0269560D03*
X0435300Y0237040D03*
X0435300Y0229560D03*
X0407300Y0229560D03*
X0407300Y0237040D03*
X0382300Y0237040D03*
X0382300Y0229560D03*
D17*
X0467560Y0209300D03*
X0475040Y0209300D03*
X0492060Y0272300D03*
X0499540Y0272300D03*
X0475040Y0324300D03*
X0467560Y0324300D03*
D18*
X0576300Y0341166D03*
X0576300Y0349434D03*
D19*
X0541363Y0301040D03*
X0541363Y0293560D03*
X0549237Y0297300D03*
D20*
X0035300Y0069300D03*
X0553300Y0401300D03*
X0595300Y0090300D03*
D21*
X0040800Y0186300D03*
X0033800Y0186300D03*
M02*
