G75*
%MOIN*%
%OFA0B0*%
%FSLAX25Y25*%
%IPPOS*%
%LPD*%
%AMOC8*
5,1,8,0,0,1.08239X$1,22.5*
%
%ADD10C,0.00500*%
%ADD11C,0.00300*%
%ADD12C,0.02000*%
D10*
X0234100Y0164750D02*
X0236600Y0164750D01*
X0234475Y0167250D01*
X0235225Y0169250D02*
X0235298Y0169248D01*
X0235370Y0169243D01*
X0235442Y0169234D01*
X0235514Y0169221D01*
X0235585Y0169205D01*
X0235655Y0169185D01*
X0235723Y0169161D01*
X0235791Y0169135D01*
X0235857Y0169104D01*
X0235922Y0169071D01*
X0235984Y0169034D01*
X0236045Y0168995D01*
X0236104Y0168952D01*
X0236161Y0168906D01*
X0236215Y0168858D01*
X0236266Y0168807D01*
X0236316Y0168753D01*
X0236362Y0168697D01*
X0236405Y0168639D01*
X0236446Y0168578D01*
X0236483Y0168516D01*
X0236517Y0168452D01*
X0236548Y0168386D01*
X0236576Y0168319D01*
X0236600Y0168250D01*
X0234475Y0167250D02*
X0234429Y0167296D01*
X0234385Y0167345D01*
X0234345Y0167396D01*
X0234307Y0167449D01*
X0234272Y0167504D01*
X0234240Y0167561D01*
X0234211Y0167619D01*
X0234185Y0167679D01*
X0234163Y0167741D01*
X0234144Y0167803D01*
X0234128Y0167866D01*
X0234116Y0167930D01*
X0234107Y0167995D01*
X0234102Y0168060D01*
X0234100Y0168125D01*
X0234102Y0168190D01*
X0234108Y0168256D01*
X0234117Y0168320D01*
X0234130Y0168384D01*
X0234147Y0168448D01*
X0234168Y0168510D01*
X0234192Y0168571D01*
X0234220Y0168630D01*
X0234251Y0168688D01*
X0234285Y0168743D01*
X0234323Y0168797D01*
X0234363Y0168848D01*
X0234407Y0168897D01*
X0234453Y0168943D01*
X0234502Y0168987D01*
X0234553Y0169027D01*
X0234607Y0169065D01*
X0234663Y0169099D01*
X0234720Y0169130D01*
X0234779Y0169158D01*
X0234840Y0169182D01*
X0234902Y0169203D01*
X0234966Y0169220D01*
X0235030Y0169233D01*
X0235094Y0169242D01*
X0235160Y0169248D01*
X0235225Y0169250D01*
X0238750Y0169250D02*
X0238750Y0166000D01*
X0238752Y0165931D01*
X0238758Y0165862D01*
X0238767Y0165794D01*
X0238780Y0165727D01*
X0238797Y0165660D01*
X0238818Y0165594D01*
X0238842Y0165530D01*
X0238870Y0165467D01*
X0238901Y0165405D01*
X0238935Y0165345D01*
X0238973Y0165288D01*
X0239014Y0165232D01*
X0239057Y0165179D01*
X0239104Y0165128D01*
X0239153Y0165080D01*
X0239205Y0165035D01*
X0239260Y0164993D01*
X0239316Y0164954D01*
X0239375Y0164917D01*
X0239436Y0164885D01*
X0239498Y0164855D01*
X0239562Y0164829D01*
X0239627Y0164807D01*
X0239693Y0164788D01*
X0239760Y0164773D01*
X0239828Y0164762D01*
X0239897Y0164754D01*
X0239966Y0164750D01*
X0240034Y0164750D01*
X0240103Y0164754D01*
X0240172Y0164762D01*
X0240240Y0164773D01*
X0240307Y0164788D01*
X0240373Y0164807D01*
X0240438Y0164829D01*
X0240502Y0164855D01*
X0240564Y0164885D01*
X0240625Y0164917D01*
X0240684Y0164954D01*
X0240740Y0164993D01*
X0240795Y0165035D01*
X0240847Y0165080D01*
X0240896Y0165128D01*
X0240943Y0165179D01*
X0240986Y0165232D01*
X0241027Y0165288D01*
X0241065Y0165345D01*
X0241099Y0165405D01*
X0241130Y0165467D01*
X0241158Y0165530D01*
X0241182Y0165594D01*
X0241203Y0165660D01*
X0241220Y0165727D01*
X0241233Y0165794D01*
X0241242Y0165862D01*
X0241248Y0165931D01*
X0241250Y0166000D01*
X0241250Y0169250D01*
X0288031Y0133150D02*
X0288031Y0126850D01*
X0289016Y0129606D02*
X0290984Y0129606D01*
X0290000Y0130000D02*
X0289409Y0130984D01*
X0290591Y0130984D01*
X0290000Y0130000D01*
X0290000Y0130591D02*
X0290000Y0130787D01*
X0291969Y0133150D02*
X0291969Y0126850D01*
X0291969Y0102150D02*
X0291969Y0095850D01*
X0290984Y0098606D02*
X0289016Y0098606D01*
X0290000Y0099000D02*
X0289409Y0099984D01*
X0290591Y0099984D01*
X0290000Y0099000D01*
X0290000Y0099591D02*
X0290000Y0099787D01*
X0288031Y0102150D02*
X0288031Y0095850D01*
X0287531Y0071150D02*
X0287531Y0064850D01*
X0288516Y0067606D02*
X0290484Y0067606D01*
X0289500Y0068000D02*
X0288909Y0068984D01*
X0290091Y0068984D01*
X0289500Y0068000D01*
X0289500Y0068591D02*
X0289500Y0068787D01*
X0291469Y0071150D02*
X0291469Y0064850D01*
X0306815Y0171500D02*
X0310752Y0171500D01*
X0306815Y0171500D02*
X0306815Y0191185D01*
X0306815Y0206933D02*
X0306815Y0220713D01*
X0346185Y0220713D01*
X0346185Y0206933D01*
X0346185Y0191185D02*
X0346185Y0171500D01*
X0342248Y0171500D01*
X0314689Y0199059D02*
X0314693Y0199349D01*
X0314703Y0199639D01*
X0314721Y0199928D01*
X0314746Y0200217D01*
X0314778Y0200505D01*
X0314817Y0200792D01*
X0314863Y0201078D01*
X0314916Y0201363D01*
X0314976Y0201647D01*
X0315043Y0201929D01*
X0315117Y0202209D01*
X0315198Y0202488D01*
X0315285Y0202764D01*
X0315379Y0203038D01*
X0315480Y0203310D01*
X0315588Y0203579D01*
X0315702Y0203845D01*
X0315823Y0204109D01*
X0315950Y0204369D01*
X0316084Y0204627D01*
X0316223Y0204881D01*
X0316369Y0205131D01*
X0316521Y0205378D01*
X0316680Y0205621D01*
X0316844Y0205860D01*
X0317013Y0206095D01*
X0317189Y0206326D01*
X0317370Y0206552D01*
X0317557Y0206774D01*
X0317749Y0206991D01*
X0317946Y0207203D01*
X0318148Y0207411D01*
X0318356Y0207613D01*
X0318568Y0207810D01*
X0318785Y0208002D01*
X0319007Y0208189D01*
X0319233Y0208370D01*
X0319464Y0208546D01*
X0319699Y0208715D01*
X0319938Y0208879D01*
X0320181Y0209038D01*
X0320428Y0209190D01*
X0320678Y0209336D01*
X0320932Y0209475D01*
X0321190Y0209609D01*
X0321450Y0209736D01*
X0321714Y0209857D01*
X0321980Y0209971D01*
X0322249Y0210079D01*
X0322521Y0210180D01*
X0322795Y0210274D01*
X0323071Y0210361D01*
X0323350Y0210442D01*
X0323630Y0210516D01*
X0323912Y0210583D01*
X0324196Y0210643D01*
X0324481Y0210696D01*
X0324767Y0210742D01*
X0325054Y0210781D01*
X0325342Y0210813D01*
X0325631Y0210838D01*
X0325920Y0210856D01*
X0326210Y0210866D01*
X0326500Y0210870D01*
X0326790Y0210866D01*
X0327080Y0210856D01*
X0327369Y0210838D01*
X0327658Y0210813D01*
X0327946Y0210781D01*
X0328233Y0210742D01*
X0328519Y0210696D01*
X0328804Y0210643D01*
X0329088Y0210583D01*
X0329370Y0210516D01*
X0329650Y0210442D01*
X0329929Y0210361D01*
X0330205Y0210274D01*
X0330479Y0210180D01*
X0330751Y0210079D01*
X0331020Y0209971D01*
X0331286Y0209857D01*
X0331550Y0209736D01*
X0331810Y0209609D01*
X0332068Y0209475D01*
X0332322Y0209336D01*
X0332572Y0209190D01*
X0332819Y0209038D01*
X0333062Y0208879D01*
X0333301Y0208715D01*
X0333536Y0208546D01*
X0333767Y0208370D01*
X0333993Y0208189D01*
X0334215Y0208002D01*
X0334432Y0207810D01*
X0334644Y0207613D01*
X0334852Y0207411D01*
X0335054Y0207203D01*
X0335251Y0206991D01*
X0335443Y0206774D01*
X0335630Y0206552D01*
X0335811Y0206326D01*
X0335987Y0206095D01*
X0336156Y0205860D01*
X0336320Y0205621D01*
X0336479Y0205378D01*
X0336631Y0205131D01*
X0336777Y0204881D01*
X0336916Y0204627D01*
X0337050Y0204369D01*
X0337177Y0204109D01*
X0337298Y0203845D01*
X0337412Y0203579D01*
X0337520Y0203310D01*
X0337621Y0203038D01*
X0337715Y0202764D01*
X0337802Y0202488D01*
X0337883Y0202209D01*
X0337957Y0201929D01*
X0338024Y0201647D01*
X0338084Y0201363D01*
X0338137Y0201078D01*
X0338183Y0200792D01*
X0338222Y0200505D01*
X0338254Y0200217D01*
X0338279Y0199928D01*
X0338297Y0199639D01*
X0338307Y0199349D01*
X0338311Y0199059D01*
X0338307Y0198769D01*
X0338297Y0198479D01*
X0338279Y0198190D01*
X0338254Y0197901D01*
X0338222Y0197613D01*
X0338183Y0197326D01*
X0338137Y0197040D01*
X0338084Y0196755D01*
X0338024Y0196471D01*
X0337957Y0196189D01*
X0337883Y0195909D01*
X0337802Y0195630D01*
X0337715Y0195354D01*
X0337621Y0195080D01*
X0337520Y0194808D01*
X0337412Y0194539D01*
X0337298Y0194273D01*
X0337177Y0194009D01*
X0337050Y0193749D01*
X0336916Y0193491D01*
X0336777Y0193237D01*
X0336631Y0192987D01*
X0336479Y0192740D01*
X0336320Y0192497D01*
X0336156Y0192258D01*
X0335987Y0192023D01*
X0335811Y0191792D01*
X0335630Y0191566D01*
X0335443Y0191344D01*
X0335251Y0191127D01*
X0335054Y0190915D01*
X0334852Y0190707D01*
X0334644Y0190505D01*
X0334432Y0190308D01*
X0334215Y0190116D01*
X0333993Y0189929D01*
X0333767Y0189748D01*
X0333536Y0189572D01*
X0333301Y0189403D01*
X0333062Y0189239D01*
X0332819Y0189080D01*
X0332572Y0188928D01*
X0332322Y0188782D01*
X0332068Y0188643D01*
X0331810Y0188509D01*
X0331550Y0188382D01*
X0331286Y0188261D01*
X0331020Y0188147D01*
X0330751Y0188039D01*
X0330479Y0187938D01*
X0330205Y0187844D01*
X0329929Y0187757D01*
X0329650Y0187676D01*
X0329370Y0187602D01*
X0329088Y0187535D01*
X0328804Y0187475D01*
X0328519Y0187422D01*
X0328233Y0187376D01*
X0327946Y0187337D01*
X0327658Y0187305D01*
X0327369Y0187280D01*
X0327080Y0187262D01*
X0326790Y0187252D01*
X0326500Y0187248D01*
X0326210Y0187252D01*
X0325920Y0187262D01*
X0325631Y0187280D01*
X0325342Y0187305D01*
X0325054Y0187337D01*
X0324767Y0187376D01*
X0324481Y0187422D01*
X0324196Y0187475D01*
X0323912Y0187535D01*
X0323630Y0187602D01*
X0323350Y0187676D01*
X0323071Y0187757D01*
X0322795Y0187844D01*
X0322521Y0187938D01*
X0322249Y0188039D01*
X0321980Y0188147D01*
X0321714Y0188261D01*
X0321450Y0188382D01*
X0321190Y0188509D01*
X0320932Y0188643D01*
X0320678Y0188782D01*
X0320428Y0188928D01*
X0320181Y0189080D01*
X0319938Y0189239D01*
X0319699Y0189403D01*
X0319464Y0189572D01*
X0319233Y0189748D01*
X0319007Y0189929D01*
X0318785Y0190116D01*
X0318568Y0190308D01*
X0318356Y0190505D01*
X0318148Y0190707D01*
X0317946Y0190915D01*
X0317749Y0191127D01*
X0317557Y0191344D01*
X0317370Y0191566D01*
X0317189Y0191792D01*
X0317013Y0192023D01*
X0316844Y0192258D01*
X0316680Y0192497D01*
X0316521Y0192740D01*
X0316369Y0192987D01*
X0316223Y0193237D01*
X0316084Y0193491D01*
X0315950Y0193749D01*
X0315823Y0194009D01*
X0315702Y0194273D01*
X0315588Y0194539D01*
X0315480Y0194808D01*
X0315379Y0195080D01*
X0315285Y0195354D01*
X0315198Y0195630D01*
X0315117Y0195909D01*
X0315043Y0196189D01*
X0314976Y0196471D01*
X0314916Y0196755D01*
X0314863Y0197040D01*
X0314817Y0197326D01*
X0314778Y0197613D01*
X0314746Y0197901D01*
X0314721Y0198190D01*
X0314703Y0198479D01*
X0314693Y0198769D01*
X0314689Y0199059D01*
X0286000Y0355000D02*
X0286000Y0359000D01*
D11*
X0285862Y0361150D02*
X0285862Y0362439D01*
X0285379Y0361794D02*
X0286990Y0361794D01*
X0286346Y0364050D01*
X0289044Y0364050D02*
X0289850Y0364050D01*
X0289850Y0361150D01*
X0289850Y0362439D02*
X0289044Y0362439D01*
X0288883Y0362439D02*
X0288239Y0361150D01*
X0289044Y0362438D02*
X0288989Y0362440D01*
X0288934Y0362446D01*
X0288880Y0362455D01*
X0288827Y0362468D01*
X0288774Y0362485D01*
X0288723Y0362505D01*
X0288673Y0362528D01*
X0288625Y0362555D01*
X0288579Y0362586D01*
X0288535Y0362619D01*
X0288494Y0362655D01*
X0288455Y0362694D01*
X0288419Y0362735D01*
X0288386Y0362779D01*
X0288355Y0362825D01*
X0288328Y0362873D01*
X0288305Y0362923D01*
X0288285Y0362974D01*
X0288268Y0363027D01*
X0288255Y0363080D01*
X0288246Y0363134D01*
X0288240Y0363189D01*
X0288238Y0363244D01*
X0288240Y0363299D01*
X0288246Y0363354D01*
X0288255Y0363408D01*
X0288268Y0363461D01*
X0288285Y0363514D01*
X0288305Y0363565D01*
X0288328Y0363615D01*
X0288355Y0363663D01*
X0288386Y0363709D01*
X0288419Y0363753D01*
X0288455Y0363794D01*
X0288494Y0363833D01*
X0288535Y0363869D01*
X0288579Y0363902D01*
X0288625Y0363933D01*
X0288673Y0363960D01*
X0288723Y0363983D01*
X0288774Y0364003D01*
X0288827Y0364020D01*
X0288880Y0364033D01*
X0288934Y0364042D01*
X0288989Y0364048D01*
X0289044Y0364050D01*
X0342685Y0224550D02*
X0342685Y0221650D01*
X0343490Y0221650D02*
X0341879Y0221650D01*
X0343490Y0223906D02*
X0342685Y0224550D01*
X0345544Y0224550D02*
X0346350Y0224550D01*
X0346350Y0221650D01*
X0346350Y0222939D02*
X0345544Y0222939D01*
X0345383Y0222939D02*
X0344739Y0221650D01*
X0345544Y0222938D02*
X0345489Y0222940D01*
X0345434Y0222946D01*
X0345380Y0222955D01*
X0345327Y0222968D01*
X0345274Y0222985D01*
X0345223Y0223005D01*
X0345173Y0223028D01*
X0345125Y0223055D01*
X0345079Y0223086D01*
X0345035Y0223119D01*
X0344994Y0223155D01*
X0344955Y0223194D01*
X0344919Y0223235D01*
X0344886Y0223279D01*
X0344855Y0223325D01*
X0344828Y0223373D01*
X0344805Y0223423D01*
X0344785Y0223474D01*
X0344768Y0223527D01*
X0344755Y0223580D01*
X0344746Y0223634D01*
X0344740Y0223689D01*
X0344738Y0223744D01*
X0344740Y0223799D01*
X0344746Y0223854D01*
X0344755Y0223908D01*
X0344768Y0223961D01*
X0344785Y0224014D01*
X0344805Y0224065D01*
X0344828Y0224115D01*
X0344855Y0224163D01*
X0344886Y0224209D01*
X0344919Y0224253D01*
X0344955Y0224294D01*
X0344994Y0224333D01*
X0345035Y0224369D01*
X0345079Y0224402D01*
X0345125Y0224433D01*
X0345173Y0224460D01*
X0345223Y0224483D01*
X0345274Y0224503D01*
X0345327Y0224520D01*
X0345380Y0224533D01*
X0345434Y0224542D01*
X0345489Y0224548D01*
X0345544Y0224550D01*
X0285044Y0134850D02*
X0283756Y0134850D01*
X0283701Y0134848D01*
X0283646Y0134842D01*
X0283592Y0134833D01*
X0283539Y0134820D01*
X0283486Y0134803D01*
X0283435Y0134783D01*
X0283385Y0134760D01*
X0283337Y0134733D01*
X0283291Y0134702D01*
X0283247Y0134669D01*
X0283206Y0134633D01*
X0283167Y0134594D01*
X0283131Y0134553D01*
X0283098Y0134509D01*
X0283067Y0134463D01*
X0283040Y0134415D01*
X0283017Y0134365D01*
X0282997Y0134314D01*
X0282980Y0134261D01*
X0282967Y0134208D01*
X0282958Y0134154D01*
X0282952Y0134099D01*
X0282950Y0134044D01*
X0282950Y0133239D01*
X0285850Y0133239D01*
X0285850Y0134044D01*
X0285848Y0134099D01*
X0285842Y0134154D01*
X0285833Y0134208D01*
X0285820Y0134261D01*
X0285803Y0134314D01*
X0285783Y0134365D01*
X0285760Y0134415D01*
X0285733Y0134463D01*
X0285702Y0134509D01*
X0285669Y0134553D01*
X0285633Y0134594D01*
X0285594Y0134633D01*
X0285553Y0134669D01*
X0285509Y0134702D01*
X0285463Y0134733D01*
X0285415Y0134760D01*
X0285365Y0134783D01*
X0285314Y0134803D01*
X0285261Y0134820D01*
X0285208Y0134833D01*
X0285154Y0134842D01*
X0285099Y0134848D01*
X0285044Y0134850D01*
X0285850Y0132038D02*
X0285850Y0130749D01*
X0282950Y0130749D01*
X0282950Y0132038D01*
X0284561Y0131716D02*
X0284561Y0130749D01*
X0284239Y0128754D02*
X0282950Y0129398D01*
X0284239Y0128593D02*
X0284239Y0127787D01*
X0284238Y0128593D02*
X0284240Y0128648D01*
X0284246Y0128703D01*
X0284255Y0128757D01*
X0284268Y0128810D01*
X0284285Y0128863D01*
X0284305Y0128914D01*
X0284328Y0128964D01*
X0284355Y0129012D01*
X0284386Y0129058D01*
X0284419Y0129102D01*
X0284455Y0129143D01*
X0284494Y0129182D01*
X0284535Y0129218D01*
X0284579Y0129251D01*
X0284625Y0129282D01*
X0284673Y0129309D01*
X0284723Y0129332D01*
X0284774Y0129352D01*
X0284827Y0129369D01*
X0284880Y0129382D01*
X0284934Y0129391D01*
X0284989Y0129397D01*
X0285044Y0129399D01*
X0285099Y0129397D01*
X0285154Y0129391D01*
X0285208Y0129382D01*
X0285261Y0129369D01*
X0285314Y0129352D01*
X0285365Y0129332D01*
X0285415Y0129309D01*
X0285463Y0129282D01*
X0285509Y0129251D01*
X0285553Y0129218D01*
X0285594Y0129182D01*
X0285633Y0129143D01*
X0285669Y0129102D01*
X0285702Y0129058D01*
X0285733Y0129012D01*
X0285760Y0128964D01*
X0285783Y0128914D01*
X0285803Y0128863D01*
X0285820Y0128810D01*
X0285833Y0128757D01*
X0285842Y0128703D01*
X0285848Y0128648D01*
X0285850Y0128593D01*
X0285850Y0127787D01*
X0282950Y0127787D01*
X0282950Y0103850D02*
X0285850Y0103850D01*
X0285850Y0102239D02*
X0282950Y0103850D01*
X0282950Y0102239D02*
X0285850Y0102239D01*
X0285850Y0101038D02*
X0285850Y0099749D01*
X0282950Y0099749D01*
X0282950Y0101038D01*
X0284561Y0100716D02*
X0284561Y0099749D01*
X0284561Y0098220D02*
X0284561Y0097253D01*
X0285850Y0097253D02*
X0285850Y0098542D01*
X0285850Y0097253D02*
X0282950Y0097253D01*
X0282950Y0098542D01*
X0282950Y0095902D02*
X0284239Y0095258D01*
X0284239Y0095097D02*
X0284239Y0094291D01*
X0284238Y0095097D02*
X0284240Y0095152D01*
X0284246Y0095207D01*
X0284255Y0095261D01*
X0284268Y0095314D01*
X0284285Y0095367D01*
X0284305Y0095418D01*
X0284328Y0095468D01*
X0284355Y0095516D01*
X0284386Y0095562D01*
X0284419Y0095606D01*
X0284455Y0095647D01*
X0284494Y0095686D01*
X0284535Y0095722D01*
X0284579Y0095755D01*
X0284625Y0095786D01*
X0284673Y0095813D01*
X0284723Y0095836D01*
X0284774Y0095856D01*
X0284827Y0095873D01*
X0284880Y0095886D01*
X0284934Y0095895D01*
X0284989Y0095901D01*
X0285044Y0095903D01*
X0285099Y0095901D01*
X0285154Y0095895D01*
X0285208Y0095886D01*
X0285261Y0095873D01*
X0285314Y0095856D01*
X0285365Y0095836D01*
X0285415Y0095813D01*
X0285463Y0095786D01*
X0285509Y0095755D01*
X0285553Y0095722D01*
X0285594Y0095686D01*
X0285633Y0095647D01*
X0285669Y0095606D01*
X0285702Y0095562D01*
X0285733Y0095516D01*
X0285760Y0095468D01*
X0285783Y0095418D01*
X0285803Y0095367D01*
X0285820Y0095314D01*
X0285833Y0095261D01*
X0285842Y0095207D01*
X0285848Y0095152D01*
X0285850Y0095097D01*
X0285850Y0094291D01*
X0282950Y0094291D01*
X0282950Y0092810D02*
X0282950Y0091843D01*
X0282952Y0091795D01*
X0282957Y0091747D01*
X0282966Y0091700D01*
X0282979Y0091653D01*
X0282995Y0091608D01*
X0283014Y0091564D01*
X0283036Y0091521D01*
X0283062Y0091480D01*
X0283091Y0091441D01*
X0283122Y0091405D01*
X0283156Y0091371D01*
X0283192Y0091340D01*
X0283231Y0091311D01*
X0283272Y0091285D01*
X0283315Y0091263D01*
X0283359Y0091244D01*
X0283404Y0091228D01*
X0283451Y0091215D01*
X0283498Y0091206D01*
X0283546Y0091201D01*
X0283594Y0091199D01*
X0285206Y0091199D01*
X0285254Y0091201D01*
X0285302Y0091206D01*
X0285349Y0091215D01*
X0285396Y0091228D01*
X0285441Y0091244D01*
X0285485Y0091263D01*
X0285528Y0091285D01*
X0285569Y0091311D01*
X0285608Y0091340D01*
X0285644Y0091371D01*
X0285678Y0091405D01*
X0285709Y0091441D01*
X0285738Y0091480D01*
X0285764Y0091521D01*
X0285786Y0091564D01*
X0285805Y0091608D01*
X0285821Y0091653D01*
X0285834Y0091700D01*
X0285843Y0091747D01*
X0285848Y0091795D01*
X0285850Y0091843D01*
X0285850Y0092810D01*
X0284561Y0092810D02*
X0282950Y0092810D01*
X0284561Y0092810D02*
X0284561Y0092327D01*
X0285350Y0072850D02*
X0285350Y0071561D01*
X0282450Y0071561D01*
X0282450Y0072850D01*
X0284061Y0072528D02*
X0284061Y0071561D01*
X0283256Y0070094D02*
X0285350Y0070094D01*
X0285350Y0068483D02*
X0283256Y0068483D01*
X0283256Y0068482D02*
X0283201Y0068484D01*
X0283146Y0068490D01*
X0283092Y0068499D01*
X0283039Y0068512D01*
X0282986Y0068529D01*
X0282935Y0068549D01*
X0282885Y0068572D01*
X0282837Y0068599D01*
X0282791Y0068630D01*
X0282747Y0068663D01*
X0282706Y0068699D01*
X0282667Y0068738D01*
X0282631Y0068779D01*
X0282598Y0068823D01*
X0282567Y0068869D01*
X0282540Y0068917D01*
X0282517Y0068967D01*
X0282497Y0069018D01*
X0282480Y0069071D01*
X0282467Y0069124D01*
X0282458Y0069178D01*
X0282452Y0069233D01*
X0282450Y0069288D01*
X0282452Y0069343D01*
X0282458Y0069398D01*
X0282467Y0069452D01*
X0282480Y0069505D01*
X0282497Y0069558D01*
X0282517Y0069609D01*
X0282540Y0069659D01*
X0282567Y0069707D01*
X0282598Y0069753D01*
X0282631Y0069797D01*
X0282667Y0069838D01*
X0282706Y0069877D01*
X0282747Y0069913D01*
X0282791Y0069946D01*
X0282837Y0069977D01*
X0282885Y0070004D01*
X0282935Y0070027D01*
X0282986Y0070047D01*
X0283039Y0070064D01*
X0283092Y0070077D01*
X0283146Y0070086D01*
X0283201Y0070092D01*
X0283256Y0070094D01*
X0282450Y0067282D02*
X0282450Y0065993D01*
X0285350Y0065993D01*
X0285350Y0063959D02*
X0285350Y0063153D01*
X0282450Y0063153D01*
X0282450Y0063959D01*
X0282452Y0064014D01*
X0282458Y0064069D01*
X0282467Y0064123D01*
X0282480Y0064176D01*
X0282497Y0064229D01*
X0282517Y0064280D01*
X0282540Y0064330D01*
X0282567Y0064378D01*
X0282598Y0064424D01*
X0282631Y0064468D01*
X0282667Y0064509D01*
X0282706Y0064548D01*
X0282747Y0064584D01*
X0282791Y0064617D01*
X0282837Y0064648D01*
X0282885Y0064675D01*
X0282935Y0064698D01*
X0282986Y0064718D01*
X0283039Y0064735D01*
X0283092Y0064748D01*
X0283146Y0064757D01*
X0283201Y0064763D01*
X0283256Y0064765D01*
X0283311Y0064763D01*
X0283366Y0064757D01*
X0283420Y0064748D01*
X0283473Y0064735D01*
X0283526Y0064718D01*
X0283577Y0064698D01*
X0283627Y0064675D01*
X0283675Y0064648D01*
X0283721Y0064617D01*
X0283765Y0064584D01*
X0283806Y0064548D01*
X0283845Y0064509D01*
X0283881Y0064468D01*
X0283914Y0064424D01*
X0283945Y0064378D01*
X0283972Y0064330D01*
X0283995Y0064280D01*
X0284015Y0064229D01*
X0284032Y0064176D01*
X0284045Y0064123D01*
X0284054Y0064069D01*
X0284060Y0064014D01*
X0284062Y0063959D01*
X0284061Y0063959D02*
X0284061Y0063153D01*
X0284062Y0063959D02*
X0284064Y0064008D01*
X0284070Y0064057D01*
X0284079Y0064106D01*
X0284092Y0064153D01*
X0284109Y0064200D01*
X0284129Y0064245D01*
X0284152Y0064288D01*
X0284179Y0064330D01*
X0284209Y0064369D01*
X0284242Y0064406D01*
X0284278Y0064440D01*
X0284316Y0064471D01*
X0284356Y0064500D01*
X0284398Y0064525D01*
X0284443Y0064547D01*
X0284488Y0064565D01*
X0284535Y0064580D01*
X0284583Y0064591D01*
X0284632Y0064599D01*
X0284681Y0064603D01*
X0284731Y0064603D01*
X0284780Y0064599D01*
X0284829Y0064591D01*
X0284877Y0064580D01*
X0284924Y0064565D01*
X0284969Y0064547D01*
X0285014Y0064525D01*
X0285056Y0064500D01*
X0285096Y0064471D01*
X0285134Y0064440D01*
X0285170Y0064406D01*
X0285203Y0064369D01*
X0285233Y0064330D01*
X0285260Y0064288D01*
X0285283Y0064245D01*
X0285303Y0064200D01*
X0285320Y0064153D01*
X0285333Y0064106D01*
X0285342Y0064057D01*
X0285348Y0064008D01*
X0285350Y0063959D01*
X0164472Y0164650D02*
X0163650Y0164650D01*
X0164472Y0164650D02*
X0164528Y0164652D01*
X0164584Y0164658D01*
X0164639Y0164667D01*
X0164694Y0164680D01*
X0164747Y0164697D01*
X0164799Y0164718D01*
X0164850Y0164742D01*
X0164899Y0164770D01*
X0164946Y0164800D01*
X0164991Y0164834D01*
X0165033Y0164871D01*
X0165073Y0164911D01*
X0165110Y0164953D01*
X0165144Y0164998D01*
X0165174Y0165045D01*
X0165202Y0165094D01*
X0165226Y0165145D01*
X0165247Y0165197D01*
X0165264Y0165250D01*
X0165277Y0165305D01*
X0165286Y0165360D01*
X0165292Y0165416D01*
X0165294Y0165472D01*
X0165294Y0167528D01*
X0165292Y0167584D01*
X0165286Y0167640D01*
X0165277Y0167695D01*
X0165264Y0167750D01*
X0165247Y0167803D01*
X0165226Y0167855D01*
X0165202Y0167906D01*
X0165174Y0167955D01*
X0165144Y0168002D01*
X0165110Y0168047D01*
X0165073Y0168089D01*
X0165033Y0168129D01*
X0164991Y0168166D01*
X0164946Y0168200D01*
X0164899Y0168230D01*
X0164850Y0168258D01*
X0164799Y0168282D01*
X0164747Y0168303D01*
X0164694Y0168320D01*
X0164639Y0168333D01*
X0164584Y0168342D01*
X0164528Y0168348D01*
X0164472Y0168350D01*
X0163650Y0168350D01*
X0155706Y0168350D02*
X0155706Y0164650D01*
X0154678Y0164650D01*
X0154616Y0164652D01*
X0154554Y0164657D01*
X0154493Y0164667D01*
X0154432Y0164680D01*
X0154372Y0164697D01*
X0154313Y0164717D01*
X0154256Y0164741D01*
X0154200Y0164768D01*
X0154146Y0164798D01*
X0154094Y0164832D01*
X0154044Y0164869D01*
X0153996Y0164909D01*
X0153951Y0164951D01*
X0153909Y0164996D01*
X0153869Y0165044D01*
X0153832Y0165094D01*
X0153798Y0165146D01*
X0153768Y0165200D01*
X0153741Y0165256D01*
X0153717Y0165313D01*
X0153697Y0165372D01*
X0153680Y0165432D01*
X0153667Y0165493D01*
X0153657Y0165554D01*
X0153652Y0165616D01*
X0153650Y0165678D01*
X0153650Y0167322D01*
X0153652Y0167384D01*
X0153657Y0167446D01*
X0153667Y0167507D01*
X0153680Y0167568D01*
X0153697Y0167628D01*
X0153717Y0167687D01*
X0153741Y0167744D01*
X0153768Y0167800D01*
X0153798Y0167854D01*
X0153832Y0167906D01*
X0153869Y0167956D01*
X0153909Y0168004D01*
X0153951Y0168049D01*
X0153996Y0168091D01*
X0154044Y0168131D01*
X0154094Y0168168D01*
X0154146Y0168202D01*
X0154200Y0168232D01*
X0154256Y0168259D01*
X0154313Y0168283D01*
X0154372Y0168303D01*
X0154432Y0168320D01*
X0154493Y0168333D01*
X0154554Y0168343D01*
X0154616Y0168348D01*
X0154678Y0168350D01*
X0155706Y0168350D01*
X0146117Y0166089D02*
X0143650Y0166089D01*
X0136117Y0166089D02*
X0133650Y0166089D01*
X0134883Y0164856D02*
X0134883Y0167322D01*
D12*
X0063000Y0057000D02*
X0240000Y0057000D01*
X0240242Y0057003D01*
X0240483Y0057012D01*
X0240724Y0057026D01*
X0240965Y0057047D01*
X0241205Y0057073D01*
X0241445Y0057105D01*
X0241684Y0057143D01*
X0241921Y0057186D01*
X0242158Y0057236D01*
X0242393Y0057291D01*
X0242627Y0057351D01*
X0242859Y0057418D01*
X0243090Y0057489D01*
X0243319Y0057567D01*
X0243546Y0057650D01*
X0243771Y0057738D01*
X0243994Y0057832D01*
X0244214Y0057931D01*
X0244432Y0058036D01*
X0244647Y0058145D01*
X0244860Y0058260D01*
X0245070Y0058380D01*
X0245276Y0058505D01*
X0245480Y0058635D01*
X0245681Y0058770D01*
X0245878Y0058910D01*
X0246072Y0059054D01*
X0246262Y0059203D01*
X0246448Y0059357D01*
X0246631Y0059515D01*
X0246810Y0059677D01*
X0246985Y0059844D01*
X0247156Y0060015D01*
X0247323Y0060190D01*
X0247485Y0060369D01*
X0247643Y0060552D01*
X0247797Y0060738D01*
X0247946Y0060928D01*
X0248090Y0061122D01*
X0248230Y0061319D01*
X0248365Y0061520D01*
X0248495Y0061724D01*
X0248620Y0061930D01*
X0248740Y0062140D01*
X0248855Y0062353D01*
X0248964Y0062568D01*
X0249069Y0062786D01*
X0249168Y0063006D01*
X0249262Y0063229D01*
X0249350Y0063454D01*
X0249433Y0063681D01*
X0249511Y0063910D01*
X0249582Y0064141D01*
X0249649Y0064373D01*
X0249709Y0064607D01*
X0249764Y0064842D01*
X0249814Y0065079D01*
X0249857Y0065316D01*
X0249895Y0065555D01*
X0249927Y0065795D01*
X0249953Y0066035D01*
X0249974Y0066276D01*
X0249988Y0066517D01*
X0249997Y0066758D01*
X0250000Y0067000D01*
X0250000Y0152000D01*
X0249997Y0152242D01*
X0249988Y0152483D01*
X0249974Y0152724D01*
X0249953Y0152965D01*
X0249927Y0153205D01*
X0249895Y0153445D01*
X0249857Y0153684D01*
X0249814Y0153921D01*
X0249764Y0154158D01*
X0249709Y0154393D01*
X0249649Y0154627D01*
X0249582Y0154859D01*
X0249511Y0155090D01*
X0249433Y0155319D01*
X0249350Y0155546D01*
X0249262Y0155771D01*
X0249168Y0155994D01*
X0249069Y0156214D01*
X0248964Y0156432D01*
X0248855Y0156647D01*
X0248740Y0156860D01*
X0248620Y0157070D01*
X0248495Y0157276D01*
X0248365Y0157480D01*
X0248230Y0157681D01*
X0248090Y0157878D01*
X0247946Y0158072D01*
X0247797Y0158262D01*
X0247643Y0158448D01*
X0247485Y0158631D01*
X0247323Y0158810D01*
X0247156Y0158985D01*
X0246985Y0159156D01*
X0246810Y0159323D01*
X0246631Y0159485D01*
X0246448Y0159643D01*
X0246262Y0159797D01*
X0246072Y0159946D01*
X0245878Y0160090D01*
X0245681Y0160230D01*
X0245480Y0160365D01*
X0245276Y0160495D01*
X0245070Y0160620D01*
X0244860Y0160740D01*
X0244647Y0160855D01*
X0244432Y0160964D01*
X0244214Y0161069D01*
X0243994Y0161168D01*
X0243771Y0161262D01*
X0243546Y0161350D01*
X0243319Y0161433D01*
X0243090Y0161511D01*
X0242859Y0161582D01*
X0242627Y0161649D01*
X0242393Y0161709D01*
X0242158Y0161764D01*
X0241921Y0161814D01*
X0241684Y0161857D01*
X0241445Y0161895D01*
X0241205Y0161927D01*
X0240965Y0161953D01*
X0240724Y0161974D01*
X0240483Y0161988D01*
X0240242Y0161997D01*
X0240000Y0162000D01*
X0063000Y0162000D01*
X0062758Y0161997D01*
X0062517Y0161988D01*
X0062276Y0161974D01*
X0062035Y0161953D01*
X0061795Y0161927D01*
X0061555Y0161895D01*
X0061316Y0161857D01*
X0061079Y0161814D01*
X0060842Y0161764D01*
X0060607Y0161709D01*
X0060373Y0161649D01*
X0060141Y0161582D01*
X0059910Y0161511D01*
X0059681Y0161433D01*
X0059454Y0161350D01*
X0059229Y0161262D01*
X0059006Y0161168D01*
X0058786Y0161069D01*
X0058568Y0160964D01*
X0058353Y0160855D01*
X0058140Y0160740D01*
X0057930Y0160620D01*
X0057724Y0160495D01*
X0057520Y0160365D01*
X0057319Y0160230D01*
X0057122Y0160090D01*
X0056928Y0159946D01*
X0056738Y0159797D01*
X0056552Y0159643D01*
X0056369Y0159485D01*
X0056190Y0159323D01*
X0056015Y0159156D01*
X0055844Y0158985D01*
X0055677Y0158810D01*
X0055515Y0158631D01*
X0055357Y0158448D01*
X0055203Y0158262D01*
X0055054Y0158072D01*
X0054910Y0157878D01*
X0054770Y0157681D01*
X0054635Y0157480D01*
X0054505Y0157276D01*
X0054380Y0157070D01*
X0054260Y0156860D01*
X0054145Y0156647D01*
X0054036Y0156432D01*
X0053931Y0156214D01*
X0053832Y0155994D01*
X0053738Y0155771D01*
X0053650Y0155546D01*
X0053567Y0155319D01*
X0053489Y0155090D01*
X0053418Y0154859D01*
X0053351Y0154627D01*
X0053291Y0154393D01*
X0053236Y0154158D01*
X0053186Y0153921D01*
X0053143Y0153684D01*
X0053105Y0153445D01*
X0053073Y0153205D01*
X0053047Y0152965D01*
X0053026Y0152724D01*
X0053012Y0152483D01*
X0053003Y0152242D01*
X0053000Y0152000D01*
X0053000Y0067000D01*
X0053003Y0066758D01*
X0053012Y0066517D01*
X0053026Y0066276D01*
X0053047Y0066035D01*
X0053073Y0065795D01*
X0053105Y0065555D01*
X0053143Y0065316D01*
X0053186Y0065079D01*
X0053236Y0064842D01*
X0053291Y0064607D01*
X0053351Y0064373D01*
X0053418Y0064141D01*
X0053489Y0063910D01*
X0053567Y0063681D01*
X0053650Y0063454D01*
X0053738Y0063229D01*
X0053832Y0063006D01*
X0053931Y0062786D01*
X0054036Y0062568D01*
X0054145Y0062353D01*
X0054260Y0062140D01*
X0054380Y0061930D01*
X0054505Y0061724D01*
X0054635Y0061520D01*
X0054770Y0061319D01*
X0054910Y0061122D01*
X0055054Y0060928D01*
X0055203Y0060738D01*
X0055357Y0060552D01*
X0055515Y0060369D01*
X0055677Y0060190D01*
X0055844Y0060015D01*
X0056015Y0059844D01*
X0056190Y0059677D01*
X0056369Y0059515D01*
X0056552Y0059357D01*
X0056738Y0059203D01*
X0056928Y0059054D01*
X0057122Y0058910D01*
X0057319Y0058770D01*
X0057520Y0058635D01*
X0057724Y0058505D01*
X0057930Y0058380D01*
X0058140Y0058260D01*
X0058353Y0058145D01*
X0058568Y0058036D01*
X0058786Y0057931D01*
X0059006Y0057832D01*
X0059229Y0057738D01*
X0059454Y0057650D01*
X0059681Y0057567D01*
X0059910Y0057489D01*
X0060141Y0057418D01*
X0060373Y0057351D01*
X0060607Y0057291D01*
X0060842Y0057236D01*
X0061079Y0057186D01*
X0061316Y0057143D01*
X0061555Y0057105D01*
X0061795Y0057073D01*
X0062035Y0057047D01*
X0062276Y0057026D01*
X0062517Y0057012D01*
X0062758Y0057003D01*
X0063000Y0057000D01*
M02*
