G75*
%MOIN*%
%OFA0B0*%
%FSLAX25Y25*%
%IPPOS*%
%LPD*%
%AMOC8*
5,1,8,0,0,1.08239X$1,22.5*
%
%ADD10C,0.00500*%
%ADD11C,0.00300*%
%ADD12C,0.02000*%
D10*
X0233900Y0164550D02*
X0236400Y0164550D01*
X0234275Y0167050D01*
X0235025Y0169050D02*
X0235098Y0169048D01*
X0235170Y0169043D01*
X0235242Y0169034D01*
X0235314Y0169021D01*
X0235385Y0169005D01*
X0235455Y0168985D01*
X0235523Y0168961D01*
X0235591Y0168935D01*
X0235657Y0168904D01*
X0235722Y0168871D01*
X0235784Y0168834D01*
X0235845Y0168795D01*
X0235904Y0168752D01*
X0235961Y0168706D01*
X0236015Y0168658D01*
X0236066Y0168607D01*
X0236116Y0168553D01*
X0236162Y0168497D01*
X0236205Y0168439D01*
X0236246Y0168378D01*
X0236283Y0168316D01*
X0236317Y0168252D01*
X0236348Y0168186D01*
X0236376Y0168119D01*
X0236400Y0168050D01*
X0234275Y0167050D02*
X0234229Y0167096D01*
X0234185Y0167145D01*
X0234145Y0167196D01*
X0234107Y0167249D01*
X0234072Y0167304D01*
X0234040Y0167361D01*
X0234011Y0167419D01*
X0233985Y0167479D01*
X0233963Y0167541D01*
X0233944Y0167603D01*
X0233928Y0167666D01*
X0233916Y0167730D01*
X0233907Y0167795D01*
X0233902Y0167860D01*
X0233900Y0167925D01*
X0233902Y0167990D01*
X0233908Y0168056D01*
X0233917Y0168120D01*
X0233930Y0168184D01*
X0233947Y0168248D01*
X0233968Y0168310D01*
X0233992Y0168371D01*
X0234020Y0168430D01*
X0234051Y0168488D01*
X0234085Y0168543D01*
X0234123Y0168597D01*
X0234163Y0168648D01*
X0234207Y0168697D01*
X0234253Y0168743D01*
X0234302Y0168787D01*
X0234353Y0168827D01*
X0234407Y0168865D01*
X0234463Y0168899D01*
X0234520Y0168930D01*
X0234579Y0168958D01*
X0234640Y0168982D01*
X0234702Y0169003D01*
X0234766Y0169020D01*
X0234830Y0169033D01*
X0234894Y0169042D01*
X0234960Y0169048D01*
X0235025Y0169050D01*
X0238550Y0169050D02*
X0238550Y0165800D01*
X0238552Y0165731D01*
X0238558Y0165662D01*
X0238567Y0165594D01*
X0238580Y0165527D01*
X0238597Y0165460D01*
X0238618Y0165394D01*
X0238642Y0165330D01*
X0238670Y0165267D01*
X0238701Y0165205D01*
X0238735Y0165145D01*
X0238773Y0165088D01*
X0238814Y0165032D01*
X0238857Y0164979D01*
X0238904Y0164928D01*
X0238953Y0164880D01*
X0239005Y0164835D01*
X0239060Y0164793D01*
X0239116Y0164754D01*
X0239175Y0164717D01*
X0239236Y0164685D01*
X0239298Y0164655D01*
X0239362Y0164629D01*
X0239427Y0164607D01*
X0239493Y0164588D01*
X0239560Y0164573D01*
X0239628Y0164562D01*
X0239697Y0164554D01*
X0239766Y0164550D01*
X0239834Y0164550D01*
X0239903Y0164554D01*
X0239972Y0164562D01*
X0240040Y0164573D01*
X0240107Y0164588D01*
X0240173Y0164607D01*
X0240238Y0164629D01*
X0240302Y0164655D01*
X0240364Y0164685D01*
X0240425Y0164717D01*
X0240484Y0164754D01*
X0240540Y0164793D01*
X0240595Y0164835D01*
X0240647Y0164880D01*
X0240696Y0164928D01*
X0240743Y0164979D01*
X0240786Y0165032D01*
X0240827Y0165088D01*
X0240865Y0165145D01*
X0240899Y0165205D01*
X0240930Y0165267D01*
X0240958Y0165330D01*
X0240982Y0165394D01*
X0241003Y0165460D01*
X0241020Y0165527D01*
X0241033Y0165594D01*
X0241042Y0165662D01*
X0241048Y0165731D01*
X0241050Y0165800D01*
X0241050Y0169050D01*
X0286650Y0131769D02*
X0292950Y0131769D01*
X0290784Y0130391D02*
X0289800Y0129800D01*
X0290784Y0129209D01*
X0290784Y0130391D01*
X0290587Y0129800D02*
X0290391Y0129800D01*
X0289406Y0130784D02*
X0289406Y0128816D01*
X0286650Y0127831D02*
X0292950Y0127831D01*
X0292950Y0101769D02*
X0286650Y0101769D01*
X0289406Y0100784D02*
X0289406Y0098816D01*
X0289800Y0099800D02*
X0290784Y0100391D01*
X0290784Y0099209D01*
X0289800Y0099800D01*
X0290391Y0099800D02*
X0290587Y0099800D01*
X0292950Y0097831D02*
X0286650Y0097831D01*
X0286650Y0069269D02*
X0292950Y0069269D01*
X0290784Y0067891D02*
X0289800Y0067300D01*
X0290784Y0066709D01*
X0290784Y0067891D01*
X0290587Y0067300D02*
X0290391Y0067300D01*
X0289406Y0068284D02*
X0289406Y0066316D01*
X0286650Y0065331D02*
X0292950Y0065331D01*
X0306615Y0171300D02*
X0310552Y0171300D01*
X0306615Y0171300D02*
X0306615Y0190985D01*
X0306615Y0206733D02*
X0306615Y0220513D01*
X0345985Y0220513D01*
X0345985Y0206733D01*
X0345985Y0190985D02*
X0345985Y0171300D01*
X0342048Y0171300D01*
X0314489Y0198859D02*
X0314493Y0199149D01*
X0314503Y0199439D01*
X0314521Y0199728D01*
X0314546Y0200017D01*
X0314578Y0200305D01*
X0314617Y0200592D01*
X0314663Y0200878D01*
X0314716Y0201163D01*
X0314776Y0201447D01*
X0314843Y0201729D01*
X0314917Y0202009D01*
X0314998Y0202288D01*
X0315085Y0202564D01*
X0315179Y0202838D01*
X0315280Y0203110D01*
X0315388Y0203379D01*
X0315502Y0203645D01*
X0315623Y0203909D01*
X0315750Y0204169D01*
X0315884Y0204427D01*
X0316023Y0204681D01*
X0316169Y0204931D01*
X0316321Y0205178D01*
X0316480Y0205421D01*
X0316644Y0205660D01*
X0316813Y0205895D01*
X0316989Y0206126D01*
X0317170Y0206352D01*
X0317357Y0206574D01*
X0317549Y0206791D01*
X0317746Y0207003D01*
X0317948Y0207211D01*
X0318156Y0207413D01*
X0318368Y0207610D01*
X0318585Y0207802D01*
X0318807Y0207989D01*
X0319033Y0208170D01*
X0319264Y0208346D01*
X0319499Y0208515D01*
X0319738Y0208679D01*
X0319981Y0208838D01*
X0320228Y0208990D01*
X0320478Y0209136D01*
X0320732Y0209275D01*
X0320990Y0209409D01*
X0321250Y0209536D01*
X0321514Y0209657D01*
X0321780Y0209771D01*
X0322049Y0209879D01*
X0322321Y0209980D01*
X0322595Y0210074D01*
X0322871Y0210161D01*
X0323150Y0210242D01*
X0323430Y0210316D01*
X0323712Y0210383D01*
X0323996Y0210443D01*
X0324281Y0210496D01*
X0324567Y0210542D01*
X0324854Y0210581D01*
X0325142Y0210613D01*
X0325431Y0210638D01*
X0325720Y0210656D01*
X0326010Y0210666D01*
X0326300Y0210670D01*
X0326590Y0210666D01*
X0326880Y0210656D01*
X0327169Y0210638D01*
X0327458Y0210613D01*
X0327746Y0210581D01*
X0328033Y0210542D01*
X0328319Y0210496D01*
X0328604Y0210443D01*
X0328888Y0210383D01*
X0329170Y0210316D01*
X0329450Y0210242D01*
X0329729Y0210161D01*
X0330005Y0210074D01*
X0330279Y0209980D01*
X0330551Y0209879D01*
X0330820Y0209771D01*
X0331086Y0209657D01*
X0331350Y0209536D01*
X0331610Y0209409D01*
X0331868Y0209275D01*
X0332122Y0209136D01*
X0332372Y0208990D01*
X0332619Y0208838D01*
X0332862Y0208679D01*
X0333101Y0208515D01*
X0333336Y0208346D01*
X0333567Y0208170D01*
X0333793Y0207989D01*
X0334015Y0207802D01*
X0334232Y0207610D01*
X0334444Y0207413D01*
X0334652Y0207211D01*
X0334854Y0207003D01*
X0335051Y0206791D01*
X0335243Y0206574D01*
X0335430Y0206352D01*
X0335611Y0206126D01*
X0335787Y0205895D01*
X0335956Y0205660D01*
X0336120Y0205421D01*
X0336279Y0205178D01*
X0336431Y0204931D01*
X0336577Y0204681D01*
X0336716Y0204427D01*
X0336850Y0204169D01*
X0336977Y0203909D01*
X0337098Y0203645D01*
X0337212Y0203379D01*
X0337320Y0203110D01*
X0337421Y0202838D01*
X0337515Y0202564D01*
X0337602Y0202288D01*
X0337683Y0202009D01*
X0337757Y0201729D01*
X0337824Y0201447D01*
X0337884Y0201163D01*
X0337937Y0200878D01*
X0337983Y0200592D01*
X0338022Y0200305D01*
X0338054Y0200017D01*
X0338079Y0199728D01*
X0338097Y0199439D01*
X0338107Y0199149D01*
X0338111Y0198859D01*
X0338107Y0198569D01*
X0338097Y0198279D01*
X0338079Y0197990D01*
X0338054Y0197701D01*
X0338022Y0197413D01*
X0337983Y0197126D01*
X0337937Y0196840D01*
X0337884Y0196555D01*
X0337824Y0196271D01*
X0337757Y0195989D01*
X0337683Y0195709D01*
X0337602Y0195430D01*
X0337515Y0195154D01*
X0337421Y0194880D01*
X0337320Y0194608D01*
X0337212Y0194339D01*
X0337098Y0194073D01*
X0336977Y0193809D01*
X0336850Y0193549D01*
X0336716Y0193291D01*
X0336577Y0193037D01*
X0336431Y0192787D01*
X0336279Y0192540D01*
X0336120Y0192297D01*
X0335956Y0192058D01*
X0335787Y0191823D01*
X0335611Y0191592D01*
X0335430Y0191366D01*
X0335243Y0191144D01*
X0335051Y0190927D01*
X0334854Y0190715D01*
X0334652Y0190507D01*
X0334444Y0190305D01*
X0334232Y0190108D01*
X0334015Y0189916D01*
X0333793Y0189729D01*
X0333567Y0189548D01*
X0333336Y0189372D01*
X0333101Y0189203D01*
X0332862Y0189039D01*
X0332619Y0188880D01*
X0332372Y0188728D01*
X0332122Y0188582D01*
X0331868Y0188443D01*
X0331610Y0188309D01*
X0331350Y0188182D01*
X0331086Y0188061D01*
X0330820Y0187947D01*
X0330551Y0187839D01*
X0330279Y0187738D01*
X0330005Y0187644D01*
X0329729Y0187557D01*
X0329450Y0187476D01*
X0329170Y0187402D01*
X0328888Y0187335D01*
X0328604Y0187275D01*
X0328319Y0187222D01*
X0328033Y0187176D01*
X0327746Y0187137D01*
X0327458Y0187105D01*
X0327169Y0187080D01*
X0326880Y0187062D01*
X0326590Y0187052D01*
X0326300Y0187048D01*
X0326010Y0187052D01*
X0325720Y0187062D01*
X0325431Y0187080D01*
X0325142Y0187105D01*
X0324854Y0187137D01*
X0324567Y0187176D01*
X0324281Y0187222D01*
X0323996Y0187275D01*
X0323712Y0187335D01*
X0323430Y0187402D01*
X0323150Y0187476D01*
X0322871Y0187557D01*
X0322595Y0187644D01*
X0322321Y0187738D01*
X0322049Y0187839D01*
X0321780Y0187947D01*
X0321514Y0188061D01*
X0321250Y0188182D01*
X0320990Y0188309D01*
X0320732Y0188443D01*
X0320478Y0188582D01*
X0320228Y0188728D01*
X0319981Y0188880D01*
X0319738Y0189039D01*
X0319499Y0189203D01*
X0319264Y0189372D01*
X0319033Y0189548D01*
X0318807Y0189729D01*
X0318585Y0189916D01*
X0318368Y0190108D01*
X0318156Y0190305D01*
X0317948Y0190507D01*
X0317746Y0190715D01*
X0317549Y0190927D01*
X0317357Y0191144D01*
X0317170Y0191366D01*
X0316989Y0191592D01*
X0316813Y0191823D01*
X0316644Y0192058D01*
X0316480Y0192297D01*
X0316321Y0192540D01*
X0316169Y0192787D01*
X0316023Y0193037D01*
X0315884Y0193291D01*
X0315750Y0193549D01*
X0315623Y0193809D01*
X0315502Y0194073D01*
X0315388Y0194339D01*
X0315280Y0194608D01*
X0315179Y0194880D01*
X0315085Y0195154D01*
X0314998Y0195430D01*
X0314917Y0195709D01*
X0314843Y0195989D01*
X0314776Y0196271D01*
X0314716Y0196555D01*
X0314663Y0196840D01*
X0314617Y0197126D01*
X0314578Y0197413D01*
X0314546Y0197701D01*
X0314521Y0197990D01*
X0314503Y0198279D01*
X0314493Y0198569D01*
X0314489Y0198859D01*
D11*
X0341679Y0221450D02*
X0343290Y0221450D01*
X0342485Y0221450D02*
X0342485Y0224350D01*
X0343290Y0223706D01*
X0345344Y0224350D02*
X0345289Y0224348D01*
X0345234Y0224342D01*
X0345180Y0224333D01*
X0345127Y0224320D01*
X0345074Y0224303D01*
X0345023Y0224283D01*
X0344973Y0224260D01*
X0344925Y0224233D01*
X0344879Y0224202D01*
X0344835Y0224169D01*
X0344794Y0224133D01*
X0344755Y0224094D01*
X0344719Y0224053D01*
X0344686Y0224009D01*
X0344655Y0223963D01*
X0344628Y0223915D01*
X0344605Y0223865D01*
X0344585Y0223814D01*
X0344568Y0223761D01*
X0344555Y0223708D01*
X0344546Y0223654D01*
X0344540Y0223599D01*
X0344538Y0223544D01*
X0344540Y0223489D01*
X0344546Y0223434D01*
X0344555Y0223380D01*
X0344568Y0223327D01*
X0344585Y0223274D01*
X0344605Y0223223D01*
X0344628Y0223173D01*
X0344655Y0223125D01*
X0344686Y0223079D01*
X0344719Y0223035D01*
X0344755Y0222994D01*
X0344794Y0222955D01*
X0344835Y0222919D01*
X0344879Y0222886D01*
X0344925Y0222855D01*
X0344973Y0222828D01*
X0345023Y0222805D01*
X0345074Y0222785D01*
X0345127Y0222768D01*
X0345180Y0222755D01*
X0345234Y0222746D01*
X0345289Y0222740D01*
X0345344Y0222738D01*
X0345344Y0222739D02*
X0346150Y0222739D01*
X0345183Y0222739D02*
X0344539Y0221450D01*
X0346150Y0221450D02*
X0346150Y0224350D01*
X0345344Y0224350D01*
X0294650Y0136850D02*
X0293844Y0136850D01*
X0293789Y0136848D01*
X0293734Y0136842D01*
X0293680Y0136833D01*
X0293627Y0136820D01*
X0293574Y0136803D01*
X0293523Y0136783D01*
X0293473Y0136760D01*
X0293425Y0136733D01*
X0293379Y0136702D01*
X0293335Y0136669D01*
X0293294Y0136633D01*
X0293255Y0136594D01*
X0293219Y0136553D01*
X0293186Y0136509D01*
X0293155Y0136463D01*
X0293128Y0136415D01*
X0293105Y0136365D01*
X0293085Y0136314D01*
X0293068Y0136261D01*
X0293055Y0136208D01*
X0293046Y0136154D01*
X0293040Y0136099D01*
X0293038Y0136044D01*
X0293040Y0135989D01*
X0293046Y0135934D01*
X0293055Y0135880D01*
X0293068Y0135827D01*
X0293085Y0135774D01*
X0293105Y0135723D01*
X0293128Y0135673D01*
X0293155Y0135625D01*
X0293186Y0135579D01*
X0293219Y0135535D01*
X0293255Y0135494D01*
X0293294Y0135455D01*
X0293335Y0135419D01*
X0293379Y0135386D01*
X0293425Y0135355D01*
X0293473Y0135328D01*
X0293523Y0135305D01*
X0293574Y0135285D01*
X0293627Y0135268D01*
X0293680Y0135255D01*
X0293734Y0135246D01*
X0293789Y0135240D01*
X0293844Y0135238D01*
X0293844Y0135239D02*
X0294650Y0135239D01*
X0293683Y0135239D02*
X0293039Y0133950D01*
X0291688Y0133950D02*
X0291688Y0136850D01*
X0290399Y0136850D01*
X0289198Y0136850D02*
X0288393Y0136850D01*
X0289198Y0136850D02*
X0289198Y0133950D01*
X0288393Y0133950D01*
X0288338Y0133952D01*
X0288283Y0133958D01*
X0288229Y0133967D01*
X0288176Y0133980D01*
X0288123Y0133997D01*
X0288072Y0134017D01*
X0288022Y0134040D01*
X0287974Y0134067D01*
X0287928Y0134098D01*
X0287884Y0134131D01*
X0287843Y0134167D01*
X0287804Y0134206D01*
X0287768Y0134247D01*
X0287735Y0134291D01*
X0287704Y0134337D01*
X0287677Y0134385D01*
X0287654Y0134435D01*
X0287634Y0134486D01*
X0287617Y0134539D01*
X0287604Y0134592D01*
X0287595Y0134646D01*
X0287589Y0134701D01*
X0287587Y0134756D01*
X0287587Y0136044D01*
X0287589Y0136099D01*
X0287595Y0136154D01*
X0287604Y0136208D01*
X0287617Y0136261D01*
X0287634Y0136314D01*
X0287654Y0136365D01*
X0287677Y0136415D01*
X0287704Y0136463D01*
X0287735Y0136509D01*
X0287768Y0136553D01*
X0287804Y0136594D01*
X0287843Y0136633D01*
X0287884Y0136669D01*
X0287928Y0136702D01*
X0287974Y0136733D01*
X0288022Y0136760D01*
X0288072Y0136783D01*
X0288123Y0136803D01*
X0288176Y0136820D01*
X0288229Y0136833D01*
X0288283Y0136842D01*
X0288338Y0136848D01*
X0288393Y0136850D01*
X0290721Y0135561D02*
X0291688Y0135561D01*
X0291688Y0133950D02*
X0290399Y0133950D01*
X0294650Y0133950D02*
X0294650Y0136850D01*
X0294006Y0106850D02*
X0293039Y0106850D01*
X0294006Y0106850D02*
X0294054Y0106848D01*
X0294102Y0106843D01*
X0294149Y0106834D01*
X0294196Y0106821D01*
X0294241Y0106805D01*
X0294285Y0106786D01*
X0294328Y0106764D01*
X0294369Y0106738D01*
X0294408Y0106709D01*
X0294444Y0106678D01*
X0294478Y0106644D01*
X0294509Y0106608D01*
X0294538Y0106569D01*
X0294564Y0106528D01*
X0294586Y0106485D01*
X0294605Y0106441D01*
X0294621Y0106396D01*
X0294634Y0106349D01*
X0294643Y0106302D01*
X0294648Y0106254D01*
X0294650Y0106206D01*
X0294650Y0104594D01*
X0294648Y0104546D01*
X0294643Y0104498D01*
X0294634Y0104451D01*
X0294621Y0104404D01*
X0294605Y0104359D01*
X0294586Y0104315D01*
X0294564Y0104272D01*
X0294538Y0104231D01*
X0294509Y0104192D01*
X0294478Y0104156D01*
X0294444Y0104122D01*
X0294408Y0104091D01*
X0294369Y0104062D01*
X0294328Y0104036D01*
X0294285Y0104014D01*
X0294241Y0103995D01*
X0294196Y0103979D01*
X0294149Y0103966D01*
X0294102Y0103957D01*
X0294054Y0103952D01*
X0294006Y0103950D01*
X0293039Y0103950D01*
X0293039Y0105561D01*
X0293522Y0105561D01*
X0291558Y0105239D02*
X0290752Y0105239D01*
X0290591Y0105239D02*
X0289947Y0103950D01*
X0288596Y0103950D02*
X0288596Y0106850D01*
X0287307Y0106850D01*
X0286100Y0106850D02*
X0286100Y0103950D01*
X0284811Y0103950D01*
X0283610Y0103950D02*
X0283610Y0106850D01*
X0281999Y0103950D01*
X0281999Y0106850D01*
X0284811Y0106850D02*
X0286100Y0106850D01*
X0286100Y0105561D02*
X0285133Y0105561D01*
X0287629Y0105561D02*
X0288596Y0105561D01*
X0288596Y0103950D02*
X0287307Y0103950D01*
X0290752Y0105238D02*
X0290697Y0105240D01*
X0290642Y0105246D01*
X0290588Y0105255D01*
X0290535Y0105268D01*
X0290482Y0105285D01*
X0290431Y0105305D01*
X0290381Y0105328D01*
X0290333Y0105355D01*
X0290287Y0105386D01*
X0290243Y0105419D01*
X0290202Y0105455D01*
X0290163Y0105494D01*
X0290127Y0105535D01*
X0290094Y0105579D01*
X0290063Y0105625D01*
X0290036Y0105673D01*
X0290013Y0105723D01*
X0289993Y0105774D01*
X0289976Y0105827D01*
X0289963Y0105880D01*
X0289954Y0105934D01*
X0289948Y0105989D01*
X0289946Y0106044D01*
X0289948Y0106099D01*
X0289954Y0106154D01*
X0289963Y0106208D01*
X0289976Y0106261D01*
X0289993Y0106314D01*
X0290013Y0106365D01*
X0290036Y0106415D01*
X0290063Y0106463D01*
X0290094Y0106509D01*
X0290127Y0106553D01*
X0290163Y0106594D01*
X0290202Y0106633D01*
X0290243Y0106669D01*
X0290287Y0106702D01*
X0290333Y0106733D01*
X0290381Y0106760D01*
X0290431Y0106783D01*
X0290482Y0106803D01*
X0290535Y0106820D01*
X0290588Y0106833D01*
X0290642Y0106842D01*
X0290697Y0106848D01*
X0290752Y0106850D01*
X0291558Y0106850D01*
X0291558Y0103950D01*
X0291810Y0074350D02*
X0291810Y0071450D01*
X0290521Y0071450D01*
X0289320Y0072256D02*
X0289320Y0074350D01*
X0287709Y0074350D02*
X0287709Y0072256D01*
X0287711Y0072201D01*
X0287717Y0072146D01*
X0287726Y0072092D01*
X0287739Y0072039D01*
X0287756Y0071986D01*
X0287776Y0071935D01*
X0287799Y0071885D01*
X0287826Y0071837D01*
X0287857Y0071791D01*
X0287890Y0071747D01*
X0287926Y0071706D01*
X0287965Y0071667D01*
X0288006Y0071631D01*
X0288050Y0071598D01*
X0288096Y0071567D01*
X0288144Y0071540D01*
X0288194Y0071517D01*
X0288245Y0071497D01*
X0288298Y0071480D01*
X0288351Y0071467D01*
X0288405Y0071458D01*
X0288460Y0071452D01*
X0288515Y0071450D01*
X0288570Y0071452D01*
X0288625Y0071458D01*
X0288679Y0071467D01*
X0288732Y0071480D01*
X0288785Y0071497D01*
X0288836Y0071517D01*
X0288886Y0071540D01*
X0288934Y0071567D01*
X0288980Y0071598D01*
X0289024Y0071631D01*
X0289065Y0071667D01*
X0289104Y0071706D01*
X0289140Y0071747D01*
X0289173Y0071791D01*
X0289204Y0071837D01*
X0289231Y0071885D01*
X0289254Y0071935D01*
X0289274Y0071986D01*
X0289291Y0072039D01*
X0289304Y0072092D01*
X0289313Y0072146D01*
X0289319Y0072201D01*
X0289321Y0072256D01*
X0286242Y0073061D02*
X0285276Y0073061D01*
X0284953Y0074350D02*
X0286242Y0074350D01*
X0286242Y0071450D01*
X0284953Y0071450D01*
X0293844Y0071450D02*
X0294650Y0071450D01*
X0294650Y0074350D01*
X0293844Y0074350D01*
X0293795Y0074348D01*
X0293746Y0074342D01*
X0293697Y0074333D01*
X0293650Y0074320D01*
X0293603Y0074303D01*
X0293558Y0074283D01*
X0293515Y0074260D01*
X0293473Y0074233D01*
X0293434Y0074203D01*
X0293397Y0074170D01*
X0293363Y0074134D01*
X0293332Y0074096D01*
X0293303Y0074056D01*
X0293278Y0074014D01*
X0293256Y0073969D01*
X0293238Y0073924D01*
X0293223Y0073877D01*
X0293212Y0073829D01*
X0293204Y0073780D01*
X0293200Y0073731D01*
X0293200Y0073681D01*
X0293204Y0073632D01*
X0293212Y0073583D01*
X0293223Y0073535D01*
X0293238Y0073488D01*
X0293256Y0073443D01*
X0293278Y0073398D01*
X0293303Y0073356D01*
X0293332Y0073316D01*
X0293363Y0073278D01*
X0293397Y0073242D01*
X0293434Y0073209D01*
X0293473Y0073179D01*
X0293515Y0073152D01*
X0293558Y0073129D01*
X0293603Y0073109D01*
X0293650Y0073092D01*
X0293697Y0073079D01*
X0293746Y0073070D01*
X0293795Y0073064D01*
X0293844Y0073062D01*
X0293844Y0073061D02*
X0294650Y0073061D01*
X0293844Y0073062D02*
X0293789Y0073060D01*
X0293734Y0073054D01*
X0293680Y0073045D01*
X0293627Y0073032D01*
X0293574Y0073015D01*
X0293523Y0072995D01*
X0293473Y0072972D01*
X0293425Y0072945D01*
X0293379Y0072914D01*
X0293335Y0072881D01*
X0293294Y0072845D01*
X0293255Y0072806D01*
X0293219Y0072765D01*
X0293186Y0072721D01*
X0293155Y0072675D01*
X0293128Y0072627D01*
X0293105Y0072577D01*
X0293085Y0072526D01*
X0293068Y0072473D01*
X0293055Y0072420D01*
X0293046Y0072366D01*
X0293040Y0072311D01*
X0293038Y0072256D01*
X0293040Y0072201D01*
X0293046Y0072146D01*
X0293055Y0072092D01*
X0293068Y0072039D01*
X0293085Y0071986D01*
X0293105Y0071935D01*
X0293128Y0071885D01*
X0293155Y0071837D01*
X0293186Y0071791D01*
X0293219Y0071747D01*
X0293255Y0071706D01*
X0293294Y0071667D01*
X0293335Y0071631D01*
X0293379Y0071598D01*
X0293425Y0071567D01*
X0293473Y0071540D01*
X0293523Y0071517D01*
X0293574Y0071497D01*
X0293627Y0071480D01*
X0293680Y0071467D01*
X0293734Y0071458D01*
X0293789Y0071452D01*
X0293844Y0071450D01*
X0164272Y0164450D02*
X0163450Y0164450D01*
X0164272Y0164450D02*
X0164328Y0164452D01*
X0164384Y0164458D01*
X0164439Y0164467D01*
X0164494Y0164480D01*
X0164547Y0164497D01*
X0164599Y0164518D01*
X0164650Y0164542D01*
X0164699Y0164570D01*
X0164746Y0164600D01*
X0164791Y0164634D01*
X0164833Y0164671D01*
X0164873Y0164711D01*
X0164910Y0164753D01*
X0164944Y0164798D01*
X0164974Y0164845D01*
X0165002Y0164894D01*
X0165026Y0164945D01*
X0165047Y0164997D01*
X0165064Y0165050D01*
X0165077Y0165105D01*
X0165086Y0165160D01*
X0165092Y0165216D01*
X0165094Y0165272D01*
X0165094Y0167328D01*
X0165092Y0167384D01*
X0165086Y0167440D01*
X0165077Y0167495D01*
X0165064Y0167550D01*
X0165047Y0167603D01*
X0165026Y0167655D01*
X0165002Y0167706D01*
X0164974Y0167755D01*
X0164944Y0167802D01*
X0164910Y0167847D01*
X0164873Y0167889D01*
X0164833Y0167929D01*
X0164791Y0167966D01*
X0164746Y0168000D01*
X0164699Y0168030D01*
X0164650Y0168058D01*
X0164599Y0168082D01*
X0164547Y0168103D01*
X0164494Y0168120D01*
X0164439Y0168133D01*
X0164384Y0168142D01*
X0164328Y0168148D01*
X0164272Y0168150D01*
X0163450Y0168150D01*
X0155506Y0168150D02*
X0155506Y0164450D01*
X0154478Y0164450D01*
X0154416Y0164452D01*
X0154354Y0164457D01*
X0154293Y0164467D01*
X0154232Y0164480D01*
X0154172Y0164497D01*
X0154113Y0164517D01*
X0154056Y0164541D01*
X0154000Y0164568D01*
X0153946Y0164598D01*
X0153894Y0164632D01*
X0153844Y0164669D01*
X0153796Y0164709D01*
X0153751Y0164751D01*
X0153709Y0164796D01*
X0153669Y0164844D01*
X0153632Y0164894D01*
X0153598Y0164946D01*
X0153568Y0165000D01*
X0153541Y0165056D01*
X0153517Y0165113D01*
X0153497Y0165172D01*
X0153480Y0165232D01*
X0153467Y0165293D01*
X0153457Y0165354D01*
X0153452Y0165416D01*
X0153450Y0165478D01*
X0153450Y0167122D01*
X0153452Y0167184D01*
X0153457Y0167246D01*
X0153467Y0167307D01*
X0153480Y0167368D01*
X0153497Y0167428D01*
X0153517Y0167487D01*
X0153541Y0167544D01*
X0153568Y0167600D01*
X0153598Y0167654D01*
X0153632Y0167706D01*
X0153669Y0167756D01*
X0153709Y0167804D01*
X0153751Y0167849D01*
X0153796Y0167891D01*
X0153844Y0167931D01*
X0153894Y0167968D01*
X0153946Y0168002D01*
X0154000Y0168032D01*
X0154056Y0168059D01*
X0154113Y0168083D01*
X0154172Y0168103D01*
X0154232Y0168120D01*
X0154293Y0168133D01*
X0154354Y0168143D01*
X0154416Y0168148D01*
X0154478Y0168150D01*
X0155506Y0168150D01*
X0145917Y0165889D02*
X0143450Y0165889D01*
X0135917Y0165889D02*
X0133450Y0165889D01*
X0134683Y0164656D02*
X0134683Y0167122D01*
D12*
X0062800Y0056800D02*
X0239800Y0056800D01*
X0240042Y0056803D01*
X0240283Y0056812D01*
X0240524Y0056826D01*
X0240765Y0056847D01*
X0241005Y0056873D01*
X0241245Y0056905D01*
X0241484Y0056943D01*
X0241721Y0056986D01*
X0241958Y0057036D01*
X0242193Y0057091D01*
X0242427Y0057151D01*
X0242659Y0057218D01*
X0242890Y0057289D01*
X0243119Y0057367D01*
X0243346Y0057450D01*
X0243571Y0057538D01*
X0243794Y0057632D01*
X0244014Y0057731D01*
X0244232Y0057836D01*
X0244447Y0057945D01*
X0244660Y0058060D01*
X0244870Y0058180D01*
X0245076Y0058305D01*
X0245280Y0058435D01*
X0245481Y0058570D01*
X0245678Y0058710D01*
X0245872Y0058854D01*
X0246062Y0059003D01*
X0246248Y0059157D01*
X0246431Y0059315D01*
X0246610Y0059477D01*
X0246785Y0059644D01*
X0246956Y0059815D01*
X0247123Y0059990D01*
X0247285Y0060169D01*
X0247443Y0060352D01*
X0247597Y0060538D01*
X0247746Y0060728D01*
X0247890Y0060922D01*
X0248030Y0061119D01*
X0248165Y0061320D01*
X0248295Y0061524D01*
X0248420Y0061730D01*
X0248540Y0061940D01*
X0248655Y0062153D01*
X0248764Y0062368D01*
X0248869Y0062586D01*
X0248968Y0062806D01*
X0249062Y0063029D01*
X0249150Y0063254D01*
X0249233Y0063481D01*
X0249311Y0063710D01*
X0249382Y0063941D01*
X0249449Y0064173D01*
X0249509Y0064407D01*
X0249564Y0064642D01*
X0249614Y0064879D01*
X0249657Y0065116D01*
X0249695Y0065355D01*
X0249727Y0065595D01*
X0249753Y0065835D01*
X0249774Y0066076D01*
X0249788Y0066317D01*
X0249797Y0066558D01*
X0249800Y0066800D01*
X0249800Y0151800D01*
X0249797Y0152042D01*
X0249788Y0152283D01*
X0249774Y0152524D01*
X0249753Y0152765D01*
X0249727Y0153005D01*
X0249695Y0153245D01*
X0249657Y0153484D01*
X0249614Y0153721D01*
X0249564Y0153958D01*
X0249509Y0154193D01*
X0249449Y0154427D01*
X0249382Y0154659D01*
X0249311Y0154890D01*
X0249233Y0155119D01*
X0249150Y0155346D01*
X0249062Y0155571D01*
X0248968Y0155794D01*
X0248869Y0156014D01*
X0248764Y0156232D01*
X0248655Y0156447D01*
X0248540Y0156660D01*
X0248420Y0156870D01*
X0248295Y0157076D01*
X0248165Y0157280D01*
X0248030Y0157481D01*
X0247890Y0157678D01*
X0247746Y0157872D01*
X0247597Y0158062D01*
X0247443Y0158248D01*
X0247285Y0158431D01*
X0247123Y0158610D01*
X0246956Y0158785D01*
X0246785Y0158956D01*
X0246610Y0159123D01*
X0246431Y0159285D01*
X0246248Y0159443D01*
X0246062Y0159597D01*
X0245872Y0159746D01*
X0245678Y0159890D01*
X0245481Y0160030D01*
X0245280Y0160165D01*
X0245076Y0160295D01*
X0244870Y0160420D01*
X0244660Y0160540D01*
X0244447Y0160655D01*
X0244232Y0160764D01*
X0244014Y0160869D01*
X0243794Y0160968D01*
X0243571Y0161062D01*
X0243346Y0161150D01*
X0243119Y0161233D01*
X0242890Y0161311D01*
X0242659Y0161382D01*
X0242427Y0161449D01*
X0242193Y0161509D01*
X0241958Y0161564D01*
X0241721Y0161614D01*
X0241484Y0161657D01*
X0241245Y0161695D01*
X0241005Y0161727D01*
X0240765Y0161753D01*
X0240524Y0161774D01*
X0240283Y0161788D01*
X0240042Y0161797D01*
X0239800Y0161800D01*
X0062800Y0161800D01*
X0062558Y0161797D01*
X0062317Y0161788D01*
X0062076Y0161774D01*
X0061835Y0161753D01*
X0061595Y0161727D01*
X0061355Y0161695D01*
X0061116Y0161657D01*
X0060879Y0161614D01*
X0060642Y0161564D01*
X0060407Y0161509D01*
X0060173Y0161449D01*
X0059941Y0161382D01*
X0059710Y0161311D01*
X0059481Y0161233D01*
X0059254Y0161150D01*
X0059029Y0161062D01*
X0058806Y0160968D01*
X0058586Y0160869D01*
X0058368Y0160764D01*
X0058153Y0160655D01*
X0057940Y0160540D01*
X0057730Y0160420D01*
X0057524Y0160295D01*
X0057320Y0160165D01*
X0057119Y0160030D01*
X0056922Y0159890D01*
X0056728Y0159746D01*
X0056538Y0159597D01*
X0056352Y0159443D01*
X0056169Y0159285D01*
X0055990Y0159123D01*
X0055815Y0158956D01*
X0055644Y0158785D01*
X0055477Y0158610D01*
X0055315Y0158431D01*
X0055157Y0158248D01*
X0055003Y0158062D01*
X0054854Y0157872D01*
X0054710Y0157678D01*
X0054570Y0157481D01*
X0054435Y0157280D01*
X0054305Y0157076D01*
X0054180Y0156870D01*
X0054060Y0156660D01*
X0053945Y0156447D01*
X0053836Y0156232D01*
X0053731Y0156014D01*
X0053632Y0155794D01*
X0053538Y0155571D01*
X0053450Y0155346D01*
X0053367Y0155119D01*
X0053289Y0154890D01*
X0053218Y0154659D01*
X0053151Y0154427D01*
X0053091Y0154193D01*
X0053036Y0153958D01*
X0052986Y0153721D01*
X0052943Y0153484D01*
X0052905Y0153245D01*
X0052873Y0153005D01*
X0052847Y0152765D01*
X0052826Y0152524D01*
X0052812Y0152283D01*
X0052803Y0152042D01*
X0052800Y0151800D01*
X0052800Y0066800D01*
X0052803Y0066558D01*
X0052812Y0066317D01*
X0052826Y0066076D01*
X0052847Y0065835D01*
X0052873Y0065595D01*
X0052905Y0065355D01*
X0052943Y0065116D01*
X0052986Y0064879D01*
X0053036Y0064642D01*
X0053091Y0064407D01*
X0053151Y0064173D01*
X0053218Y0063941D01*
X0053289Y0063710D01*
X0053367Y0063481D01*
X0053450Y0063254D01*
X0053538Y0063029D01*
X0053632Y0062806D01*
X0053731Y0062586D01*
X0053836Y0062368D01*
X0053945Y0062153D01*
X0054060Y0061940D01*
X0054180Y0061730D01*
X0054305Y0061524D01*
X0054435Y0061320D01*
X0054570Y0061119D01*
X0054710Y0060922D01*
X0054854Y0060728D01*
X0055003Y0060538D01*
X0055157Y0060352D01*
X0055315Y0060169D01*
X0055477Y0059990D01*
X0055644Y0059815D01*
X0055815Y0059644D01*
X0055990Y0059477D01*
X0056169Y0059315D01*
X0056352Y0059157D01*
X0056538Y0059003D01*
X0056728Y0058854D01*
X0056922Y0058710D01*
X0057119Y0058570D01*
X0057320Y0058435D01*
X0057524Y0058305D01*
X0057730Y0058180D01*
X0057940Y0058060D01*
X0058153Y0057945D01*
X0058368Y0057836D01*
X0058586Y0057731D01*
X0058806Y0057632D01*
X0059029Y0057538D01*
X0059254Y0057450D01*
X0059481Y0057367D01*
X0059710Y0057289D01*
X0059941Y0057218D01*
X0060173Y0057151D01*
X0060407Y0057091D01*
X0060642Y0057036D01*
X0060879Y0056986D01*
X0061116Y0056943D01*
X0061355Y0056905D01*
X0061595Y0056873D01*
X0061835Y0056847D01*
X0062076Y0056826D01*
X0062317Y0056812D01*
X0062558Y0056803D01*
X0062800Y0056800D01*
M02*
